%TF.GenerationSoftware,KiCad,Pcbnew,10.0.4*%
%TF.CreationDate,2026-07-08T09:23:37+02:00*%
%TF.ProjectId,mouse1-1,6d6f7573-6531-42d3-912e-6b696361645f,07/07/2026*%
%TF.SameCoordinates,Original*%
%TF.FileFunction,Copper,L1,Top*%
%TF.FilePolarity,Positive*%
%FSLAX46Y46*%
G04 Gerber Fmt 4.6, Leading zero omitted, Abs format (unit mm)*
G04 Created by KiCad (PCBNEW 10.0.4) date 2026-07-08 09:23:37*
%MOMM*%
%LPD*%
G01*
G04 APERTURE LIST*
G04 Aperture macros list*
%AMRoundRect*
0 Rectangle with rounded corners*
0 $1 Rounding radius*
0 $2 $3 $4 $5 $6 $7 $8 $9 X,Y pos of 4 corners*
0 Add a 4 corners polygon primitive as box body*
4,1,4,$2,$3,$4,$5,$6,$7,$8,$9,$2,$3,0*
0 Add four circle primitives for the rounded corners*
1,1,$1+$1,$2,$3*
1,1,$1+$1,$4,$5*
1,1,$1+$1,$6,$7*
1,1,$1+$1,$8,$9*
0 Add four rect primitives between the rounded corners*
20,1,$1+$1,$2,$3,$4,$5,0*
20,1,$1+$1,$4,$5,$6,$7,0*
20,1,$1+$1,$6,$7,$8,$9,0*
20,1,$1+$1,$8,$9,$2,$3,0*%
%AMRotRect*
0 Rectangle, with rotation*
0 The origin of the aperture is its center*
0 $1 length*
0 $2 width*
0 $3 Rotation angle, in degrees counterclockwise*
0 Add horizontal line*
21,1,$1,$2,0,0,$3*%
G04 Aperture macros list end*
%ADD10C,0.250000*%
%TA.AperFunction,NonConductor*%
%ADD11C,0.250000*%
%TD*%
%TA.AperFunction,ComponentPad*%
%ADD12RoundRect,0.190500X-0.444500X-0.444500X0.444500X-0.444500X0.444500X0.444500X-0.444500X0.444500X0*%
%TD*%
%TA.AperFunction,ComponentPad*%
%ADD13RotRect,1.800000X1.800000X315.000000*%
%TD*%
%TA.AperFunction,ComponentPad*%
%ADD14C,1.800000*%
%TD*%
%TA.AperFunction,ComponentPad*%
%ADD15R,1.800000X1.800000*%
%TD*%
%TA.AperFunction,ComponentPad*%
%ADD16C,1.400000*%
%TD*%
%TA.AperFunction,ComponentPad*%
%ADD17RoundRect,0.190500X0.444500X-0.444500X0.444500X0.444500X-0.444500X0.444500X-0.444500X-0.444500X0*%
%TD*%
%TA.AperFunction,ComponentPad*%
%ADD18R,2.252440X1.134998*%
%TD*%
%TA.AperFunction,ComponentPad*%
%ADD19R,2.201764X1.000000*%
%TD*%
%TA.AperFunction,ComponentPad*%
%ADD20C,1.308000*%
%TD*%
%TA.AperFunction,ComponentPad*%
%ADD21C,2.000000*%
%TD*%
%TA.AperFunction,Conductor*%
%ADD22C,0.200000*%
%TD*%
G04 APERTURE END LIST*
D10*
D11*
X132902568Y-45864619D02*
X132902568Y-44864619D01*
X133331139Y-45864619D02*
X133331139Y-45340809D01*
X133331139Y-45340809D02*
X133283520Y-45245571D01*
X133283520Y-45245571D02*
X133188282Y-45197952D01*
X133188282Y-45197952D02*
X133045425Y-45197952D01*
X133045425Y-45197952D02*
X132950187Y-45245571D01*
X132950187Y-45245571D02*
X132902568Y-45293190D01*
X133664473Y-45197952D02*
X134045425Y-45197952D01*
X133807330Y-44864619D02*
X133807330Y-45721761D01*
X133807330Y-45721761D02*
X133854949Y-45817000D01*
X133854949Y-45817000D02*
X133950187Y-45864619D01*
X133950187Y-45864619D02*
X134045425Y-45864619D01*
X134235902Y-45197952D02*
X134616854Y-45197952D01*
X134378759Y-44864619D02*
X134378759Y-45721761D01*
X134378759Y-45721761D02*
X134426378Y-45817000D01*
X134426378Y-45817000D02*
X134521616Y-45864619D01*
X134521616Y-45864619D02*
X134616854Y-45864619D01*
X134950188Y-45197952D02*
X134950188Y-46197952D01*
X134950188Y-45245571D02*
X135045426Y-45197952D01*
X135045426Y-45197952D02*
X135235902Y-45197952D01*
X135235902Y-45197952D02*
X135331140Y-45245571D01*
X135331140Y-45245571D02*
X135378759Y-45293190D01*
X135378759Y-45293190D02*
X135426378Y-45388428D01*
X135426378Y-45388428D02*
X135426378Y-45674142D01*
X135426378Y-45674142D02*
X135378759Y-45769380D01*
X135378759Y-45769380D02*
X135331140Y-45817000D01*
X135331140Y-45817000D02*
X135235902Y-45864619D01*
X135235902Y-45864619D02*
X135045426Y-45864619D01*
X135045426Y-45864619D02*
X134950188Y-45817000D01*
X135807331Y-45817000D02*
X135902569Y-45864619D01*
X135902569Y-45864619D02*
X136093045Y-45864619D01*
X136093045Y-45864619D02*
X136188283Y-45817000D01*
X136188283Y-45817000D02*
X136235902Y-45721761D01*
X136235902Y-45721761D02*
X136235902Y-45674142D01*
X136235902Y-45674142D02*
X136188283Y-45578904D01*
X136188283Y-45578904D02*
X136093045Y-45531285D01*
X136093045Y-45531285D02*
X135950188Y-45531285D01*
X135950188Y-45531285D02*
X135854950Y-45483666D01*
X135854950Y-45483666D02*
X135807331Y-45388428D01*
X135807331Y-45388428D02*
X135807331Y-45340809D01*
X135807331Y-45340809D02*
X135854950Y-45245571D01*
X135854950Y-45245571D02*
X135950188Y-45197952D01*
X135950188Y-45197952D02*
X136093045Y-45197952D01*
X136093045Y-45197952D02*
X136188283Y-45245571D01*
X136664474Y-45769380D02*
X136712093Y-45817000D01*
X136712093Y-45817000D02*
X136664474Y-45864619D01*
X136664474Y-45864619D02*
X136616855Y-45817000D01*
X136616855Y-45817000D02*
X136664474Y-45769380D01*
X136664474Y-45769380D02*
X136664474Y-45864619D01*
X136664474Y-45245571D02*
X136712093Y-45293190D01*
X136712093Y-45293190D02*
X136664474Y-45340809D01*
X136664474Y-45340809D02*
X136616855Y-45293190D01*
X136616855Y-45293190D02*
X136664474Y-45245571D01*
X136664474Y-45245571D02*
X136664474Y-45340809D01*
X137854949Y-44817000D02*
X136997807Y-46102714D01*
X138902568Y-44817000D02*
X138045426Y-46102714D01*
X139664473Y-45197952D02*
X139664473Y-46007476D01*
X139664473Y-46007476D02*
X139616854Y-46102714D01*
X139616854Y-46102714D02*
X139569235Y-46150333D01*
X139569235Y-46150333D02*
X139473997Y-46197952D01*
X139473997Y-46197952D02*
X139331140Y-46197952D01*
X139331140Y-46197952D02*
X139235902Y-46150333D01*
X139664473Y-45817000D02*
X139569235Y-45864619D01*
X139569235Y-45864619D02*
X139378759Y-45864619D01*
X139378759Y-45864619D02*
X139283521Y-45817000D01*
X139283521Y-45817000D02*
X139235902Y-45769380D01*
X139235902Y-45769380D02*
X139188283Y-45674142D01*
X139188283Y-45674142D02*
X139188283Y-45388428D01*
X139188283Y-45388428D02*
X139235902Y-45293190D01*
X139235902Y-45293190D02*
X139283521Y-45245571D01*
X139283521Y-45245571D02*
X139378759Y-45197952D01*
X139378759Y-45197952D02*
X139569235Y-45197952D01*
X139569235Y-45197952D02*
X139664473Y-45245571D01*
X140140664Y-45864619D02*
X140140664Y-45197952D01*
X140140664Y-44864619D02*
X140093045Y-44912238D01*
X140093045Y-44912238D02*
X140140664Y-44959857D01*
X140140664Y-44959857D02*
X140188283Y-44912238D01*
X140188283Y-44912238D02*
X140140664Y-44864619D01*
X140140664Y-44864619D02*
X140140664Y-44959857D01*
X140473997Y-45197952D02*
X140854949Y-45197952D01*
X140616854Y-44864619D02*
X140616854Y-45721761D01*
X140616854Y-45721761D02*
X140664473Y-45817000D01*
X140664473Y-45817000D02*
X140759711Y-45864619D01*
X140759711Y-45864619D02*
X140854949Y-45864619D01*
X141188283Y-45864619D02*
X141188283Y-44864619D01*
X141616854Y-45864619D02*
X141616854Y-45340809D01*
X141616854Y-45340809D02*
X141569235Y-45245571D01*
X141569235Y-45245571D02*
X141473997Y-45197952D01*
X141473997Y-45197952D02*
X141331140Y-45197952D01*
X141331140Y-45197952D02*
X141235902Y-45245571D01*
X141235902Y-45245571D02*
X141188283Y-45293190D01*
X142521616Y-45197952D02*
X142521616Y-45864619D01*
X142093045Y-45197952D02*
X142093045Y-45721761D01*
X142093045Y-45721761D02*
X142140664Y-45817000D01*
X142140664Y-45817000D02*
X142235902Y-45864619D01*
X142235902Y-45864619D02*
X142378759Y-45864619D01*
X142378759Y-45864619D02*
X142473997Y-45817000D01*
X142473997Y-45817000D02*
X142521616Y-45769380D01*
X142997807Y-45864619D02*
X142997807Y-44864619D01*
X142997807Y-45245571D02*
X143093045Y-45197952D01*
X143093045Y-45197952D02*
X143283521Y-45197952D01*
X143283521Y-45197952D02*
X143378759Y-45245571D01*
X143378759Y-45245571D02*
X143426378Y-45293190D01*
X143426378Y-45293190D02*
X143473997Y-45388428D01*
X143473997Y-45388428D02*
X143473997Y-45674142D01*
X143473997Y-45674142D02*
X143426378Y-45769380D01*
X143426378Y-45769380D02*
X143378759Y-45817000D01*
X143378759Y-45817000D02*
X143283521Y-45864619D01*
X143283521Y-45864619D02*
X143093045Y-45864619D01*
X143093045Y-45864619D02*
X142997807Y-45817000D01*
X143902569Y-45769380D02*
X143950188Y-45817000D01*
X143950188Y-45817000D02*
X143902569Y-45864619D01*
X143902569Y-45864619D02*
X143854950Y-45817000D01*
X143854950Y-45817000D02*
X143902569Y-45769380D01*
X143902569Y-45769380D02*
X143902569Y-45864619D01*
X144807330Y-45817000D02*
X144712092Y-45864619D01*
X144712092Y-45864619D02*
X144521616Y-45864619D01*
X144521616Y-45864619D02*
X144426378Y-45817000D01*
X144426378Y-45817000D02*
X144378759Y-45769380D01*
X144378759Y-45769380D02*
X144331140Y-45674142D01*
X144331140Y-45674142D02*
X144331140Y-45388428D01*
X144331140Y-45388428D02*
X144378759Y-45293190D01*
X144378759Y-45293190D02*
X144426378Y-45245571D01*
X144426378Y-45245571D02*
X144521616Y-45197952D01*
X144521616Y-45197952D02*
X144712092Y-45197952D01*
X144712092Y-45197952D02*
X144807330Y-45245571D01*
X145378759Y-45864619D02*
X145283521Y-45817000D01*
X145283521Y-45817000D02*
X145235902Y-45769380D01*
X145235902Y-45769380D02*
X145188283Y-45674142D01*
X145188283Y-45674142D02*
X145188283Y-45388428D01*
X145188283Y-45388428D02*
X145235902Y-45293190D01*
X145235902Y-45293190D02*
X145283521Y-45245571D01*
X145283521Y-45245571D02*
X145378759Y-45197952D01*
X145378759Y-45197952D02*
X145521616Y-45197952D01*
X145521616Y-45197952D02*
X145616854Y-45245571D01*
X145616854Y-45245571D02*
X145664473Y-45293190D01*
X145664473Y-45293190D02*
X145712092Y-45388428D01*
X145712092Y-45388428D02*
X145712092Y-45674142D01*
X145712092Y-45674142D02*
X145664473Y-45769380D01*
X145664473Y-45769380D02*
X145616854Y-45817000D01*
X145616854Y-45817000D02*
X145521616Y-45864619D01*
X145521616Y-45864619D02*
X145378759Y-45864619D01*
X146140664Y-45864619D02*
X146140664Y-45197952D01*
X146140664Y-45293190D02*
X146188283Y-45245571D01*
X146188283Y-45245571D02*
X146283521Y-45197952D01*
X146283521Y-45197952D02*
X146426378Y-45197952D01*
X146426378Y-45197952D02*
X146521616Y-45245571D01*
X146521616Y-45245571D02*
X146569235Y-45340809D01*
X146569235Y-45340809D02*
X146569235Y-45864619D01*
X146569235Y-45340809D02*
X146616854Y-45245571D01*
X146616854Y-45245571D02*
X146712092Y-45197952D01*
X146712092Y-45197952D02*
X146854949Y-45197952D01*
X146854949Y-45197952D02*
X146950188Y-45245571D01*
X146950188Y-45245571D02*
X146997807Y-45340809D01*
X146997807Y-45340809D02*
X146997807Y-45864619D01*
X148188282Y-44817000D02*
X147331140Y-46102714D01*
X149093044Y-45769380D02*
X149045425Y-45817000D01*
X149045425Y-45817000D02*
X148902568Y-45864619D01*
X148902568Y-45864619D02*
X148807330Y-45864619D01*
X148807330Y-45864619D02*
X148664473Y-45817000D01*
X148664473Y-45817000D02*
X148569235Y-45721761D01*
X148569235Y-45721761D02*
X148521616Y-45626523D01*
X148521616Y-45626523D02*
X148473997Y-45436047D01*
X148473997Y-45436047D02*
X148473997Y-45293190D01*
X148473997Y-45293190D02*
X148521616Y-45102714D01*
X148521616Y-45102714D02*
X148569235Y-45007476D01*
X148569235Y-45007476D02*
X148664473Y-44912238D01*
X148664473Y-44912238D02*
X148807330Y-44864619D01*
X148807330Y-44864619D02*
X148902568Y-44864619D01*
X148902568Y-44864619D02*
X149045425Y-44912238D01*
X149045425Y-44912238D02*
X149093044Y-44959857D01*
X149712092Y-44864619D02*
X149807330Y-44864619D01*
X149807330Y-44864619D02*
X149902568Y-44912238D01*
X149902568Y-44912238D02*
X149950187Y-44959857D01*
X149950187Y-44959857D02*
X149997806Y-45055095D01*
X149997806Y-45055095D02*
X150045425Y-45245571D01*
X150045425Y-45245571D02*
X150045425Y-45483666D01*
X150045425Y-45483666D02*
X149997806Y-45674142D01*
X149997806Y-45674142D02*
X149950187Y-45769380D01*
X149950187Y-45769380D02*
X149902568Y-45817000D01*
X149902568Y-45817000D02*
X149807330Y-45864619D01*
X149807330Y-45864619D02*
X149712092Y-45864619D01*
X149712092Y-45864619D02*
X149616854Y-45817000D01*
X149616854Y-45817000D02*
X149569235Y-45769380D01*
X149569235Y-45769380D02*
X149521616Y-45674142D01*
X149521616Y-45674142D02*
X149473997Y-45483666D01*
X149473997Y-45483666D02*
X149473997Y-45245571D01*
X149473997Y-45245571D02*
X149521616Y-45055095D01*
X149521616Y-45055095D02*
X149569235Y-44959857D01*
X149569235Y-44959857D02*
X149616854Y-44912238D01*
X149616854Y-44912238D02*
X149712092Y-44864619D01*
X150473997Y-45864619D02*
X150473997Y-45197952D01*
X150473997Y-45293190D02*
X150521616Y-45245571D01*
X150521616Y-45245571D02*
X150616854Y-45197952D01*
X150616854Y-45197952D02*
X150759711Y-45197952D01*
X150759711Y-45197952D02*
X150854949Y-45245571D01*
X150854949Y-45245571D02*
X150902568Y-45340809D01*
X150902568Y-45340809D02*
X150902568Y-45864619D01*
X150902568Y-45340809D02*
X150950187Y-45245571D01*
X150950187Y-45245571D02*
X151045425Y-45197952D01*
X151045425Y-45197952D02*
X151188282Y-45197952D01*
X151188282Y-45197952D02*
X151283521Y-45245571D01*
X151283521Y-45245571D02*
X151331140Y-45340809D01*
X151331140Y-45340809D02*
X151331140Y-45864619D01*
X151712092Y-44864619D02*
X152331139Y-44864619D01*
X152331139Y-44864619D02*
X151997806Y-45245571D01*
X151997806Y-45245571D02*
X152140663Y-45245571D01*
X152140663Y-45245571D02*
X152235901Y-45293190D01*
X152235901Y-45293190D02*
X152283520Y-45340809D01*
X152283520Y-45340809D02*
X152331139Y-45436047D01*
X152331139Y-45436047D02*
X152331139Y-45674142D01*
X152331139Y-45674142D02*
X152283520Y-45769380D01*
X152283520Y-45769380D02*
X152235901Y-45817000D01*
X152235901Y-45817000D02*
X152140663Y-45864619D01*
X152140663Y-45864619D02*
X151854949Y-45864619D01*
X151854949Y-45864619D02*
X151759711Y-45817000D01*
X151759711Y-45817000D02*
X151712092Y-45769380D01*
X152759711Y-45864619D02*
X152759711Y-44864619D01*
X152759711Y-45245571D02*
X152854949Y-45197952D01*
X152854949Y-45197952D02*
X153045425Y-45197952D01*
X153045425Y-45197952D02*
X153140663Y-45245571D01*
X153140663Y-45245571D02*
X153188282Y-45293190D01*
X153188282Y-45293190D02*
X153235901Y-45388428D01*
X153235901Y-45388428D02*
X153235901Y-45674142D01*
X153235901Y-45674142D02*
X153188282Y-45769380D01*
X153188282Y-45769380D02*
X153140663Y-45817000D01*
X153140663Y-45817000D02*
X153045425Y-45864619D01*
X153045425Y-45864619D02*
X152854949Y-45864619D01*
X152854949Y-45864619D02*
X152759711Y-45817000D01*
X154093044Y-45197952D02*
X154093044Y-45864619D01*
X153854949Y-44817000D02*
X153616854Y-45531285D01*
X153616854Y-45531285D02*
X154235901Y-45531285D01*
X155045425Y-45817000D02*
X154950187Y-45864619D01*
X154950187Y-45864619D02*
X154759711Y-45864619D01*
X154759711Y-45864619D02*
X154664473Y-45817000D01*
X154664473Y-45817000D02*
X154616854Y-45769380D01*
X154616854Y-45769380D02*
X154569235Y-45674142D01*
X154569235Y-45674142D02*
X154569235Y-45388428D01*
X154569235Y-45388428D02*
X154616854Y-45293190D01*
X154616854Y-45293190D02*
X154664473Y-45245571D01*
X154664473Y-45245571D02*
X154759711Y-45197952D01*
X154759711Y-45197952D02*
X154950187Y-45197952D01*
X154950187Y-45197952D02*
X155045425Y-45245571D01*
X155473997Y-45864619D02*
X155473997Y-44864619D01*
X155569235Y-45483666D02*
X155854949Y-45864619D01*
X155854949Y-45197952D02*
X155473997Y-45578904D01*
X156997806Y-44817000D02*
X156140664Y-46102714D01*
D10*
D11*
X132902568Y-48364619D02*
X132902568Y-47364619D01*
X133331139Y-48364619D02*
X133331139Y-47840809D01*
X133331139Y-47840809D02*
X133283520Y-47745571D01*
X133283520Y-47745571D02*
X133188282Y-47697952D01*
X133188282Y-47697952D02*
X133045425Y-47697952D01*
X133045425Y-47697952D02*
X132950187Y-47745571D01*
X132950187Y-47745571D02*
X132902568Y-47793190D01*
X133664473Y-47697952D02*
X134045425Y-47697952D01*
X133807330Y-47364619D02*
X133807330Y-48221761D01*
X133807330Y-48221761D02*
X133854949Y-48317000D01*
X133854949Y-48317000D02*
X133950187Y-48364619D01*
X133950187Y-48364619D02*
X134045425Y-48364619D01*
X134235902Y-47697952D02*
X134616854Y-47697952D01*
X134378759Y-47364619D02*
X134378759Y-48221761D01*
X134378759Y-48221761D02*
X134426378Y-48317000D01*
X134426378Y-48317000D02*
X134521616Y-48364619D01*
X134521616Y-48364619D02*
X134616854Y-48364619D01*
X134950188Y-47697952D02*
X134950188Y-48697952D01*
X134950188Y-47745571D02*
X135045426Y-47697952D01*
X135045426Y-47697952D02*
X135235902Y-47697952D01*
X135235902Y-47697952D02*
X135331140Y-47745571D01*
X135331140Y-47745571D02*
X135378759Y-47793190D01*
X135378759Y-47793190D02*
X135426378Y-47888428D01*
X135426378Y-47888428D02*
X135426378Y-48174142D01*
X135426378Y-48174142D02*
X135378759Y-48269380D01*
X135378759Y-48269380D02*
X135331140Y-48317000D01*
X135331140Y-48317000D02*
X135235902Y-48364619D01*
X135235902Y-48364619D02*
X135045426Y-48364619D01*
X135045426Y-48364619D02*
X134950188Y-48317000D01*
X135807331Y-48317000D02*
X135902569Y-48364619D01*
X135902569Y-48364619D02*
X136093045Y-48364619D01*
X136093045Y-48364619D02*
X136188283Y-48317000D01*
X136188283Y-48317000D02*
X136235902Y-48221761D01*
X136235902Y-48221761D02*
X136235902Y-48174142D01*
X136235902Y-48174142D02*
X136188283Y-48078904D01*
X136188283Y-48078904D02*
X136093045Y-48031285D01*
X136093045Y-48031285D02*
X135950188Y-48031285D01*
X135950188Y-48031285D02*
X135854950Y-47983666D01*
X135854950Y-47983666D02*
X135807331Y-47888428D01*
X135807331Y-47888428D02*
X135807331Y-47840809D01*
X135807331Y-47840809D02*
X135854950Y-47745571D01*
X135854950Y-47745571D02*
X135950188Y-47697952D01*
X135950188Y-47697952D02*
X136093045Y-47697952D01*
X136093045Y-47697952D02*
X136188283Y-47745571D01*
X136664474Y-48269380D02*
X136712093Y-48317000D01*
X136712093Y-48317000D02*
X136664474Y-48364619D01*
X136664474Y-48364619D02*
X136616855Y-48317000D01*
X136616855Y-48317000D02*
X136664474Y-48269380D01*
X136664474Y-48269380D02*
X136664474Y-48364619D01*
X136664474Y-47745571D02*
X136712093Y-47793190D01*
X136712093Y-47793190D02*
X136664474Y-47840809D01*
X136664474Y-47840809D02*
X136616855Y-47793190D01*
X136616855Y-47793190D02*
X136664474Y-47745571D01*
X136664474Y-47745571D02*
X136664474Y-47840809D01*
X137854949Y-47317000D02*
X136997807Y-48602714D01*
X138902568Y-47317000D02*
X138045426Y-48602714D01*
X139140664Y-47697952D02*
X139378759Y-48364619D01*
X139616854Y-47697952D02*
X139378759Y-48364619D01*
X139378759Y-48364619D02*
X139283521Y-48602714D01*
X139283521Y-48602714D02*
X139235902Y-48650333D01*
X139235902Y-48650333D02*
X139140664Y-48697952D01*
X140140664Y-48364619D02*
X140045426Y-48317000D01*
X140045426Y-48317000D02*
X139997807Y-48269380D01*
X139997807Y-48269380D02*
X139950188Y-48174142D01*
X139950188Y-48174142D02*
X139950188Y-47888428D01*
X139950188Y-47888428D02*
X139997807Y-47793190D01*
X139997807Y-47793190D02*
X140045426Y-47745571D01*
X140045426Y-47745571D02*
X140140664Y-47697952D01*
X140140664Y-47697952D02*
X140283521Y-47697952D01*
X140283521Y-47697952D02*
X140378759Y-47745571D01*
X140378759Y-47745571D02*
X140426378Y-47793190D01*
X140426378Y-47793190D02*
X140473997Y-47888428D01*
X140473997Y-47888428D02*
X140473997Y-48174142D01*
X140473997Y-48174142D02*
X140426378Y-48269380D01*
X140426378Y-48269380D02*
X140378759Y-48317000D01*
X140378759Y-48317000D02*
X140283521Y-48364619D01*
X140283521Y-48364619D02*
X140140664Y-48364619D01*
X141331140Y-47697952D02*
X141331140Y-48364619D01*
X140902569Y-47697952D02*
X140902569Y-48221761D01*
X140902569Y-48221761D02*
X140950188Y-48317000D01*
X140950188Y-48317000D02*
X141045426Y-48364619D01*
X141045426Y-48364619D02*
X141188283Y-48364619D01*
X141188283Y-48364619D02*
X141283521Y-48317000D01*
X141283521Y-48317000D02*
X141331140Y-48269380D01*
X141664474Y-47697952D02*
X142045426Y-47697952D01*
X141807331Y-47364619D02*
X141807331Y-48221761D01*
X141807331Y-48221761D02*
X141854950Y-48317000D01*
X141854950Y-48317000D02*
X141950188Y-48364619D01*
X141950188Y-48364619D02*
X142045426Y-48364619D01*
X142807331Y-47697952D02*
X142807331Y-48364619D01*
X142378760Y-47697952D02*
X142378760Y-48221761D01*
X142378760Y-48221761D02*
X142426379Y-48317000D01*
X142426379Y-48317000D02*
X142521617Y-48364619D01*
X142521617Y-48364619D02*
X142664474Y-48364619D01*
X142664474Y-48364619D02*
X142759712Y-48317000D01*
X142759712Y-48317000D02*
X142807331Y-48269380D01*
X143283522Y-48364619D02*
X143283522Y-47364619D01*
X143283522Y-47745571D02*
X143378760Y-47697952D01*
X143378760Y-47697952D02*
X143569236Y-47697952D01*
X143569236Y-47697952D02*
X143664474Y-47745571D01*
X143664474Y-47745571D02*
X143712093Y-47793190D01*
X143712093Y-47793190D02*
X143759712Y-47888428D01*
X143759712Y-47888428D02*
X143759712Y-48174142D01*
X143759712Y-48174142D02*
X143712093Y-48269380D01*
X143712093Y-48269380D02*
X143664474Y-48317000D01*
X143664474Y-48317000D02*
X143569236Y-48364619D01*
X143569236Y-48364619D02*
X143378760Y-48364619D01*
X143378760Y-48364619D02*
X143283522Y-48317000D01*
X144569236Y-48317000D02*
X144473998Y-48364619D01*
X144473998Y-48364619D02*
X144283522Y-48364619D01*
X144283522Y-48364619D02*
X144188284Y-48317000D01*
X144188284Y-48317000D02*
X144140665Y-48221761D01*
X144140665Y-48221761D02*
X144140665Y-47840809D01*
X144140665Y-47840809D02*
X144188284Y-47745571D01*
X144188284Y-47745571D02*
X144283522Y-47697952D01*
X144283522Y-47697952D02*
X144473998Y-47697952D01*
X144473998Y-47697952D02*
X144569236Y-47745571D01*
X144569236Y-47745571D02*
X144616855Y-47840809D01*
X144616855Y-47840809D02*
X144616855Y-47936047D01*
X144616855Y-47936047D02*
X144140665Y-48031285D01*
X145045427Y-48269380D02*
X145093046Y-48317000D01*
X145093046Y-48317000D02*
X145045427Y-48364619D01*
X145045427Y-48364619D02*
X144997808Y-48317000D01*
X144997808Y-48317000D02*
X145045427Y-48269380D01*
X145045427Y-48269380D02*
X145045427Y-48364619D01*
X145950188Y-48317000D02*
X145854950Y-48364619D01*
X145854950Y-48364619D02*
X145664474Y-48364619D01*
X145664474Y-48364619D02*
X145569236Y-48317000D01*
X145569236Y-48317000D02*
X145521617Y-48269380D01*
X145521617Y-48269380D02*
X145473998Y-48174142D01*
X145473998Y-48174142D02*
X145473998Y-47888428D01*
X145473998Y-47888428D02*
X145521617Y-47793190D01*
X145521617Y-47793190D02*
X145569236Y-47745571D01*
X145569236Y-47745571D02*
X145664474Y-47697952D01*
X145664474Y-47697952D02*
X145854950Y-47697952D01*
X145854950Y-47697952D02*
X145950188Y-47745571D01*
X146521617Y-48364619D02*
X146426379Y-48317000D01*
X146426379Y-48317000D02*
X146378760Y-48269380D01*
X146378760Y-48269380D02*
X146331141Y-48174142D01*
X146331141Y-48174142D02*
X146331141Y-47888428D01*
X146331141Y-47888428D02*
X146378760Y-47793190D01*
X146378760Y-47793190D02*
X146426379Y-47745571D01*
X146426379Y-47745571D02*
X146521617Y-47697952D01*
X146521617Y-47697952D02*
X146664474Y-47697952D01*
X146664474Y-47697952D02*
X146759712Y-47745571D01*
X146759712Y-47745571D02*
X146807331Y-47793190D01*
X146807331Y-47793190D02*
X146854950Y-47888428D01*
X146854950Y-47888428D02*
X146854950Y-48174142D01*
X146854950Y-48174142D02*
X146807331Y-48269380D01*
X146807331Y-48269380D02*
X146759712Y-48317000D01*
X146759712Y-48317000D02*
X146664474Y-48364619D01*
X146664474Y-48364619D02*
X146521617Y-48364619D01*
X147283522Y-48364619D02*
X147283522Y-47697952D01*
X147283522Y-47793190D02*
X147331141Y-47745571D01*
X147331141Y-47745571D02*
X147426379Y-47697952D01*
X147426379Y-47697952D02*
X147569236Y-47697952D01*
X147569236Y-47697952D02*
X147664474Y-47745571D01*
X147664474Y-47745571D02*
X147712093Y-47840809D01*
X147712093Y-47840809D02*
X147712093Y-48364619D01*
X147712093Y-47840809D02*
X147759712Y-47745571D01*
X147759712Y-47745571D02*
X147854950Y-47697952D01*
X147854950Y-47697952D02*
X147997807Y-47697952D01*
X147997807Y-47697952D02*
X148093046Y-47745571D01*
X148093046Y-47745571D02*
X148140665Y-47840809D01*
X148140665Y-47840809D02*
X148140665Y-48364619D01*
X149331140Y-47317000D02*
X148473998Y-48602714D01*
X150283521Y-47888428D02*
X150235902Y-47840809D01*
X150235902Y-47840809D02*
X150140664Y-47793190D01*
X150140664Y-47793190D02*
X150045426Y-47793190D01*
X150045426Y-47793190D02*
X149950188Y-47840809D01*
X149950188Y-47840809D02*
X149902569Y-47888428D01*
X149902569Y-47888428D02*
X149854950Y-47983666D01*
X149854950Y-47983666D02*
X149854950Y-48078904D01*
X149854950Y-48078904D02*
X149902569Y-48174142D01*
X149902569Y-48174142D02*
X149950188Y-48221761D01*
X149950188Y-48221761D02*
X150045426Y-48269380D01*
X150045426Y-48269380D02*
X150140664Y-48269380D01*
X150140664Y-48269380D02*
X150235902Y-48221761D01*
X150235902Y-48221761D02*
X150283521Y-48174142D01*
X150283521Y-47793190D02*
X150283521Y-48174142D01*
X150283521Y-48174142D02*
X150331140Y-48221761D01*
X150331140Y-48221761D02*
X150378759Y-48221761D01*
X150378759Y-48221761D02*
X150473998Y-48174142D01*
X150473998Y-48174142D02*
X150521617Y-48078904D01*
X150521617Y-48078904D02*
X150521617Y-47840809D01*
X150521617Y-47840809D02*
X150426379Y-47697952D01*
X150426379Y-47697952D02*
X150283521Y-47602714D01*
X150283521Y-47602714D02*
X150093045Y-47555095D01*
X150093045Y-47555095D02*
X149902569Y-47602714D01*
X149902569Y-47602714D02*
X149759712Y-47697952D01*
X149759712Y-47697952D02*
X149664474Y-47840809D01*
X149664474Y-47840809D02*
X149616855Y-48031285D01*
X149616855Y-48031285D02*
X149664474Y-48221761D01*
X149664474Y-48221761D02*
X149759712Y-48364619D01*
X149759712Y-48364619D02*
X149902569Y-48459857D01*
X149902569Y-48459857D02*
X150093045Y-48507476D01*
X150093045Y-48507476D02*
X150283521Y-48459857D01*
X150283521Y-48459857D02*
X150426379Y-48364619D01*
X150950188Y-48364619D02*
X150950188Y-47364619D01*
X150950188Y-47364619D02*
X151331140Y-47364619D01*
X151331140Y-47364619D02*
X151426378Y-47412238D01*
X151426378Y-47412238D02*
X151473997Y-47459857D01*
X151473997Y-47459857D02*
X151521616Y-47555095D01*
X151521616Y-47555095D02*
X151521616Y-47697952D01*
X151521616Y-47697952D02*
X151473997Y-47793190D01*
X151473997Y-47793190D02*
X151426378Y-47840809D01*
X151426378Y-47840809D02*
X151331140Y-47888428D01*
X151331140Y-47888428D02*
X150950188Y-47888428D01*
X151950188Y-48364619D02*
X151950188Y-47697952D01*
X151950188Y-47888428D02*
X151997807Y-47793190D01*
X151997807Y-47793190D02*
X152045426Y-47745571D01*
X152045426Y-47745571D02*
X152140664Y-47697952D01*
X152140664Y-47697952D02*
X152235902Y-47697952D01*
X152569236Y-48364619D02*
X152569236Y-47697952D01*
X152569236Y-47364619D02*
X152521617Y-47412238D01*
X152521617Y-47412238D02*
X152569236Y-47459857D01*
X152569236Y-47459857D02*
X152616855Y-47412238D01*
X152616855Y-47412238D02*
X152569236Y-47364619D01*
X152569236Y-47364619D02*
X152569236Y-47459857D01*
X153045426Y-47697952D02*
X153045426Y-48364619D01*
X153045426Y-47793190D02*
X153093045Y-47745571D01*
X153093045Y-47745571D02*
X153188283Y-47697952D01*
X153188283Y-47697952D02*
X153331140Y-47697952D01*
X153331140Y-47697952D02*
X153426378Y-47745571D01*
X153426378Y-47745571D02*
X153473997Y-47840809D01*
X153473997Y-47840809D02*
X153473997Y-48364619D01*
X153807331Y-47697952D02*
X154188283Y-47697952D01*
X153950188Y-47364619D02*
X153950188Y-48221761D01*
X153950188Y-48221761D02*
X153997807Y-48317000D01*
X153997807Y-48317000D02*
X154093045Y-48364619D01*
X154093045Y-48364619D02*
X154188283Y-48364619D01*
X154902569Y-48317000D02*
X154807331Y-48364619D01*
X154807331Y-48364619D02*
X154616855Y-48364619D01*
X154616855Y-48364619D02*
X154521617Y-48317000D01*
X154521617Y-48317000D02*
X154473998Y-48221761D01*
X154473998Y-48221761D02*
X154473998Y-47840809D01*
X154473998Y-47840809D02*
X154521617Y-47745571D01*
X154521617Y-47745571D02*
X154616855Y-47697952D01*
X154616855Y-47697952D02*
X154807331Y-47697952D01*
X154807331Y-47697952D02*
X154902569Y-47745571D01*
X154902569Y-47745571D02*
X154950188Y-47840809D01*
X154950188Y-47840809D02*
X154950188Y-47936047D01*
X154950188Y-47936047D02*
X154473998Y-48031285D01*
X155378760Y-48364619D02*
X155378760Y-47697952D01*
X155378760Y-47888428D02*
X155426379Y-47793190D01*
X155426379Y-47793190D02*
X155473998Y-47745571D01*
X155473998Y-47745571D02*
X155569236Y-47697952D01*
X155569236Y-47697952D02*
X155664474Y-47697952D01*
X156331141Y-47840809D02*
X155997808Y-47840809D01*
X155997808Y-48364619D02*
X155997808Y-47364619D01*
X155997808Y-47364619D02*
X156473998Y-47364619D01*
X156854951Y-48364619D02*
X156854951Y-47697952D01*
X156854951Y-47364619D02*
X156807332Y-47412238D01*
X156807332Y-47412238D02*
X156854951Y-47459857D01*
X156854951Y-47459857D02*
X156902570Y-47412238D01*
X156902570Y-47412238D02*
X156854951Y-47364619D01*
X156854951Y-47364619D02*
X156854951Y-47459857D01*
X157235903Y-48364619D02*
X157759712Y-47697952D01*
X157235903Y-47697952D02*
X157759712Y-48364619D01*
X158521617Y-48317000D02*
X158426379Y-48364619D01*
X158426379Y-48364619D02*
X158235903Y-48364619D01*
X158235903Y-48364619D02*
X158140665Y-48317000D01*
X158140665Y-48317000D02*
X158093046Y-48221761D01*
X158093046Y-48221761D02*
X158093046Y-47840809D01*
X158093046Y-47840809D02*
X158140665Y-47745571D01*
X158140665Y-47745571D02*
X158235903Y-47697952D01*
X158235903Y-47697952D02*
X158426379Y-47697952D01*
X158426379Y-47697952D02*
X158521617Y-47745571D01*
X158521617Y-47745571D02*
X158569236Y-47840809D01*
X158569236Y-47840809D02*
X158569236Y-47936047D01*
X158569236Y-47936047D02*
X158093046Y-48031285D01*
X158997808Y-48364619D02*
X158997808Y-47697952D01*
X158997808Y-47888428D02*
X159045427Y-47793190D01*
X159045427Y-47793190D02*
X159093046Y-47745571D01*
X159093046Y-47745571D02*
X159188284Y-47697952D01*
X159188284Y-47697952D02*
X159283522Y-47697952D01*
D12*
%TO.P,SWL,1,C_1*%
%TO.N,Net-(C1-GND)*%
X133500000Y-28500000D03*
%TO.P,SWL,2,NO_2*%
%TO.N,Net-(SWL1-NO)*%
X138500000Y-28500000D03*
%TO.P,SWL,3,NC_3*%
%TO.N,unconnected-(SWL1-NC-Pad3)*%
X143500000Y-28500000D03*
%TD*%
D13*
%TO.P,D2,1,A_1*%
%TO.N,Net-(C1-GND)*%
X164106622Y-44235000D03*
D14*
%TO.P,D2,2,K_2*%
%TO.N,Net-(C1-VCC)*%
X165902674Y-46031051D03*
%TD*%
D15*
%TO.P,LED1,1,K_1*%
%TO.N,Net-(D1-K)*%
X152270000Y-85835000D03*
D14*
%TO.P,LED1,2,A_2*%
%TO.N,Net-(C1-VCC)*%
X149730000Y-85835000D03*
%TD*%
D16*
%TO.P,R2,1*%
%TO.N,Net-(C1-GND)*%
X164500000Y-62990000D03*
%TO.P,R2,2*%
X164500000Y-57910000D03*
%TD*%
D17*
%TO.P,ENC1,1,A_1*%
%TO.N,Net-(ENC1-C)*%
X141500000Y-38500000D03*
%TO.P,ENC1,2,B_2*%
%TO.N,Net-(ENC1-B)*%
X141500000Y-36000000D03*
%TO.P,ENC1,3,C_3*%
%TO.N,Net-(C1-GND)*%
X141500000Y-33500000D03*
D18*
%TO.P,ENC1,4,THT1_4*%
%TO.N,unconnected-(ENC1-THT1-Pad4)*%
X139399180Y-41067499D03*
D19*
%TO.P,ENC1,5,THT2_5*%
%TO.N,unconnected-(ENC1-THT2-Pad5)*%
X139424518Y-31000000D03*
%TD*%
D20*
%TO.P,USB1,1,C_1*%
%TO.N,Net-(U1-DP)*%
X134387500Y-54112500D03*
%TO.P,USB1,2,D_2*%
%TO.N,Net-(U1-DM)*%
X134387500Y-56112500D03*
%TO.P,USB1,3,GND_3*%
%TO.N,Net-(C1-VCC)*%
X134387500Y-61112500D03*
%TO.P,USB1,4,VCC_4*%
%TO.N,Net-(C1-GND)*%
X134387500Y-59112500D03*
%TD*%
%TO.P,U1,1,SK2_1*%
%TO.N,Net-(ENC1-C)*%
X144000000Y-60000000D03*
%TO.P,U1,2,SK0_2*%
%TO.N,Net-(SWL1-NO)*%
X144000000Y-62000000D03*
%TO.P,U1,3,DP_3*%
%TO.N,Net-(U1-DP)*%
X144000000Y-64000000D03*
%TO.P,U1,4,DM_4*%
%TO.N,Net-(U1-DM)*%
X144000000Y-66000000D03*
%TO.P,U1,5,LED_5*%
%TO.N,Net-(SWR1-NO)*%
X158000000Y-65000000D03*
%TO.P,U1,6,GND_6*%
%TO.N,Net-(C1-VCC)*%
X158000000Y-61000000D03*
%TO.P,U1,7,VDD_7*%
%TO.N,Net-(C1-GND)*%
X158000000Y-63000000D03*
%TO.P,U1,8,SK1_8*%
%TO.N,Net-(ENC1-B)*%
X158000000Y-59000000D03*
%TD*%
D12*
%TO.P,SWR,1,C_1*%
%TO.N,Net-(ENC1-B)*%
X158000000Y-28862500D03*
%TO.P,SWR,2,NO_2*%
%TO.N,Net-(SWR1-NO)*%
X163000000Y-28862500D03*
%TO.P,SWR,3,NC_3*%
%TO.N,unconnected-(SWR1-NC-Pad3)*%
X168000000Y-28862500D03*
%TD*%
%TO.P,C1,1,GND_1*%
%TO.N,Net-(C1-GND)*%
X162000000Y-63500000D03*
%TO.P,C1,2,VCC_2*%
%TO.N,Net-(C1-VCC)*%
X162000000Y-61500000D03*
%TD*%
D16*
%TO.P,R1,1*%
%TO.N,Net-(SWR1-NO)*%
X162000000Y-75460000D03*
%TO.P,R1,2*%
%TO.N,Net-(D1-K)*%
X162000000Y-80540000D03*
%TD*%
D21*
%TO.P,SWM1,1,1_1*%
%TO.N,Net-(SWL1-NO)*%
X162500000Y-33000000D03*
%TO.P,SWM1,2,2_2*%
%TO.N,Net-(SWR1-NO)*%
X162500000Y-37500000D03*
%TD*%
D17*
%TO.P,C3,1,GND_1*%
%TO.N,Net-(C1-GND)*%
X139000000Y-68500000D03*
%TO.P,C3,2,VCC_2*%
%TO.N,Net-(C1-VCC)*%
X137000000Y-68500000D03*
%TD*%
D12*
%TO.P,C2,1,GND_1*%
%TO.N,Net-(C1-GND)*%
X167000000Y-63500000D03*
%TO.P,C2,2,VCC_2*%
%TO.N,Net-(C1-VCC)*%
X167000000Y-61500000D03*
%TD*%
%TO.N,Net-(C1-GND)*%
D22*
X164500000Y-57910000D02*
X164500000Y-58000000D01*
%TO.N,Net-(C1-VCC)*%
X134387500Y-61112500D02*
X134500000Y-61000000D01*
%TO.N,Net-(D1-K)*%
X152270000Y-85835000D02*
X152335000Y-85835000D01*
X152335000Y-85835000D02*
X152500000Y-86000000D01*
%TD*%
M02*
