%TF.GenerationSoftware,KiCad,Pcbnew,10.0.4*%
%TF.CreationDate,2026-07-08T15:52:21+02:00*%
%TF.ProjectId,mouse1-1,6d6f7573-6531-42d3-912e-6b696361645f,07/07/2026*%
%TF.SameCoordinates,Original*%
%TF.FileFunction,Copper,L2,Bot*%
%TF.FilePolarity,Positive*%
%FSLAX46Y46*%
G04 Gerber Fmt 4.6, Leading zero omitted, Abs format (unit mm)*
G04 Created by KiCad (PCBNEW 10.0.4) date 2026-07-08 15:52:21*
%MOMM*%
%LPD*%
G01*
G04 APERTURE LIST*
G04 Aperture macros list*
%AMRoundRect*
0 Rectangle with rounded corners*
0 $1 Rounding radius*
0 $2 $3 $4 $5 $6 $7 $8 $9 X,Y pos of 4 corners*
0 Add a 4 corners polygon primitive as box body*
4,1,4,$2,$3,$4,$5,$6,$7,$8,$9,$2,$3,0*
0 Add four circle primitives for the rounded corners*
1,1,$1+$1,$2,$3*
1,1,$1+$1,$4,$5*
1,1,$1+$1,$6,$7*
1,1,$1+$1,$8,$9*
0 Add four rect primitives between the rounded corners*
20,1,$1+$1,$2,$3,$4,$5,0*
20,1,$1+$1,$4,$5,$6,$7,0*
20,1,$1+$1,$6,$7,$8,$9,0*
20,1,$1+$1,$8,$9,$2,$3,0*%
%AMRotRect*
0 Rectangle, with rotation*
0 The origin of the aperture is its center*
0 $1 length*
0 $2 width*
0 $3 Rotation angle, in degrees counterclockwise*
0 Add horizontal line*
21,1,$1,$2,0,0,$3*%
G04 Aperture macros list end*
%TA.AperFunction,ComponentPad*%
%ADD10R,2.201764X1.000000*%
%TD*%
%TA.AperFunction,ComponentPad*%
%ADD11R,2.252440X1.134998*%
%TD*%
%TA.AperFunction,ComponentPad*%
%ADD12RoundRect,0.190500X0.444500X-0.444500X0.444500X0.444500X-0.444500X0.444500X-0.444500X-0.444500X0*%
%TD*%
%TA.AperFunction,ComponentPad*%
%ADD13RoundRect,0.190500X-0.444500X-0.444500X0.444500X-0.444500X0.444500X0.444500X-0.444500X0.444500X0*%
%TD*%
%TA.AperFunction,ComponentPad*%
%ADD14RotRect,1.800000X1.800000X315.000000*%
%TD*%
%TA.AperFunction,ComponentPad*%
%ADD15C,1.800000*%
%TD*%
%TA.AperFunction,ComponentPad*%
%ADD16R,1.800000X1.800000*%
%TD*%
%TA.AperFunction,ComponentPad*%
%ADD17C,1.400000*%
%TD*%
%TA.AperFunction,ComponentPad*%
%ADD18C,1.308000*%
%TD*%
%TA.AperFunction,ComponentPad*%
%ADD19C,2.000000*%
%TD*%
%TA.AperFunction,Conductor*%
%ADD20C,0.200000*%
%TD*%
G04 APERTURE END LIST*
D10*
%TO.P,ENC1,5,THT2_5*%
%TO.N,unconnected-(ENC1-THT2-Pad5)*%
X139424518Y-31000000D03*
D11*
%TO.P,ENC1,4,THT1_4*%
%TO.N,unconnected-(ENC1-THT1-Pad4)*%
X139399180Y-41067499D03*
D12*
%TO.P,ENC1,3,C_3*%
%TO.N,Net-(C1-GND)*%
X141500000Y-33500000D03*
%TO.P,ENC1,2,B_2*%
%TO.N,Net-(ENC1-B)*%
X141500000Y-36000000D03*
%TO.P,ENC1,1,A_1*%
%TO.N,Net-(ENC1-C)*%
X141500000Y-38500000D03*
%TD*%
D13*
%TO.P,SWL,1,C_1*%
%TO.N,Net-(C1-GND)*%
X133500000Y-28500000D03*
%TO.P,SWL,2,NO_2*%
%TO.N,Net-(SWL1-NO)*%
X138500000Y-28500000D03*
%TO.P,SWL,3,NC_3*%
%TO.N,unconnected-(SWL1-NC-Pad3)*%
X143500000Y-28500000D03*
%TD*%
D14*
%TO.P,D2,1,A_1*%
%TO.N,Net-(C1-GND)*%
X164106622Y-44235000D03*
D15*
%TO.P,D2,2,K_2*%
%TO.N,Net-(C1-VCC)*%
X165902674Y-46031051D03*
%TD*%
D16*
%TO.P,LED1,1,K_1*%
%TO.N,Net-(D1-K)*%
X152270000Y-85835000D03*
D15*
%TO.P,LED1,2,A_2*%
%TO.N,Net-(C1-VCC)*%
X149730000Y-85835000D03*
%TD*%
D17*
%TO.P,R2,1*%
%TO.N,Net-(C1-GND)*%
X164500000Y-62990000D03*
%TO.P,R2,2*%
X164500000Y-57910000D03*
%TD*%
D18*
%TO.P,USB1,1,C_1*%
%TO.N,Net-(U1-DP)*%
X134387500Y-54112500D03*
%TO.P,USB1,2,D_2*%
%TO.N,Net-(U1-DM)*%
X134387500Y-56112500D03*
%TO.P,USB1,3,GND_3*%
%TO.N,Net-(C1-VCC)*%
X134387500Y-61112500D03*
%TO.P,USB1,4,VCC_4*%
%TO.N,Net-(C1-GND)*%
X134387500Y-59112500D03*
%TD*%
%TO.P,U1,1,SK2_1*%
%TO.N,Net-(ENC1-C)*%
X144000000Y-60000000D03*
%TO.P,U1,2,SK0_2*%
%TO.N,Net-(SWL1-NO)*%
X144000000Y-62000000D03*
%TO.P,U1,3,DP_3*%
%TO.N,Net-(U1-DP)*%
X144000000Y-64000000D03*
%TO.P,U1,4,DM_4*%
%TO.N,Net-(U1-DM)*%
X144000000Y-66000000D03*
%TO.P,U1,5,LED_5*%
%TO.N,Net-(SWR1-NO)*%
X158000000Y-65000000D03*
%TO.P,U1,6,GND_6*%
%TO.N,Net-(C1-VCC)*%
X158000000Y-61000000D03*
%TO.P,U1,7,VDD_7*%
%TO.N,Net-(C1-GND)*%
X158000000Y-63000000D03*
%TO.P,U1,8,SK1_8*%
%TO.N,Net-(ENC1-B)*%
X158000000Y-59000000D03*
%TD*%
D13*
%TO.P,SWR,1,C_1*%
%TO.N,Net-(ENC1-B)*%
X158000000Y-28862500D03*
%TO.P,SWR,2,NO_2*%
%TO.N,Net-(SWR1-NO)*%
X163000000Y-28862500D03*
%TO.P,SWR,3,NC_3*%
%TO.N,unconnected-(SWR1-NC-Pad3)*%
X168000000Y-28862500D03*
%TD*%
%TO.P,C1,1,GND_1*%
%TO.N,Net-(C1-GND)*%
X162000000Y-63500000D03*
%TO.P,C1,2,VCC_2*%
%TO.N,Net-(C1-VCC)*%
X162000000Y-61500000D03*
%TD*%
D17*
%TO.P,R1,1*%
%TO.N,Net-(SWR1-NO)*%
X162000000Y-75460000D03*
%TO.P,R1,2*%
%TO.N,Net-(D1-K)*%
X162000000Y-80540000D03*
%TD*%
D19*
%TO.P,SWM1,1,1_1*%
%TO.N,Net-(SWL1-NO)*%
X160750000Y-33250000D03*
%TO.P,SWM1,2,2_2*%
%TO.N,Net-(SWR1-NO)*%
X160750000Y-37750000D03*
%TD*%
D12*
%TO.P,C3,1,GND_1*%
%TO.N,Net-(C1-GND)*%
X139000000Y-68500000D03*
%TO.P,C3,2,VCC_2*%
%TO.N,Net-(C1-VCC)*%
X137000000Y-68500000D03*
%TD*%
D13*
%TO.P,C2,1,GND_1*%
%TO.N,Net-(C1-GND)*%
X167000000Y-63500000D03*
%TO.P,C2,2,VCC_2*%
%TO.N,Net-(C1-VCC)*%
X167000000Y-61500000D03*
%TD*%
%TO.N,Net-(C1-GND)*%
D20*
X134387500Y-59112500D02*
X132350000Y-57075000D01*
X139000000Y-76000000D02*
X146500000Y-83500000D01*
X167000000Y-72500000D02*
X167000000Y-63500000D01*
X133850000Y-41352082D02*
X133850000Y-32350000D01*
X166955000Y-55455000D02*
X166000000Y-54500000D01*
X166500000Y-63500000D02*
X165990000Y-62990000D01*
X164500000Y-62990000D02*
X164010000Y-62990000D01*
X165990000Y-62990000D02*
X164500000Y-62990000D01*
X158500000Y-63500000D02*
X158000000Y-63000000D01*
X133850000Y-32350000D02*
X133500000Y-32000000D01*
X166000000Y-54500000D02*
X165835000Y-54335000D01*
X133500000Y-32000000D02*
X133500000Y-28500000D01*
X163500000Y-63500000D02*
X162000000Y-63500000D01*
X132350000Y-42852082D02*
X133850000Y-41352082D01*
X154500000Y-83500000D02*
X156000000Y-83500000D01*
X134387500Y-59112500D02*
X139000000Y-63725000D01*
X167500000Y-53000000D02*
X167500000Y-43500000D01*
X156000000Y-83500000D02*
X167000000Y-72500000D01*
X162000000Y-63500000D02*
X158500000Y-63500000D01*
X146500000Y-83500000D02*
X154500000Y-83500000D01*
X139000000Y-63725000D02*
X139000000Y-76000000D01*
X167000000Y-63500000D02*
X166500000Y-63500000D01*
X141500000Y-33500000D02*
X137637500Y-33500000D01*
X133500000Y-29362500D02*
X137637500Y-33500000D01*
X166000000Y-54500000D02*
X167500000Y-53000000D01*
X132350000Y-57075000D02*
X132350000Y-42852082D01*
X133500000Y-28500000D02*
X133500000Y-29362500D01*
X164500000Y-57910000D02*
X166955000Y-55455000D01*
X164500000Y-57910000D02*
X164500000Y-58000000D01*
X167500000Y-43500000D02*
X166765000Y-44235000D01*
X164010000Y-62990000D02*
X163500000Y-63500000D01*
X166765000Y-44235000D02*
X164106622Y-44235000D01*
%TO.N,Net-(SWL1-NO)*%
X139435000Y-27565000D02*
X138500000Y-28500000D01*
X162500000Y-33000000D02*
X162500000Y-31585787D01*
X142435000Y-34152950D02*
X142152950Y-34435000D01*
X138585460Y-56585460D02*
X144000000Y-62000000D01*
X142152950Y-34435000D02*
X140847050Y-34435000D01*
X162500000Y-31585787D02*
X158479213Y-27565000D01*
X138585460Y-34585460D02*
X139082970Y-34087950D01*
X138000000Y-28862500D02*
X138935000Y-27927500D01*
X138000000Y-31776364D02*
X138788636Y-32565000D01*
X142435000Y-32847050D02*
X142435000Y-34152950D01*
X140847050Y-34435000D02*
X140500000Y-34087950D01*
X138585460Y-34585460D02*
X138585460Y-56585460D01*
X139082970Y-34087950D02*
X140500000Y-34087950D01*
X138000000Y-29000000D02*
X138500000Y-28500000D01*
X138000000Y-31776364D02*
X138000000Y-29000000D01*
X158479213Y-27565000D02*
X139435000Y-27565000D01*
%TO.N,Net-(C1-VCC)*%
X134500000Y-61225000D02*
X134500000Y-61500000D01*
X160000000Y-62500000D02*
X159500000Y-62000000D01*
X137000000Y-63725000D02*
X137000000Y-68500000D01*
X158000000Y-61000000D02*
X165902674Y-53097326D01*
X146835000Y-85835000D02*
X149730000Y-85835000D01*
X168500000Y-63000000D02*
X167000000Y-61500000D01*
X161005025Y-82000000D02*
X165500000Y-82000000D01*
X159000000Y-62000000D02*
X158000000Y-61000000D01*
X134387500Y-61112500D02*
X134500000Y-61225000D01*
X168500000Y-79000000D02*
X168500000Y-63000000D01*
X161500000Y-61000000D02*
X162000000Y-61500000D01*
X137000000Y-76000000D02*
X146835000Y-85835000D01*
X134387500Y-61112500D02*
X137000000Y-63725000D01*
X151395000Y-87500000D02*
X155505025Y-87500000D01*
X162000000Y-61500000D02*
X161000000Y-61500000D01*
X164910000Y-61500000D02*
X164500000Y-61090000D01*
X162410000Y-61090000D02*
X162000000Y-61500000D01*
X155505025Y-87500000D02*
X161005025Y-82000000D01*
X164500000Y-61090000D02*
X162410000Y-61090000D01*
X137000000Y-68500000D02*
X137000000Y-76000000D01*
X159500000Y-62000000D02*
X159000000Y-62000000D01*
X167000000Y-61500000D02*
X164910000Y-61500000D01*
X149730000Y-85835000D02*
X150930000Y-87035000D01*
X149730000Y-85835000D02*
X151395000Y-87500000D01*
X165902674Y-53097326D02*
X165902674Y-46031051D01*
X161000000Y-61500000D02*
X160000000Y-62500000D01*
X165500000Y-82000000D02*
X168500000Y-79000000D01*
%TO.N,Net-(D1-K)*%
X160460000Y-80540000D02*
X162000000Y-80540000D01*
X155165000Y-85835000D02*
X160460000Y-80540000D01*
X152270000Y-85835000D02*
X155165000Y-85835000D01*
%TO.N,Net-(ENC1-C)*%
X144000000Y-60000000D02*
X144000000Y-59500000D01*
%TO.N,Net-(ENC1-B)*%
X142835000Y-30170025D02*
X143505025Y-29500000D01*
X158000000Y-59000000D02*
X158000000Y-28862500D01*
X158000000Y-28862500D02*
X157637500Y-28862500D01*
X157362500Y-29500000D02*
X158000000Y-28862500D01*
X143505025Y-29500000D02*
X157362500Y-29500000D01*
%TO.N,Net-(U1-DP)*%
X144000000Y-64000000D02*
X134387500Y-54387500D01*
X134387500Y-54387500D02*
X134387500Y-54112500D01*
%TO.N,Net-(U1-DM)*%
X144000000Y-66000000D02*
X134387500Y-56387500D01*
X134387500Y-56387500D02*
X134387500Y-56112500D01*
%TO.N,Net-(SWR1-NO)*%
X158000000Y-65000000D02*
X162000000Y-69000000D01*
X162000000Y-69000000D02*
X162000000Y-75460000D01*
%TO.N,Net-(ENC1-C)*%
X141500000Y-57500000D02*
X144000000Y-60000000D01*
%TO.N,Net-(ENC1-B)*%
X142835000Y-34665000D02*
X142835000Y-30170025D01*
X141500000Y-36000000D02*
X142835000Y-34665000D01*
%TO.N,Net-(ENC1-C)*%
X141500000Y-38500000D02*
X141500000Y-57500000D01*
%TO.N,Net-(SWL1-NO)*%
X142152950Y-32565000D02*
X142435000Y-32847050D01*
X138788636Y-32565000D02*
X142152950Y-32565000D01*
%TD*%
M02*
