%TF.GenerationSoftware,KiCad,Pcbnew,10.0.4*%
%TF.CreationDate,2026-07-08T09:23:37+02:00*%
%TF.ProjectId,mouse1-1,6d6f7573-6531-42d3-912e-6b696361645f,07/07/2026*%
%TF.SameCoordinates,Original*%
%TF.FileFunction,Copper,L2,Bot*%
%TF.FilePolarity,Positive*%
%FSLAX46Y46*%
G04 Gerber Fmt 4.6, Leading zero omitted, Abs format (unit mm)*
G04 Created by KiCad (PCBNEW 10.0.4) date 2026-07-08 09:23:37*
%MOMM*%
%LPD*%
G01*
G04 APERTURE LIST*
G04 Aperture macros list*
%AMRoundRect*
0 Rectangle with rounded corners*
0 $1 Rounding radius*
0 $2 $3 $4 $5 $6 $7 $8 $9 X,Y pos of 4 corners*
0 Add a 4 corners polygon primitive as box body*
4,1,4,$2,$3,$4,$5,$6,$7,$8,$9,$2,$3,0*
0 Add four circle primitives for the rounded corners*
1,1,$1+$1,$2,$3*
1,1,$1+$1,$4,$5*
1,1,$1+$1,$6,$7*
1,1,$1+$1,$8,$9*
0 Add four rect primitives between the rounded corners*
20,1,$1+$1,$2,$3,$4,$5,0*
20,1,$1+$1,$4,$5,$6,$7,0*
20,1,$1+$1,$6,$7,$8,$9,0*
20,1,$1+$1,$8,$9,$2,$3,0*%
%AMRotRect*
0 Rectangle, with rotation*
0 The origin of the aperture is its center*
0 $1 length*
0 $2 width*
0 $3 Rotation angle, in degrees counterclockwise*
0 Add horizontal line*
21,1,$1,$2,0,0,$3*%
G04 Aperture macros list end*
%TA.AperFunction,ComponentPad*%
%ADD10RoundRect,0.190500X-0.444500X-0.444500X0.444500X-0.444500X0.444500X0.444500X-0.444500X0.444500X0*%
%TD*%
%TA.AperFunction,ComponentPad*%
%ADD11RotRect,1.800000X1.800000X315.000000*%
%TD*%
%TA.AperFunction,ComponentPad*%
%ADD12C,1.800000*%
%TD*%
%TA.AperFunction,ComponentPad*%
%ADD13R,1.800000X1.800000*%
%TD*%
%TA.AperFunction,ComponentPad*%
%ADD14C,1.400000*%
%TD*%
%TA.AperFunction,ComponentPad*%
%ADD15RoundRect,0.190500X0.444500X-0.444500X0.444500X0.444500X-0.444500X0.444500X-0.444500X-0.444500X0*%
%TD*%
%TA.AperFunction,ComponentPad*%
%ADD16R,2.252440X1.134998*%
%TD*%
%TA.AperFunction,ComponentPad*%
%ADD17R,2.201764X1.000000*%
%TD*%
%TA.AperFunction,ComponentPad*%
%ADD18C,1.308000*%
%TD*%
%TA.AperFunction,ComponentPad*%
%ADD19C,2.000000*%
%TD*%
%TA.AperFunction,Conductor*%
%ADD20C,0.200000*%
%TD*%
G04 APERTURE END LIST*
D10*
%TO.P,SWL,1,C_1*%
%TO.N,Net-(C1-GND)*%
X133500000Y-28500000D03*
%TO.P,SWL,2,NO_2*%
%TO.N,Net-(SWL1-NO)*%
X138500000Y-28500000D03*
%TO.P,SWL,3,NC_3*%
%TO.N,unconnected-(SWL1-NC-Pad3)*%
X143500000Y-28500000D03*
%TD*%
D11*
%TO.P,D2,1,A_1*%
%TO.N,Net-(C1-GND)*%
X164106622Y-44235000D03*
D12*
%TO.P,D2,2,K_2*%
%TO.N,Net-(C1-VCC)*%
X165902674Y-46031051D03*
%TD*%
D13*
%TO.P,LED1,1,K_1*%
%TO.N,Net-(D1-K)*%
X152270000Y-85835000D03*
D12*
%TO.P,LED1,2,A_2*%
%TO.N,Net-(C1-VCC)*%
X149730000Y-85835000D03*
%TD*%
D14*
%TO.P,R2,1*%
%TO.N,Net-(C1-GND)*%
X164500000Y-62990000D03*
%TO.P,R2,2*%
X164500000Y-57910000D03*
%TD*%
D15*
%TO.P,ENC1,1,A_1*%
%TO.N,Net-(ENC1-C)*%
X141500000Y-38500000D03*
%TO.P,ENC1,2,B_2*%
%TO.N,Net-(ENC1-B)*%
X141500000Y-36000000D03*
%TO.P,ENC1,3,C_3*%
%TO.N,Net-(C1-GND)*%
X141500000Y-33500000D03*
D16*
%TO.P,ENC1,4,THT1_4*%
%TO.N,unconnected-(ENC1-THT1-Pad4)*%
X139399180Y-41067499D03*
D17*
%TO.P,ENC1,5,THT2_5*%
%TO.N,unconnected-(ENC1-THT2-Pad5)*%
X139424518Y-31000000D03*
%TD*%
D18*
%TO.P,USB1,1,C_1*%
%TO.N,Net-(U1-DP)*%
X134387500Y-54112500D03*
%TO.P,USB1,2,D_2*%
%TO.N,Net-(U1-DM)*%
X134387500Y-56112500D03*
%TO.P,USB1,3,GND_3*%
%TO.N,Net-(C1-VCC)*%
X134387500Y-61112500D03*
%TO.P,USB1,4,VCC_4*%
%TO.N,Net-(C1-GND)*%
X134387500Y-59112500D03*
%TD*%
%TO.P,U1,1,SK2_1*%
%TO.N,Net-(ENC1-C)*%
X144000000Y-60000000D03*
%TO.P,U1,2,SK0_2*%
%TO.N,Net-(SWL1-NO)*%
X144000000Y-62000000D03*
%TO.P,U1,3,DP_3*%
%TO.N,Net-(U1-DP)*%
X144000000Y-64000000D03*
%TO.P,U1,4,DM_4*%
%TO.N,Net-(U1-DM)*%
X144000000Y-66000000D03*
%TO.P,U1,5,LED_5*%
%TO.N,Net-(SWR1-NO)*%
X158000000Y-65000000D03*
%TO.P,U1,6,GND_6*%
%TO.N,Net-(C1-VCC)*%
X158000000Y-61000000D03*
%TO.P,U1,7,VDD_7*%
%TO.N,Net-(C1-GND)*%
X158000000Y-63000000D03*
%TO.P,U1,8,SK1_8*%
%TO.N,Net-(ENC1-B)*%
X158000000Y-59000000D03*
%TD*%
D10*
%TO.P,SWR,1,C_1*%
%TO.N,Net-(ENC1-B)*%
X158000000Y-28862500D03*
%TO.P,SWR,2,NO_2*%
%TO.N,Net-(SWR1-NO)*%
X163000000Y-28862500D03*
%TO.P,SWR,3,NC_3*%
%TO.N,unconnected-(SWR1-NC-Pad3)*%
X168000000Y-28862500D03*
%TD*%
%TO.P,C1,1,GND_1*%
%TO.N,Net-(C1-GND)*%
X162000000Y-63500000D03*
%TO.P,C1,2,VCC_2*%
%TO.N,Net-(C1-VCC)*%
X162000000Y-61500000D03*
%TD*%
D14*
%TO.P,R1,1*%
%TO.N,Net-(SWR1-NO)*%
X162000000Y-75460000D03*
%TO.P,R1,2*%
%TO.N,Net-(D1-K)*%
X162000000Y-80540000D03*
%TD*%
D19*
%TO.P,SWM1,1,1_1*%
%TO.N,Net-(SWL1-NO)*%
X162500000Y-33000000D03*
%TO.P,SWM1,2,2_2*%
%TO.N,Net-(SWR1-NO)*%
X162500000Y-37500000D03*
%TD*%
D15*
%TO.P,C3,1,GND_1*%
%TO.N,Net-(C1-GND)*%
X139000000Y-68500000D03*
%TO.P,C3,2,VCC_2*%
%TO.N,Net-(C1-VCC)*%
X137000000Y-68500000D03*
%TD*%
D10*
%TO.P,C2,1,GND_1*%
%TO.N,Net-(C1-GND)*%
X167000000Y-63500000D03*
%TO.P,C2,2,VCC_2*%
%TO.N,Net-(C1-VCC)*%
X167000000Y-61500000D03*
%TD*%
%TO.N,Net-(C1-GND)*%
D20*
X134387500Y-59112500D02*
X132350000Y-57075000D01*
X139000000Y-76000000D02*
X146500000Y-83500000D01*
X167000000Y-72500000D02*
X167000000Y-63500000D01*
X133850000Y-41352082D02*
X133850000Y-32350000D01*
X166955000Y-55455000D02*
X166000000Y-54500000D01*
X166500000Y-63500000D02*
X165990000Y-62990000D01*
X164500000Y-62990000D02*
X164010000Y-62990000D01*
X165990000Y-62990000D02*
X164500000Y-62990000D01*
X158500000Y-63500000D02*
X158000000Y-63000000D01*
X133850000Y-32350000D02*
X133500000Y-32000000D01*
X166000000Y-54500000D02*
X165835000Y-54335000D01*
X133500000Y-32000000D02*
X133500000Y-28500000D01*
X163500000Y-63500000D02*
X162000000Y-63500000D01*
X132350000Y-42852082D02*
X133850000Y-41352082D01*
X154500000Y-83500000D02*
X156000000Y-83500000D01*
X134387500Y-59112500D02*
X139000000Y-63725000D01*
X167500000Y-53000000D02*
X167500000Y-43500000D01*
X156000000Y-83500000D02*
X167000000Y-72500000D01*
X162000000Y-63500000D02*
X158500000Y-63500000D01*
X146500000Y-83500000D02*
X154500000Y-83500000D01*
X139000000Y-63725000D02*
X139000000Y-76000000D01*
X167000000Y-63500000D02*
X166500000Y-63500000D01*
X141500000Y-33500000D02*
X137637500Y-33500000D01*
X133500000Y-29362500D02*
X137637500Y-33500000D01*
X166000000Y-54500000D02*
X167500000Y-53000000D01*
X132350000Y-57075000D02*
X132350000Y-42852082D01*
X133500000Y-28500000D02*
X133500000Y-29362500D01*
X164500000Y-57910000D02*
X166955000Y-55455000D01*
X164500000Y-57910000D02*
X164500000Y-58000000D01*
X167500000Y-43500000D02*
X166765000Y-44235000D01*
X164010000Y-62990000D02*
X163500000Y-63500000D01*
X166765000Y-44235000D02*
X164106622Y-44235000D01*
%TO.N,Net-(SWL1-NO)*%
X139435000Y-27565000D02*
X138500000Y-28500000D01*
X162500000Y-33000000D02*
X162500000Y-31585787D01*
X142435000Y-34152950D02*
X142152950Y-34435000D01*
X138585460Y-56585460D02*
X144000000Y-62000000D01*
X142152950Y-34435000D02*
X140847050Y-34435000D01*
X162500000Y-31585787D02*
X158479213Y-27565000D01*
X138585460Y-34585460D02*
X139082970Y-34087950D01*
X138000000Y-28862500D02*
X138935000Y-27927500D01*
X138000000Y-31776364D02*
X138788636Y-32565000D01*
X142435000Y-32847050D02*
X142435000Y-34152950D01*
X140847050Y-34435000D02*
X140500000Y-34087950D01*
X142152950Y-32565000D02*
X142435000Y-32847050D01*
X138788636Y-32565000D02*
X142152950Y-32565000D01*
X138585460Y-34585460D02*
X138585460Y-56585460D01*
X139082970Y-34087950D02*
X140500000Y-34087950D01*
X138000000Y-29000000D02*
X138500000Y-28500000D01*
X138000000Y-31776364D02*
X138000000Y-29000000D01*
X158479213Y-27565000D02*
X139435000Y-27565000D01*
%TO.N,Net-(C1-VCC)*%
X134500000Y-61225000D02*
X134500000Y-61500000D01*
X160000000Y-62500000D02*
X159500000Y-62000000D01*
X137000000Y-63725000D02*
X137000000Y-68500000D01*
X158000000Y-61000000D02*
X165902674Y-53097326D01*
X146835000Y-85835000D02*
X149730000Y-85835000D01*
X168500000Y-63000000D02*
X167000000Y-61500000D01*
X161005025Y-82000000D02*
X165500000Y-82000000D01*
X159000000Y-62000000D02*
X158000000Y-61000000D01*
X134387500Y-61112500D02*
X134500000Y-61225000D01*
X168500000Y-79000000D02*
X168500000Y-63000000D01*
X161500000Y-61000000D02*
X162000000Y-61500000D01*
X137000000Y-76000000D02*
X146835000Y-85835000D01*
X134387500Y-61112500D02*
X137000000Y-63725000D01*
X151395000Y-87500000D02*
X155505025Y-87500000D01*
X162000000Y-61500000D02*
X161000000Y-61500000D01*
X164910000Y-61500000D02*
X164500000Y-61090000D01*
X162410000Y-61090000D02*
X162000000Y-61500000D01*
X155505025Y-87500000D02*
X161005025Y-82000000D01*
X164500000Y-61090000D02*
X162410000Y-61090000D01*
X137000000Y-68500000D02*
X137000000Y-76000000D01*
X159500000Y-62000000D02*
X159000000Y-62000000D01*
X167000000Y-61500000D02*
X164910000Y-61500000D01*
X149730000Y-85835000D02*
X150930000Y-87035000D01*
X149730000Y-85835000D02*
X151395000Y-87500000D01*
X165902674Y-53097326D02*
X165902674Y-46031051D01*
X161000000Y-61500000D02*
X160000000Y-62500000D01*
X165500000Y-82000000D02*
X168500000Y-79000000D01*
%TO.N,Net-(D1-K)*%
X160460000Y-80540000D02*
X162000000Y-80540000D01*
X155165000Y-85835000D02*
X160460000Y-80540000D01*
X152270000Y-85835000D02*
X155165000Y-85835000D01*
%TO.N,Net-(ENC1-C)*%
X144000000Y-60000000D02*
X144000000Y-59500000D01*
X141500000Y-57500000D02*
X144000000Y-60000000D01*
X141500000Y-38500000D02*
X141500000Y-57500000D01*
%TO.N,Net-(ENC1-B)*%
X142835000Y-30170025D02*
X143505025Y-29500000D01*
X158000000Y-59000000D02*
X158000000Y-28862500D01*
X158000000Y-28862500D02*
X157637500Y-28862500D01*
X141500000Y-36000000D02*
X142835000Y-34665000D01*
X142835000Y-34665000D02*
X142835000Y-30170025D01*
X157362500Y-29500000D02*
X158000000Y-28862500D01*
X143505025Y-29500000D02*
X157362500Y-29500000D01*
%TO.N,Net-(U1-DP)*%
X144000000Y-64000000D02*
X134387500Y-54387500D01*
X134387500Y-54387500D02*
X134387500Y-54112500D01*
%TO.N,Net-(U1-DM)*%
X144000000Y-66000000D02*
X134387500Y-56387500D01*
X134387500Y-56387500D02*
X134387500Y-56112500D01*
%TO.N,Net-(SWR1-NO)*%
X158000000Y-65000000D02*
X162000000Y-69000000D01*
X162000000Y-69000000D02*
X162000000Y-75460000D01*
%TD*%
%TA.AperFunction,NonConductor*%
G36*
X156760646Y-28169626D02*
G01*
X156775275Y-28168863D01*
X156793497Y-28179273D01*
X156813631Y-28185185D01*
X156823222Y-28196254D01*
X156835943Y-28203521D01*
X156845645Y-28222131D01*
X156859386Y-28237989D01*
X156862046Y-28253590D01*
X156868243Y-28265477D01*
X156870082Y-28300718D01*
X156864501Y-28362145D01*
X156864500Y-28362156D01*
X156864501Y-28775500D01*
X156844817Y-28842539D01*
X156792013Y-28888294D01*
X156740501Y-28899500D01*
X144759500Y-28899500D01*
X144692461Y-28879815D01*
X144646706Y-28827011D01*
X144635500Y-28775500D01*
X144635499Y-28289500D01*
X144655183Y-28222461D01*
X144707987Y-28176706D01*
X144759499Y-28165500D01*
X156746592Y-28165500D01*
X156760646Y-28169626D01*
G37*
%TD.AperFunction*%
%TA.AperFunction,NonConductor*%
G36*
X142307539Y-28185185D02*
G01*
X142353294Y-28237989D01*
X142364500Y-28289500D01*
X142364500Y-29000354D01*
X142370825Y-29069966D01*
X142370828Y-29069977D01*
X142420747Y-29230175D01*
X142420749Y-29230179D01*
X142507556Y-29373777D01*
X142507560Y-29373782D01*
X142557102Y-29423324D01*
X142561439Y-29431268D01*
X142568688Y-29436694D01*
X142577924Y-29461456D01*
X142590587Y-29484647D01*
X142589941Y-29493675D01*
X142593105Y-29502158D01*
X142587488Y-29527980D01*
X142585603Y-29554339D01*
X142579785Y-29563391D01*
X142578254Y-29570431D01*
X142557103Y-29598686D01*
X142466286Y-29689503D01*
X142466285Y-29689503D01*
X142466284Y-29689504D01*
X142354481Y-29801307D01*
X142354480Y-29801309D01*
X142315563Y-29868716D01*
X142275423Y-29938240D01*
X142234499Y-30090968D01*
X142234499Y-30090970D01*
X142234499Y-30259071D01*
X142234500Y-30259084D01*
X142234500Y-31840499D01*
X142231949Y-31849184D01*
X142233238Y-31858143D01*
X142222259Y-31882183D01*
X142214815Y-31907538D01*
X142207975Y-31913464D01*
X142204215Y-31921700D01*
X142181978Y-31935991D01*
X142162011Y-31953293D01*
X142151498Y-31955580D01*
X142145438Y-31959475D01*
X142110508Y-31964497D01*
X142110503Y-31964499D01*
X142073893Y-31964499D01*
X142073889Y-31964499D01*
X142066284Y-31964500D01*
X142066283Y-31964499D01*
X142066281Y-31964500D01*
X141050603Y-31964500D01*
X140983564Y-31944815D01*
X140937809Y-31892011D01*
X140927865Y-31822853D01*
X140951336Y-31766189D01*
X140953096Y-31763837D01*
X140969196Y-31742331D01*
X141019491Y-31607483D01*
X141025900Y-31547873D01*
X141025899Y-30452128D01*
X141019491Y-30392517D01*
X140969196Y-30257669D01*
X140969195Y-30257668D01*
X140969193Y-30257664D01*
X140882947Y-30142455D01*
X140882944Y-30142452D01*
X140767735Y-30056206D01*
X140767728Y-30056202D01*
X140632882Y-30005908D01*
X140632883Y-30005908D01*
X140573283Y-29999501D01*
X140573281Y-29999500D01*
X140573273Y-29999500D01*
X140573265Y-29999500D01*
X138724500Y-29999500D01*
X138715814Y-29996949D01*
X138706853Y-29998238D01*
X138682812Y-29987259D01*
X138657461Y-29979815D01*
X138651533Y-29972974D01*
X138643297Y-29969213D01*
X138629007Y-29946978D01*
X138611706Y-29927011D01*
X138609418Y-29916496D01*
X138605523Y-29910435D01*
X138600500Y-29875500D01*
X138600500Y-29759499D01*
X138620185Y-29692460D01*
X138672989Y-29646705D01*
X138724500Y-29635499D01*
X139000353Y-29635499D01*
X139069966Y-29629174D01*
X139069969Y-29629173D01*
X139069971Y-29629173D01*
X139230178Y-29579251D01*
X139357706Y-29502158D01*
X139373777Y-29492443D01*
X139373778Y-29492441D01*
X139373783Y-29492439D01*
X139492439Y-29373783D01*
X139500742Y-29360049D01*
X139549284Y-29279749D01*
X139579251Y-29230178D01*
X139629173Y-29069971D01*
X139635500Y-29000347D01*
X139635499Y-28289499D01*
X139655183Y-28222461D01*
X139707987Y-28176706D01*
X139759499Y-28165500D01*
X142240500Y-28165500D01*
X142307539Y-28185185D01*
G37*
%TD.AperFunction*%
%TA.AperFunction,NonConductor*%
G36*
X140229343Y-34697094D02*
G01*
X140259330Y-34703618D01*
X140264345Y-34707372D01*
X140266942Y-34708135D01*
X140287584Y-34724769D01*
X140362189Y-34799374D01*
X140362199Y-34799385D01*
X140478335Y-34915521D01*
X140484224Y-34918921D01*
X140490487Y-34922536D01*
X140538704Y-34973102D01*
X140551929Y-35041709D01*
X140525963Y-35106574D01*
X140516174Y-35117603D01*
X140507561Y-35126215D01*
X140507556Y-35126222D01*
X140420750Y-35269819D01*
X140420749Y-35269821D01*
X140420749Y-35269822D01*
X140416669Y-35282914D01*
X140370826Y-35430032D01*
X140364500Y-35499655D01*
X140364500Y-36500354D01*
X140370825Y-36569966D01*
X140370828Y-36569977D01*
X140420747Y-36730175D01*
X140420749Y-36730179D01*
X140507556Y-36873777D01*
X140507560Y-36873782D01*
X140626217Y-36992439D01*
X140626222Y-36992443D01*
X140746815Y-37065343D01*
X140769822Y-37079251D01*
X140930029Y-37129173D01*
X140930033Y-37129173D01*
X140936293Y-37131124D01*
X140935591Y-37133374D01*
X140987954Y-37160756D01*
X141022536Y-37221467D01*
X141018805Y-37291237D01*
X140977946Y-37347914D01*
X140935767Y-37367186D01*
X140936293Y-37368874D01*
X140769824Y-37420747D01*
X140769820Y-37420749D01*
X140626222Y-37507556D01*
X140626217Y-37507560D01*
X140507560Y-37626217D01*
X140507556Y-37626222D01*
X140420750Y-37769819D01*
X140370826Y-37930032D01*
X140364500Y-37999655D01*
X140364500Y-39000354D01*
X140370825Y-39069966D01*
X140370828Y-39069977D01*
X140420747Y-39230175D01*
X140420749Y-39230179D01*
X140507556Y-39373777D01*
X140507560Y-39373782D01*
X140626217Y-39492439D01*
X140626222Y-39492443D01*
X140769820Y-39579250D01*
X140769822Y-39579251D01*
X140812389Y-39592515D01*
X140833559Y-39606617D01*
X140856703Y-39617187D01*
X140862150Y-39625664D01*
X140870536Y-39631250D01*
X140880722Y-39654562D01*
X140894477Y-39675965D01*
X140896636Y-39690982D01*
X140898512Y-39695275D01*
X140899500Y-39710900D01*
X140899500Y-39926757D01*
X140879815Y-39993796D01*
X140827011Y-40039551D01*
X140757853Y-40049495D01*
X140732167Y-40042939D01*
X140632882Y-40005908D01*
X140632883Y-40005908D01*
X140573283Y-39999501D01*
X140573281Y-39999500D01*
X140573273Y-39999500D01*
X140573265Y-39999500D01*
X139309960Y-39999500D01*
X139242921Y-39979815D01*
X139197166Y-39927011D01*
X139185960Y-39875500D01*
X139185960Y-34885557D01*
X139205645Y-34818518D01*
X139222279Y-34797876D01*
X139295386Y-34724769D01*
X139356709Y-34691284D01*
X139383067Y-34688450D01*
X140199903Y-34688450D01*
X140229343Y-34697094D01*
G37*
%TD.AperFunction*%
%TA.AperFunction,NonConductor*%
G36*
X132455703Y-29299649D02*
G01*
X132480617Y-29329213D01*
X132507557Y-29373778D01*
X132507560Y-29373782D01*
X132626217Y-29492439D01*
X132626222Y-29492443D01*
X132769820Y-29579250D01*
X132769822Y-29579251D01*
X132812389Y-29592515D01*
X132870536Y-29631250D01*
X132898512Y-29695275D01*
X132899500Y-29710900D01*
X132899500Y-31913330D01*
X132899499Y-31913348D01*
X132899499Y-32079054D01*
X132899498Y-32079054D01*
X132940423Y-32231785D01*
X132948948Y-32246550D01*
X132948949Y-32246553D01*
X133019475Y-32368709D01*
X133019481Y-32368717D01*
X133213181Y-32562417D01*
X133246666Y-32623740D01*
X133249500Y-32650098D01*
X133249500Y-40133330D01*
X133229815Y-40200369D01*
X133177011Y-40246124D01*
X133107853Y-40256068D01*
X133101311Y-40254948D01*
X133073919Y-40249500D01*
X133073918Y-40249500D01*
X132926082Y-40249500D01*
X132926080Y-40249500D01*
X132781092Y-40278340D01*
X132781082Y-40278343D01*
X132644511Y-40334912D01*
X132644498Y-40334919D01*
X132521584Y-40417048D01*
X132521580Y-40417051D01*
X132462181Y-40476451D01*
X132400858Y-40509936D01*
X132331166Y-40504952D01*
X132275233Y-40463080D01*
X132250816Y-40397616D01*
X132250500Y-40388770D01*
X132250500Y-29393362D01*
X132270185Y-29326323D01*
X132322989Y-29280568D01*
X132392147Y-29270624D01*
X132455703Y-29299649D01*
G37*
%TD.AperFunction*%
%TA.AperFunction,NonConductor*%
G36*
X166836475Y-47173320D02*
G01*
X166885170Y-47223426D01*
X166899500Y-47281292D01*
X166899500Y-52699903D01*
X166890855Y-52729343D01*
X166884332Y-52759330D01*
X166880577Y-52764345D01*
X166879815Y-52766942D01*
X166863181Y-52787584D01*
X166714855Y-52935910D01*
X166653532Y-52969395D01*
X166583840Y-52964411D01*
X166527907Y-52922539D01*
X166503490Y-52857075D01*
X166503174Y-52848229D01*
X166503174Y-47372886D01*
X166522859Y-47305847D01*
X166570880Y-47262401D01*
X166571221Y-47262226D01*
X166636696Y-47228866D01*
X166655787Y-47214995D01*
X166702615Y-47180974D01*
X166768421Y-47157494D01*
X166836475Y-47173320D01*
G37*
%TD.AperFunction*%
%TA.AperFunction,NonConductor*%
G36*
X140863181Y-42120559D02*
G01*
X140896666Y-42181882D01*
X140899500Y-42208240D01*
X140899500Y-57413330D01*
X140899499Y-57413348D01*
X140899499Y-57579054D01*
X140899498Y-57579054D01*
X140899499Y-57579057D01*
X140940423Y-57731785D01*
X140940424Y-57731787D01*
X140940423Y-57731787D01*
X140960441Y-57766457D01*
X140976915Y-57834357D01*
X140954063Y-57900384D01*
X140899143Y-57943575D01*
X140829589Y-57950217D01*
X140767486Y-57918202D01*
X140765374Y-57916139D01*
X139222279Y-56373044D01*
X139188794Y-56311721D01*
X139185960Y-56285363D01*
X139185960Y-42259497D01*
X139205645Y-42192458D01*
X139258449Y-42146703D01*
X139309960Y-42135497D01*
X140573271Y-42135497D01*
X140573272Y-42135497D01*
X140632883Y-42129089D01*
X140732168Y-42092057D01*
X140801858Y-42087074D01*
X140863181Y-42120559D01*
G37*
%TD.AperFunction*%
%TA.AperFunction,NonConductor*%
G36*
X134305703Y-31017884D02*
G01*
X134312180Y-31023915D01*
X137268784Y-33980520D01*
X137268786Y-33980521D01*
X137268790Y-33980524D01*
X137405709Y-34059573D01*
X137405716Y-34059577D01*
X137558443Y-34100501D01*
X137558445Y-34100501D01*
X137724154Y-34100501D01*
X137724170Y-34100500D01*
X137957280Y-34100500D01*
X138024319Y-34120185D01*
X138070074Y-34172989D01*
X138080018Y-34242147D01*
X138064666Y-34286502D01*
X138059017Y-34296284D01*
X138025883Y-34353675D01*
X137984959Y-34506403D01*
X137984959Y-34506405D01*
X137984959Y-34674506D01*
X137984960Y-34674519D01*
X137984960Y-40028321D01*
X137965275Y-40095360D01*
X137935273Y-40127586D01*
X137915419Y-40142449D01*
X137915411Y-40142457D01*
X137829166Y-40257664D01*
X137829162Y-40257671D01*
X137778868Y-40392517D01*
X137772461Y-40452116D01*
X137772460Y-40452135D01*
X137772460Y-41682868D01*
X137772461Y-41682874D01*
X137778868Y-41742481D01*
X137829162Y-41877326D01*
X137829166Y-41877333D01*
X137915412Y-41992542D01*
X137915413Y-41992543D01*
X137935270Y-42007408D01*
X137977142Y-42063341D01*
X137984960Y-42106675D01*
X137984960Y-56498790D01*
X137984959Y-56498808D01*
X137984959Y-56664514D01*
X137984958Y-56664514D01*
X138025883Y-56817245D01*
X138040876Y-56843214D01*
X138040878Y-56843216D01*
X138045902Y-56851918D01*
X138062373Y-56919818D01*
X138039521Y-56985845D01*
X137984599Y-57029035D01*
X137915046Y-57035676D01*
X137852943Y-57003659D01*
X137850833Y-57001598D01*
X135498271Y-54649036D01*
X135464786Y-54587713D01*
X135468020Y-54523038D01*
X135513572Y-54382846D01*
X135542000Y-54203361D01*
X135542000Y-54021639D01*
X135513572Y-53842154D01*
X135513571Y-53842150D01*
X135513571Y-53842149D01*
X135457418Y-53669328D01*
X135457416Y-53669325D01*
X135374916Y-53507409D01*
X135268103Y-53360394D01*
X135139606Y-53231897D01*
X134992590Y-53125083D01*
X134830674Y-53042583D01*
X134830671Y-53042581D01*
X134657848Y-52986428D01*
X134518838Y-52964411D01*
X134478361Y-52958000D01*
X134296639Y-52958000D01*
X134256162Y-52964411D01*
X134117152Y-52986428D01*
X134117149Y-52986428D01*
X133944328Y-53042581D01*
X133944325Y-53042583D01*
X133782409Y-53125083D01*
X133698530Y-53186025D01*
X133635394Y-53231897D01*
X133635392Y-53231899D01*
X133635391Y-53231899D01*
X133506899Y-53360391D01*
X133506899Y-53360392D01*
X133506897Y-53360394D01*
X133500856Y-53368709D01*
X133400083Y-53507409D01*
X133317583Y-53669325D01*
X133317581Y-53669328D01*
X133261428Y-53842149D01*
X133261428Y-53842152D01*
X133233000Y-54021639D01*
X133233000Y-54203360D01*
X133261428Y-54382847D01*
X133261428Y-54382850D01*
X133317581Y-54555671D01*
X133317583Y-54555674D01*
X133400083Y-54717590D01*
X133506897Y-54864606D01*
X133506899Y-54864608D01*
X133635394Y-54993103D01*
X133661655Y-55012183D01*
X133704320Y-55067514D01*
X133710298Y-55137127D01*
X133677691Y-55198922D01*
X133661655Y-55212817D01*
X133635394Y-55231896D01*
X133506899Y-55360391D01*
X133506899Y-55360392D01*
X133506897Y-55360394D01*
X133461025Y-55423530D01*
X133400083Y-55507409D01*
X133317583Y-55669325D01*
X133317581Y-55669328D01*
X133261428Y-55842149D01*
X133261428Y-55842152D01*
X133233000Y-56021639D01*
X133233000Y-56203360D01*
X133261428Y-56382847D01*
X133261428Y-56382850D01*
X133317581Y-56555671D01*
X133317583Y-56555674D01*
X133400083Y-56717590D01*
X133506897Y-56864606D01*
X133635394Y-56993103D01*
X133782410Y-57099917D01*
X133944326Y-57182417D01*
X133944328Y-57182418D01*
X134079264Y-57226261D01*
X134117154Y-57238572D01*
X134296639Y-57267000D01*
X134366403Y-57267000D01*
X134433442Y-57286685D01*
X134454084Y-57303319D01*
X135016511Y-57865746D01*
X135049996Y-57927069D01*
X135045012Y-57996761D01*
X135003140Y-58052694D01*
X134937676Y-58077111D01*
X134872535Y-58063912D01*
X134830674Y-58042583D01*
X134830671Y-58042581D01*
X134657848Y-57986428D01*
X134538189Y-57967476D01*
X134478361Y-57958000D01*
X134296639Y-57958000D01*
X134173952Y-57977431D01*
X134104659Y-57968476D01*
X134066874Y-57942639D01*
X132986819Y-56862584D01*
X132953334Y-56801261D01*
X132950500Y-56774903D01*
X132950500Y-43152178D01*
X132970185Y-43085139D01*
X132986814Y-43064502D01*
X134208506Y-41842809D01*
X134208511Y-41842806D01*
X134218714Y-41832602D01*
X134218716Y-41832602D01*
X134330520Y-41720798D01*
X134409577Y-41583866D01*
X134439534Y-41472063D01*
X134450500Y-41431140D01*
X134450500Y-41273025D01*
X134450500Y-32439060D01*
X134450501Y-32439047D01*
X134450501Y-32270944D01*
X134446734Y-32256884D01*
X134409577Y-32118216D01*
X134354309Y-32022488D01*
X134330524Y-31981290D01*
X134330518Y-31981282D01*
X134136819Y-31787583D01*
X134103334Y-31726260D01*
X134100500Y-31699902D01*
X134100500Y-31111597D01*
X134120185Y-31044558D01*
X134172989Y-30998803D01*
X134242147Y-30988859D01*
X134305703Y-31017884D01*
G37*
%TD.AperFunction*%
%TA.AperFunction,NonConductor*%
G36*
X168692539Y-24310185D02*
G01*
X168738294Y-24362989D01*
X168749500Y-24414500D01*
X168749500Y-27620750D01*
X168729815Y-27687789D01*
X168677011Y-27733544D01*
X168607853Y-27743488D01*
X168588620Y-27739138D01*
X168569971Y-27733327D01*
X168569969Y-27733326D01*
X168569967Y-27733326D01*
X168521221Y-27728896D01*
X168500347Y-27727000D01*
X168500344Y-27727000D01*
X167499645Y-27727000D01*
X167430033Y-27733325D01*
X167430022Y-27733328D01*
X167269824Y-27783247D01*
X167269820Y-27783249D01*
X167126222Y-27870056D01*
X167126217Y-27870060D01*
X167007560Y-27988717D01*
X167007556Y-27988722D01*
X166920750Y-28132319D01*
X166920750Y-28132320D01*
X166920749Y-28132322D01*
X166909125Y-28169626D01*
X166870826Y-28292532D01*
X166864500Y-28362155D01*
X166864500Y-29362854D01*
X166870825Y-29432466D01*
X166870828Y-29432477D01*
X166920747Y-29592675D01*
X166920749Y-29592679D01*
X167007556Y-29736277D01*
X167007560Y-29736282D01*
X167126217Y-29854939D01*
X167126222Y-29854943D01*
X167228045Y-29916496D01*
X167269822Y-29941751D01*
X167430029Y-29991673D01*
X167499653Y-29998000D01*
X168500346Y-29997999D01*
X168500353Y-29997999D01*
X168569966Y-29991674D01*
X168569968Y-29991673D01*
X168569971Y-29991673D01*
X168588606Y-29985865D01*
X168658466Y-29984712D01*
X168717860Y-30021511D01*
X168747930Y-30084579D01*
X168749500Y-30104250D01*
X168749500Y-40388770D01*
X168729815Y-40455809D01*
X168677011Y-40501564D01*
X168607853Y-40511508D01*
X168544297Y-40482483D01*
X168537819Y-40476451D01*
X168478419Y-40417051D01*
X168478415Y-40417048D01*
X168355501Y-40334919D01*
X168355488Y-40334912D01*
X168218917Y-40278343D01*
X168218907Y-40278340D01*
X168073920Y-40249500D01*
X168073918Y-40249500D01*
X167926082Y-40249500D01*
X167926080Y-40249500D01*
X167781092Y-40278340D01*
X167781082Y-40278343D01*
X167644511Y-40334912D01*
X167644498Y-40334919D01*
X167521584Y-40417048D01*
X167521580Y-40417051D01*
X167417051Y-40521580D01*
X167417048Y-40521584D01*
X167334919Y-40644498D01*
X167334912Y-40644511D01*
X167278343Y-40781082D01*
X167278340Y-40781092D01*
X167249500Y-40926079D01*
X167249500Y-40926082D01*
X167249500Y-41073918D01*
X167249500Y-41073920D01*
X167249499Y-41073920D01*
X167278340Y-41218907D01*
X167278343Y-41218917D01*
X167334912Y-41355488D01*
X167334919Y-41355501D01*
X167417048Y-41478415D01*
X167417051Y-41478419D01*
X167521580Y-41582948D01*
X167521584Y-41582951D01*
X167644498Y-41665080D01*
X167644511Y-41665087D01*
X167778994Y-41720791D01*
X167781087Y-41721658D01*
X167781091Y-41721658D01*
X167781092Y-41721659D01*
X167926079Y-41750500D01*
X167926082Y-41750500D01*
X168073920Y-41750500D01*
X168171462Y-41731096D01*
X168218913Y-41721658D01*
X168355495Y-41665084D01*
X168478416Y-41582951D01*
X168495477Y-41565890D01*
X168537819Y-41523549D01*
X168599142Y-41490064D01*
X168668834Y-41495048D01*
X168724767Y-41536920D01*
X168749184Y-41602384D01*
X168749500Y-41611230D01*
X168749500Y-62100903D01*
X168729815Y-62167942D01*
X168677011Y-62213697D01*
X168607853Y-62223641D01*
X168544297Y-62194616D01*
X168537819Y-62188584D01*
X168171818Y-61822583D01*
X168138333Y-61761260D01*
X168135499Y-61734902D01*
X168135499Y-60999645D01*
X168129174Y-60930033D01*
X168129171Y-60930022D01*
X168079252Y-60769824D01*
X168079250Y-60769820D01*
X167992443Y-60626222D01*
X167992439Y-60626217D01*
X167873782Y-60507560D01*
X167873777Y-60507556D01*
X167730180Y-60420750D01*
X167730179Y-60420749D01*
X167730178Y-60420749D01*
X167569971Y-60370827D01*
X167569969Y-60370826D01*
X167569967Y-60370826D01*
X167521221Y-60366396D01*
X167500347Y-60364500D01*
X167500344Y-60364500D01*
X166499645Y-60364500D01*
X166430033Y-60370825D01*
X166430022Y-60370828D01*
X166269824Y-60420747D01*
X166269820Y-60420749D01*
X166126222Y-60507556D01*
X166126217Y-60507560D01*
X166007560Y-60626217D01*
X166007556Y-60626222D01*
X165920750Y-60769819D01*
X165920749Y-60769821D01*
X165920749Y-60769822D01*
X165907483Y-60812391D01*
X165868747Y-60870538D01*
X165804722Y-60898512D01*
X165789099Y-60899500D01*
X165210098Y-60899500D01*
X165143059Y-60879815D01*
X165122417Y-60863181D01*
X164868717Y-60609481D01*
X164868712Y-60609477D01*
X164770756Y-60552923D01*
X164770755Y-60552922D01*
X164731790Y-60530425D01*
X164731789Y-60530424D01*
X164719263Y-60527067D01*
X164579057Y-60489499D01*
X164420943Y-60489499D01*
X164413347Y-60489499D01*
X164413331Y-60489500D01*
X162878474Y-60489500D01*
X162814324Y-60471617D01*
X162730178Y-60420749D01*
X162730172Y-60420747D01*
X162569971Y-60370827D01*
X162569969Y-60370826D01*
X162569967Y-60370826D01*
X162521221Y-60366396D01*
X162500347Y-60364500D01*
X162500344Y-60364500D01*
X161499645Y-60364500D01*
X161430033Y-60370825D01*
X161430022Y-60370828D01*
X161269824Y-60420747D01*
X161269820Y-60420749D01*
X161126222Y-60507556D01*
X161126217Y-60507560D01*
X161007560Y-60626217D01*
X161007556Y-60626222D01*
X160920749Y-60769820D01*
X160920749Y-60769821D01*
X160896959Y-60846164D01*
X160858221Y-60904311D01*
X160810671Y-60929046D01*
X160768216Y-60940422D01*
X160768212Y-60940424D01*
X160631287Y-61019477D01*
X160631282Y-61019481D01*
X160087680Y-61563082D01*
X160026357Y-61596567D01*
X159956665Y-61591583D01*
X159928153Y-61576466D01*
X159919675Y-61570439D01*
X159868716Y-61519480D01*
X159763469Y-61458716D01*
X159758398Y-61455788D01*
X159758395Y-61455786D01*
X159731785Y-61440423D01*
X159579057Y-61399499D01*
X159420943Y-61399499D01*
X159413347Y-61399499D01*
X159413331Y-61399500D01*
X159300098Y-61399500D01*
X159233059Y-61379815D01*
X159212417Y-61363181D01*
X159169860Y-61320624D01*
X159136375Y-61259301D01*
X159135068Y-61213547D01*
X159154500Y-61090861D01*
X159154500Y-60909139D01*
X159135068Y-60786451D01*
X159144023Y-60717159D01*
X159169857Y-60679376D01*
X165163775Y-54685459D01*
X165225096Y-54651976D01*
X165294788Y-54656960D01*
X165349825Y-54697649D01*
X165354480Y-54703715D01*
X166018083Y-55367318D01*
X166051568Y-55428641D01*
X166046584Y-55498333D01*
X166018083Y-55542680D01*
X164860830Y-56699933D01*
X164799507Y-56733418D01*
X164753751Y-56734725D01*
X164594486Y-56709500D01*
X164594481Y-56709500D01*
X164405519Y-56709500D01*
X164405514Y-56709500D01*
X164218881Y-56739059D01*
X164039163Y-56797454D01*
X163870800Y-56883240D01*
X163820456Y-56919818D01*
X163717927Y-56994310D01*
X163717925Y-56994312D01*
X163717924Y-56994312D01*
X163584312Y-57127924D01*
X163584312Y-57127925D01*
X163584310Y-57127927D01*
X163544721Y-57182416D01*
X163473240Y-57280800D01*
X163387454Y-57449163D01*
X163329059Y-57628881D01*
X163299500Y-57815513D01*
X163299500Y-58004486D01*
X163329059Y-58191118D01*
X163387454Y-58370836D01*
X163444854Y-58483488D01*
X163473240Y-58539199D01*
X163584310Y-58692073D01*
X163717927Y-58825690D01*
X163870801Y-58936760D01*
X163950347Y-58977290D01*
X164039163Y-59022545D01*
X164039165Y-59022545D01*
X164039168Y-59022547D01*
X164135497Y-59053846D01*
X164218881Y-59080940D01*
X164405514Y-59110500D01*
X164405519Y-59110500D01*
X164594486Y-59110500D01*
X164781118Y-59080940D01*
X164960832Y-59022547D01*
X165129199Y-58936760D01*
X165282073Y-58825690D01*
X165415690Y-58692073D01*
X165526760Y-58539199D01*
X165612547Y-58370832D01*
X165670940Y-58191118D01*
X165682299Y-58119398D01*
X165700500Y-58004486D01*
X165700500Y-57815513D01*
X165675274Y-57656246D01*
X165684228Y-57586953D01*
X165710063Y-57549170D01*
X167435519Y-55823716D01*
X167514577Y-55686785D01*
X167529262Y-55631980D01*
X167555501Y-55534057D01*
X167555501Y-55375943D01*
X167514577Y-55223215D01*
X167435519Y-55086284D01*
X166936915Y-54587680D01*
X166903430Y-54526357D01*
X166908414Y-54456665D01*
X166936911Y-54412323D01*
X167858506Y-53490727D01*
X167858511Y-53490724D01*
X167868714Y-53480520D01*
X167868716Y-53480520D01*
X167980520Y-53368716D01*
X168059577Y-53231784D01*
X168100500Y-53079057D01*
X168100500Y-43589059D01*
X168100501Y-43589046D01*
X168100501Y-43420945D01*
X168100501Y-43420943D01*
X168059577Y-43268215D01*
X168030639Y-43218095D01*
X167980520Y-43131284D01*
X167868716Y-43019480D01*
X167781904Y-42969360D01*
X167781904Y-42969359D01*
X167781900Y-42969358D01*
X167731785Y-42940423D01*
X167579057Y-42899499D01*
X167420943Y-42899499D01*
X167313587Y-42928265D01*
X167268210Y-42940424D01*
X167268209Y-42940425D01*
X167218096Y-42969359D01*
X167218095Y-42969360D01*
X167174689Y-42994420D01*
X167131285Y-43019479D01*
X167131282Y-43019481D01*
X167019478Y-43131286D01*
X166552584Y-43598181D01*
X166491261Y-43631666D01*
X166464903Y-43634500D01*
X165538090Y-43634500D01*
X165471051Y-43614815D01*
X165450409Y-43598181D01*
X164426685Y-42574458D01*
X164426678Y-42574451D01*
X164379995Y-42536831D01*
X164249079Y-42477043D01*
X164249077Y-42477042D01*
X164249079Y-42477042D01*
X164106622Y-42456561D01*
X163964165Y-42477042D01*
X163833251Y-42536829D01*
X163786556Y-42574458D01*
X162446080Y-43914936D01*
X162446074Y-43914943D01*
X162408452Y-43961628D01*
X162408451Y-43961630D01*
X162348664Y-44092543D01*
X162328183Y-44235000D01*
X162348664Y-44377456D01*
X162408451Y-44508370D01*
X162408452Y-44508371D01*
X162408453Y-44508373D01*
X162446072Y-44555056D01*
X162446075Y-44555059D01*
X162446080Y-44555065D01*
X162853825Y-44962809D01*
X163786566Y-45895549D01*
X163833249Y-45933169D01*
X163964165Y-45992957D01*
X163964164Y-45992957D01*
X163982071Y-45995531D01*
X164106622Y-46013439D01*
X164249079Y-45992957D01*
X164326664Y-45957524D01*
X164395820Y-45947581D01*
X164459376Y-45976605D01*
X164497151Y-46035383D01*
X164502174Y-46070319D01*
X164502174Y-46141272D01*
X164536659Y-46359003D01*
X164604777Y-46568654D01*
X164604778Y-46568657D01*
X164704861Y-46765076D01*
X164834426Y-46943409D01*
X164834430Y-46943414D01*
X164990310Y-47099294D01*
X164990315Y-47099298D01*
X165168650Y-47228865D01*
X165234468Y-47262401D01*
X165285265Y-47310375D01*
X165302174Y-47372886D01*
X165302174Y-52797228D01*
X165282489Y-52864267D01*
X165265855Y-52884909D01*
X159338495Y-58812268D01*
X159277172Y-58845753D01*
X159207480Y-58840769D01*
X159151547Y-58798897D01*
X159128341Y-58743982D01*
X159126072Y-58729654D01*
X159126071Y-58729652D01*
X159126071Y-58729649D01*
X159069918Y-58556828D01*
X159069916Y-58556825D01*
X159060936Y-58539199D01*
X158987417Y-58394910D01*
X158880603Y-58247894D01*
X158752106Y-58119397D01*
X158651613Y-58046384D01*
X158608949Y-57991054D01*
X158600500Y-57946067D01*
X158600500Y-41434108D01*
X160999500Y-41434108D01*
X160999500Y-41565891D01*
X161033608Y-41693187D01*
X161066554Y-41750250D01*
X161099500Y-41807314D01*
X161192686Y-41900500D01*
X161306814Y-41966392D01*
X161434108Y-42000500D01*
X161434110Y-42000500D01*
X161565890Y-42000500D01*
X161565892Y-42000500D01*
X161693186Y-41966392D01*
X161807314Y-41900500D01*
X161900500Y-41807314D01*
X161966392Y-41693186D01*
X162000500Y-41565892D01*
X162000500Y-41434108D01*
X161966392Y-41306814D01*
X161900500Y-41192686D01*
X161807314Y-41099500D01*
X161721280Y-41049828D01*
X161693187Y-41033608D01*
X161629539Y-41016554D01*
X161565892Y-40999500D01*
X161434108Y-40999500D01*
X161306812Y-41033608D01*
X161192686Y-41099500D01*
X161192683Y-41099502D01*
X161099502Y-41192683D01*
X161099500Y-41192686D01*
X161033608Y-41306812D01*
X160999500Y-41434108D01*
X158600500Y-41434108D01*
X158600500Y-37381902D01*
X160999500Y-37381902D01*
X160999500Y-37618097D01*
X161036446Y-37851368D01*
X161109433Y-38075996D01*
X161216657Y-38286433D01*
X161355483Y-38477510D01*
X161522490Y-38644517D01*
X161713567Y-38783343D01*
X161812991Y-38834002D01*
X161924003Y-38890566D01*
X161924005Y-38890566D01*
X161924008Y-38890568D01*
X162044412Y-38929689D01*
X162148631Y-38963553D01*
X162381903Y-39000500D01*
X162381908Y-39000500D01*
X162618097Y-39000500D01*
X162851368Y-38963553D01*
X163075992Y-38890568D01*
X163286433Y-38783343D01*
X163477510Y-38644517D01*
X163644517Y-38477510D01*
X163783343Y-38286433D01*
X163890568Y-38075992D01*
X163963553Y-37851368D01*
X163976469Y-37769819D01*
X164000500Y-37618097D01*
X164000500Y-37381902D01*
X163963553Y-37148631D01*
X163912804Y-36992443D01*
X163890568Y-36924008D01*
X163890566Y-36924005D01*
X163890566Y-36924003D01*
X163834002Y-36812991D01*
X163783343Y-36713567D01*
X163644517Y-36522490D01*
X163477510Y-36355483D01*
X163286433Y-36216657D01*
X163075996Y-36109433D01*
X162851368Y-36036446D01*
X162618097Y-35999500D01*
X162618092Y-35999500D01*
X162381908Y-35999500D01*
X162381903Y-35999500D01*
X162148631Y-36036446D01*
X161924003Y-36109433D01*
X161713566Y-36216657D01*
X161604550Y-36295862D01*
X161522490Y-36355483D01*
X161522488Y-36355485D01*
X161522487Y-36355485D01*
X161355485Y-36522487D01*
X161355485Y-36522488D01*
X161355483Y-36522490D01*
X161320990Y-36569966D01*
X161216657Y-36713566D01*
X161109433Y-36924003D01*
X161036446Y-37148631D01*
X160999500Y-37381902D01*
X158600500Y-37381902D01*
X158600500Y-30073400D01*
X158620185Y-30006361D01*
X158672989Y-29960606D01*
X158687602Y-29955017D01*
X158730178Y-29941751D01*
X158839771Y-29875500D01*
X158873777Y-29854943D01*
X158873778Y-29854941D01*
X158873783Y-29854939D01*
X158992439Y-29736283D01*
X159079251Y-29592678D01*
X159129173Y-29432471D01*
X159135500Y-29362847D01*
X159135499Y-29362844D01*
X159135754Y-29360049D01*
X159136801Y-29360144D01*
X159158134Y-29298019D01*
X159212950Y-29254695D01*
X159282486Y-29247884D01*
X159344667Y-29279749D01*
X159346993Y-29282015D01*
X160517100Y-30452123D01*
X161650329Y-31585352D01*
X161683814Y-31646675D01*
X161678830Y-31716367D01*
X161636958Y-31772300D01*
X161635534Y-31773351D01*
X161522488Y-31855484D01*
X161522487Y-31855485D01*
X161434177Y-31943796D01*
X161355483Y-32022490D01*
X161314387Y-32079054D01*
X161216657Y-32213566D01*
X161109433Y-32424003D01*
X161036446Y-32648631D01*
X160999500Y-32881902D01*
X160999500Y-33118097D01*
X161036446Y-33351368D01*
X161109433Y-33575996D01*
X161216657Y-33786433D01*
X161355483Y-33977510D01*
X161522490Y-34144517D01*
X161713567Y-34283343D01*
X161812991Y-34334002D01*
X161924003Y-34390566D01*
X161924005Y-34390566D01*
X161924008Y-34390568D01*
X162044412Y-34429689D01*
X162148631Y-34463553D01*
X162381903Y-34500500D01*
X162381908Y-34500500D01*
X162618097Y-34500500D01*
X162851368Y-34463553D01*
X163075992Y-34390568D01*
X163286433Y-34283343D01*
X163477510Y-34144517D01*
X163644517Y-33977510D01*
X163783343Y-33786433D01*
X163890568Y-33575992D01*
X163963553Y-33351368D01*
X164000500Y-33118097D01*
X164000500Y-32881902D01*
X163963553Y-32648631D01*
X163908930Y-32480520D01*
X163890568Y-32424008D01*
X163890566Y-32424005D01*
X163890566Y-32424003D01*
X163812578Y-32270944D01*
X163783343Y-32213567D01*
X163644517Y-32022490D01*
X163477510Y-31855483D01*
X163286433Y-31716657D01*
X163286432Y-31716656D01*
X163286430Y-31716655D01*
X163168205Y-31656415D01*
X163117410Y-31608440D01*
X163100501Y-31545931D01*
X163100501Y-31506731D01*
X163059576Y-31354001D01*
X163059573Y-31353996D01*
X162980524Y-31217077D01*
X162980518Y-31217069D01*
X161618388Y-29854939D01*
X160125603Y-28362155D01*
X161864500Y-28362155D01*
X161864500Y-29362854D01*
X161870825Y-29432466D01*
X161870828Y-29432477D01*
X161920747Y-29592675D01*
X161920749Y-29592679D01*
X162007556Y-29736277D01*
X162007560Y-29736282D01*
X162126217Y-29854939D01*
X162126222Y-29854943D01*
X162228045Y-29916496D01*
X162269822Y-29941751D01*
X162430029Y-29991673D01*
X162499653Y-29998000D01*
X163500346Y-29997999D01*
X163500353Y-29997999D01*
X163569966Y-29991674D01*
X163569969Y-29991673D01*
X163569971Y-29991673D01*
X163730178Y-29941751D01*
X163839771Y-29875500D01*
X163873777Y-29854943D01*
X163873778Y-29854941D01*
X163873783Y-29854939D01*
X163992439Y-29736283D01*
X164079251Y-29592678D01*
X164129173Y-29432471D01*
X164135500Y-29362847D01*
X164135499Y-28362154D01*
X164135499Y-28362153D01*
X164135499Y-28362145D01*
X164129174Y-28292533D01*
X164129171Y-28292522D01*
X164079252Y-28132324D01*
X164079250Y-28132320D01*
X163992443Y-27988722D01*
X163992439Y-27988717D01*
X163873782Y-27870060D01*
X163873777Y-27870056D01*
X163730180Y-27783250D01*
X163730179Y-27783249D01*
X163730178Y-27783249D01*
X163569971Y-27733327D01*
X163569969Y-27733326D01*
X163569967Y-27733326D01*
X163521221Y-27728896D01*
X163500347Y-27727000D01*
X163500344Y-27727000D01*
X162499645Y-27727000D01*
X162430033Y-27733325D01*
X162430022Y-27733328D01*
X162269824Y-27783247D01*
X162269820Y-27783249D01*
X162126222Y-27870056D01*
X162126217Y-27870060D01*
X162007560Y-27988717D01*
X162007556Y-27988722D01*
X161920750Y-28132319D01*
X161920750Y-28132320D01*
X161920749Y-28132322D01*
X161909125Y-28169626D01*
X161870826Y-28292532D01*
X161864500Y-28362155D01*
X160125603Y-28362155D01*
X158966802Y-27203354D01*
X158966801Y-27203352D01*
X158847930Y-27084481D01*
X158847929Y-27084480D01*
X158761117Y-27034360D01*
X158761117Y-27034359D01*
X158761113Y-27034358D01*
X158710998Y-27005423D01*
X158558270Y-26964499D01*
X158400156Y-26964499D01*
X158392560Y-26964499D01*
X158392544Y-26964500D01*
X139521670Y-26964500D01*
X139521654Y-26964499D01*
X139514058Y-26964499D01*
X139355943Y-26964499D01*
X139279579Y-26984961D01*
X139203214Y-27005423D01*
X139203209Y-27005426D01*
X139066290Y-27084475D01*
X139066282Y-27084481D01*
X138835481Y-27315282D01*
X138821595Y-27323299D01*
X138812339Y-27333482D01*
X138779895Y-27347376D01*
X138731757Y-27360275D01*
X138699662Y-27364500D01*
X137999645Y-27364500D01*
X137930033Y-27370825D01*
X137930022Y-27370828D01*
X137769824Y-27420747D01*
X137769820Y-27420749D01*
X137626222Y-27507556D01*
X137626217Y-27507560D01*
X137507560Y-27626217D01*
X137507556Y-27626222D01*
X137420750Y-27769819D01*
X137370826Y-27930032D01*
X137364500Y-27999655D01*
X137364500Y-29000354D01*
X137370825Y-29069964D01*
X137370826Y-29069968D01*
X137370827Y-29069971D01*
X137393885Y-29143968D01*
X137399500Y-29180856D01*
X137399500Y-31689694D01*
X137399499Y-31689712D01*
X137399499Y-31855418D01*
X137399498Y-31855418D01*
X137399516Y-31855484D01*
X137440423Y-32008149D01*
X137448701Y-32022487D01*
X137448702Y-32022490D01*
X137448703Y-32022490D01*
X137519477Y-32145076D01*
X137519481Y-32145081D01*
X137638349Y-32263949D01*
X137638355Y-32263954D01*
X138062219Y-32687819D01*
X138072831Y-32707255D01*
X138087332Y-32723989D01*
X138089248Y-32737320D01*
X138095704Y-32749142D01*
X138094124Y-32771228D01*
X138097276Y-32793147D01*
X138091680Y-32805398D01*
X138090720Y-32818834D01*
X138077449Y-32836560D01*
X138068251Y-32856703D01*
X138056919Y-32863985D01*
X138048848Y-32874767D01*
X138028102Y-32882504D01*
X138009473Y-32894477D01*
X137987554Y-32897628D01*
X137983384Y-32899184D01*
X137974538Y-32899500D01*
X137937598Y-32899500D01*
X137870559Y-32879815D01*
X137849917Y-32863181D01*
X134511429Y-29524694D01*
X134477944Y-29463371D01*
X134482928Y-29393679D01*
X134492986Y-29372876D01*
X134579251Y-29230178D01*
X134629173Y-29069971D01*
X134635500Y-29000347D01*
X134635499Y-27999654D01*
X134635499Y-27999653D01*
X134635499Y-27999645D01*
X134629174Y-27930033D01*
X134629171Y-27930022D01*
X134579252Y-27769824D01*
X134579250Y-27769820D01*
X134492443Y-27626222D01*
X134492439Y-27626217D01*
X134373782Y-27507560D01*
X134373777Y-27507556D01*
X134230180Y-27420750D01*
X134230179Y-27420749D01*
X134230178Y-27420749D01*
X134069971Y-27370827D01*
X134069969Y-27370826D01*
X134069967Y-27370826D01*
X134021221Y-27366396D01*
X134000347Y-27364500D01*
X134000344Y-27364500D01*
X132999645Y-27364500D01*
X132930033Y-27370825D01*
X132930022Y-27370828D01*
X132769824Y-27420747D01*
X132769820Y-27420749D01*
X132626222Y-27507556D01*
X132626217Y-27507560D01*
X132507559Y-27626218D01*
X132480617Y-27670787D01*
X132429089Y-27717974D01*
X132360230Y-27729813D01*
X132295901Y-27702544D01*
X132256527Y-27644825D01*
X132250500Y-27606637D01*
X132250500Y-24414500D01*
X132270185Y-24347461D01*
X132322989Y-24301706D01*
X132374500Y-24290500D01*
X168625500Y-24290500D01*
X168692539Y-24310185D01*
G37*
%TD.AperFunction*%
%TA.AperFunction,NonConductor*%
G36*
X163895698Y-61692294D02*
G01*
X163901960Y-61691119D01*
X163928819Y-61702020D01*
X163956625Y-61710185D01*
X163960795Y-61714998D01*
X163966701Y-61717395D01*
X163983405Y-61741091D01*
X164002380Y-61762989D01*
X164003286Y-61769293D01*
X164006958Y-61774502D01*
X164008199Y-61803460D01*
X164012324Y-61832147D01*
X164009677Y-61837942D01*
X164009950Y-61844307D01*
X163995340Y-61869336D01*
X163983299Y-61895703D01*
X163977133Y-61900527D01*
X163974728Y-61904649D01*
X163945881Y-61924985D01*
X163870800Y-61963240D01*
X163786309Y-62024627D01*
X163717927Y-62074310D01*
X163717925Y-62074312D01*
X163717924Y-62074312D01*
X163584312Y-62207924D01*
X163584312Y-62207925D01*
X163584310Y-62207927D01*
X163541391Y-62267000D01*
X163473240Y-62360800D01*
X163387454Y-62529165D01*
X163329059Y-62708885D01*
X163321481Y-62756732D01*
X163291552Y-62819867D01*
X163232240Y-62856798D01*
X163162377Y-62855800D01*
X163104145Y-62817190D01*
X163080622Y-62774223D01*
X163079250Y-62769820D01*
X162992443Y-62626222D01*
X162992439Y-62626217D01*
X162953903Y-62587681D01*
X162920418Y-62526358D01*
X162925402Y-62456666D01*
X162953903Y-62412319D01*
X162971313Y-62394909D01*
X162992439Y-62373783D01*
X163000288Y-62360800D01*
X163054968Y-62270347D01*
X163079251Y-62230178D01*
X163129173Y-62069971D01*
X163135500Y-62000347D01*
X163135500Y-61814500D01*
X163155185Y-61747461D01*
X163207989Y-61701706D01*
X163259500Y-61690500D01*
X163889586Y-61690500D01*
X163895698Y-61692294D01*
G37*
%TD.AperFunction*%
%TA.AperFunction,NonConductor*%
G36*
X137732515Y-63306799D02*
G01*
X137734627Y-63308862D01*
X138363181Y-63937416D01*
X138396666Y-63998739D01*
X138399500Y-64025097D01*
X138399500Y-67289099D01*
X138379815Y-67356138D01*
X138327011Y-67401893D01*
X138312398Y-67407481D01*
X138269822Y-67420749D01*
X138269819Y-67420750D01*
X138126222Y-67507556D01*
X138126216Y-67507561D01*
X138087680Y-67546097D01*
X138026357Y-67579582D01*
X137956665Y-67574596D01*
X137912320Y-67546097D01*
X137873783Y-67507561D01*
X137873777Y-67507556D01*
X137730180Y-67420750D01*
X137730179Y-67420749D01*
X137730178Y-67420749D01*
X137687608Y-67407483D01*
X137629462Y-67368747D01*
X137601488Y-67304722D01*
X137600500Y-67289099D01*
X137600500Y-63814059D01*
X137600501Y-63814046D01*
X137600501Y-63645945D01*
X137600501Y-63645943D01*
X137559577Y-63493215D01*
X137559575Y-63493212D01*
X137559575Y-63493210D01*
X137559574Y-63493209D01*
X137539560Y-63458544D01*
X137523086Y-63390644D01*
X137545938Y-63324617D01*
X137600858Y-63281426D01*
X137670412Y-63274784D01*
X137732515Y-63306799D01*
G37*
%TD.AperFunction*%
%TA.AperFunction,NonConductor*%
G36*
X165756942Y-63610185D02*
G01*
X165777584Y-63626819D01*
X165828181Y-63677416D01*
X165861666Y-63738739D01*
X165864500Y-63765096D01*
X165864500Y-64000354D01*
X165870825Y-64069966D01*
X165870828Y-64069977D01*
X165920747Y-64230175D01*
X165920749Y-64230179D01*
X166007556Y-64373777D01*
X166007560Y-64373782D01*
X166126217Y-64492439D01*
X166126222Y-64492443D01*
X166269820Y-64579250D01*
X166269822Y-64579251D01*
X166312389Y-64592515D01*
X166370536Y-64631250D01*
X166398512Y-64695275D01*
X166399500Y-64710900D01*
X166399500Y-72199903D01*
X166379815Y-72266942D01*
X166363181Y-72287584D01*
X163384171Y-75266593D01*
X163322848Y-75300078D01*
X163253156Y-75295094D01*
X163197223Y-75253222D01*
X163174017Y-75198312D01*
X163170940Y-75178882D01*
X163112547Y-74999168D01*
X163112545Y-74999165D01*
X163112545Y-74999163D01*
X163026759Y-74830800D01*
X162915690Y-74677927D01*
X162782073Y-74544310D01*
X162737649Y-74512034D01*
X162651614Y-74449525D01*
X162608948Y-74394194D01*
X162600500Y-74349207D01*
X162600500Y-68920945D01*
X162600500Y-68920943D01*
X162559577Y-68768216D01*
X162559577Y-68768215D01*
X162559577Y-68768214D01*
X162530639Y-68718095D01*
X162530637Y-68718092D01*
X162480520Y-68631284D01*
X162368716Y-68519480D01*
X162368715Y-68519479D01*
X162364385Y-68515149D01*
X162364374Y-68515139D01*
X159169860Y-65320625D01*
X159136375Y-65259302D01*
X159135068Y-65213546D01*
X159149981Y-65119394D01*
X159154500Y-65090861D01*
X159154500Y-64909139D01*
X159126072Y-64729654D01*
X159126071Y-64729650D01*
X159126071Y-64729649D01*
X159069918Y-64556828D01*
X159069916Y-64556825D01*
X159024007Y-64466722D01*
X158987417Y-64394910D01*
X158916560Y-64297385D01*
X158893081Y-64231580D01*
X158908906Y-64163526D01*
X158959012Y-64114831D01*
X159016879Y-64100500D01*
X160789099Y-64100500D01*
X160856138Y-64120185D01*
X160901893Y-64172989D01*
X160907481Y-64187601D01*
X160920748Y-64230175D01*
X160920750Y-64230180D01*
X161007556Y-64373777D01*
X161007560Y-64373782D01*
X161126217Y-64492439D01*
X161126222Y-64492443D01*
X161232725Y-64556825D01*
X161269822Y-64579251D01*
X161430029Y-64629173D01*
X161499653Y-64635500D01*
X162500346Y-64635499D01*
X162500353Y-64635499D01*
X162569966Y-64629174D01*
X162569969Y-64629173D01*
X162569971Y-64629173D01*
X162687615Y-64592514D01*
X162730175Y-64579252D01*
X162730175Y-64579251D01*
X162730178Y-64579251D01*
X162804089Y-64534570D01*
X162873777Y-64492443D01*
X162873778Y-64492441D01*
X162873783Y-64492439D01*
X162992439Y-64373783D01*
X163079251Y-64230178D01*
X163092516Y-64187608D01*
X163106620Y-64166437D01*
X163117188Y-64143297D01*
X163125665Y-64137848D01*
X163131253Y-64129462D01*
X163154565Y-64119276D01*
X163175966Y-64105523D01*
X163190985Y-64103363D01*
X163195278Y-64101488D01*
X163210901Y-64100500D01*
X163413331Y-64100500D01*
X163413347Y-64100501D01*
X163420943Y-64100501D01*
X163579054Y-64100501D01*
X163579057Y-64100501D01*
X163731785Y-64059577D01*
X163778040Y-64032869D01*
X163845934Y-64016395D01*
X163896333Y-64029769D01*
X163975224Y-64069966D01*
X164039163Y-64102545D01*
X164039165Y-64102545D01*
X164039168Y-64102547D01*
X164091024Y-64119396D01*
X164218881Y-64160940D01*
X164405514Y-64190500D01*
X164405519Y-64190500D01*
X164594486Y-64190500D01*
X164781118Y-64160940D01*
X164852187Y-64137848D01*
X164960832Y-64102547D01*
X164964850Y-64100500D01*
X165024766Y-64069971D01*
X165129199Y-64016760D01*
X165282073Y-63905690D01*
X165415690Y-63772073D01*
X165510475Y-63641613D01*
X165514806Y-63638273D01*
X165517079Y-63633297D01*
X165542178Y-63617166D01*
X165565804Y-63598949D01*
X165572475Y-63597696D01*
X165575857Y-63595523D01*
X165610792Y-63590500D01*
X165689903Y-63590500D01*
X165756942Y-63610185D01*
G37*
%TD.AperFunction*%
%TA.AperFunction,NonConductor*%
G36*
X138043334Y-69425402D02*
G01*
X138087681Y-69453903D01*
X138126217Y-69492439D01*
X138126222Y-69492443D01*
X138269820Y-69579250D01*
X138269822Y-69579251D01*
X138312389Y-69592515D01*
X138370536Y-69631250D01*
X138398512Y-69695275D01*
X138399500Y-69710900D01*
X138399500Y-75913330D01*
X138399499Y-75913348D01*
X138399499Y-76079054D01*
X138399498Y-76079054D01*
X138411656Y-76124427D01*
X138440423Y-76231785D01*
X138440424Y-76231787D01*
X138440423Y-76231787D01*
X138446361Y-76242071D01*
X138446365Y-76242076D01*
X138460441Y-76266457D01*
X138476912Y-76334358D01*
X138454060Y-76400384D01*
X138399138Y-76443574D01*
X138329584Y-76450215D01*
X138267482Y-76418198D01*
X138265372Y-76416137D01*
X137636819Y-75787584D01*
X137603334Y-75726261D01*
X137600500Y-75699903D01*
X137600500Y-69710900D01*
X137620185Y-69643861D01*
X137672989Y-69598106D01*
X137687602Y-69592517D01*
X137730178Y-69579251D01*
X137804089Y-69534570D01*
X137873777Y-69492443D01*
X137873778Y-69492441D01*
X137873783Y-69492439D01*
X137912319Y-69453903D01*
X137973642Y-69420418D01*
X138043334Y-69425402D01*
G37*
%TD.AperFunction*%
%TA.AperFunction,NonConductor*%
G36*
X167800573Y-64575340D02*
G01*
X167808095Y-64575193D01*
X167831845Y-64589806D01*
X167857157Y-64601515D01*
X167861193Y-64607864D01*
X167867602Y-64611807D01*
X167879683Y-64636944D01*
X167894645Y-64660476D01*
X167896166Y-64671239D01*
X167897868Y-64674781D01*
X167897306Y-64679312D01*
X167899500Y-64694832D01*
X167899500Y-78699902D01*
X167879815Y-78766941D01*
X167863181Y-78787583D01*
X165287584Y-81363181D01*
X165226261Y-81396666D01*
X165199903Y-81399500D01*
X163102800Y-81399500D01*
X163035761Y-81379815D01*
X162990006Y-81327011D01*
X162980062Y-81257853D01*
X163002483Y-81202614D01*
X163026757Y-81169203D01*
X163026756Y-81169203D01*
X163026760Y-81169199D01*
X163112547Y-81000832D01*
X163170940Y-80821118D01*
X163176550Y-80785699D01*
X163200500Y-80634486D01*
X163200500Y-80445513D01*
X163170940Y-80258881D01*
X163112545Y-80079163D01*
X163041382Y-79939499D01*
X163026760Y-79910801D01*
X162915690Y-79757927D01*
X162782073Y-79624310D01*
X162629199Y-79513240D01*
X162460836Y-79427454D01*
X162281118Y-79369059D01*
X162094486Y-79339500D01*
X162094481Y-79339500D01*
X161905519Y-79339500D01*
X161905514Y-79339500D01*
X161718881Y-79369059D01*
X161539163Y-79427454D01*
X161370800Y-79513240D01*
X161283579Y-79576610D01*
X161217927Y-79624310D01*
X161217925Y-79624312D01*
X161217924Y-79624312D01*
X161084312Y-79757924D01*
X161084312Y-79757925D01*
X161084310Y-79757927D01*
X160989526Y-79888386D01*
X160934196Y-79931051D01*
X160889208Y-79939500D01*
X160709097Y-79939500D01*
X160642058Y-79919815D01*
X160596303Y-79867011D01*
X160586359Y-79797853D01*
X160615384Y-79734297D01*
X160621416Y-79727819D01*
X161649333Y-78699902D01*
X167368713Y-72980521D01*
X167368716Y-72980520D01*
X167480520Y-72868716D01*
X167530639Y-72781904D01*
X167559577Y-72731785D01*
X167600500Y-72579057D01*
X167600500Y-72420943D01*
X167600500Y-64710900D01*
X167607614Y-64686671D01*
X167610717Y-64661611D01*
X167617291Y-64653716D01*
X167620185Y-64643861D01*
X167639266Y-64627326D01*
X167655427Y-64607920D01*
X167669359Y-64601250D01*
X167672989Y-64598106D01*
X167687235Y-64592632D01*
X167730178Y-64579251D01*
X167730691Y-64578940D01*
X167738238Y-64576563D01*
X167766117Y-64576016D01*
X167793743Y-64572181D01*
X167800573Y-64575340D01*
G37*
%TD.AperFunction*%
%TA.AperFunction,NonConductor*%
G36*
X143168834Y-35282914D02*
G01*
X143224767Y-35324786D01*
X143249184Y-35390250D01*
X143249500Y-35399096D01*
X143249500Y-41049829D01*
X143287636Y-41141897D01*
X143358103Y-41212364D01*
X143450172Y-41250500D01*
X143549828Y-41250500D01*
X157275500Y-41250500D01*
X157342539Y-41270185D01*
X157388294Y-41322989D01*
X157399500Y-41374500D01*
X157399500Y-57946067D01*
X157379815Y-58013106D01*
X157348386Y-58046385D01*
X157247892Y-58119398D01*
X157119399Y-58247891D01*
X157119399Y-58247892D01*
X157119397Y-58247894D01*
X157073525Y-58311030D01*
X157012583Y-58394909D01*
X156930083Y-58556825D01*
X156930081Y-58556828D01*
X156873928Y-58729649D01*
X156873928Y-58729652D01*
X156845500Y-58909139D01*
X156845500Y-59090860D01*
X156873928Y-59270347D01*
X156873928Y-59270350D01*
X156930081Y-59443171D01*
X156930083Y-59443174D01*
X157012583Y-59605090D01*
X157119397Y-59752106D01*
X157119399Y-59752108D01*
X157247894Y-59880603D01*
X157274155Y-59899683D01*
X157316820Y-59955014D01*
X157322798Y-60024627D01*
X157290191Y-60086422D01*
X157274155Y-60100317D01*
X157247894Y-60119396D01*
X157119399Y-60247891D01*
X157119399Y-60247892D01*
X157119397Y-60247894D01*
X157103085Y-60270346D01*
X157012583Y-60394909D01*
X156930083Y-60556825D01*
X156930081Y-60556828D01*
X156873928Y-60729649D01*
X156873928Y-60729652D01*
X156845500Y-60909139D01*
X156845500Y-61090860D01*
X156873928Y-61270347D01*
X156873928Y-61270350D01*
X156930081Y-61443171D01*
X156930083Y-61443174D01*
X157012583Y-61605090D01*
X157119397Y-61752106D01*
X157119399Y-61752108D01*
X157247894Y-61880603D01*
X157274155Y-61899683D01*
X157316820Y-61955014D01*
X157322798Y-62024627D01*
X157290191Y-62086422D01*
X157274155Y-62100317D01*
X157247894Y-62119396D01*
X157119399Y-62247891D01*
X157119399Y-62247892D01*
X157119397Y-62247894D01*
X157105516Y-62267000D01*
X157012583Y-62394909D01*
X156930083Y-62556825D01*
X156930081Y-62556828D01*
X156873928Y-62729649D01*
X156873928Y-62729652D01*
X156845500Y-62909139D01*
X156845500Y-63090860D01*
X156873928Y-63270347D01*
X156873928Y-63270350D01*
X156930081Y-63443171D01*
X156930083Y-63443174D01*
X157012583Y-63605090D01*
X157119397Y-63752106D01*
X157119399Y-63752108D01*
X157247894Y-63880603D01*
X157274155Y-63899683D01*
X157316820Y-63955014D01*
X157322798Y-64024627D01*
X157290191Y-64086422D01*
X157274155Y-64100317D01*
X157247894Y-64119396D01*
X157119399Y-64247891D01*
X157119399Y-64247892D01*
X157119397Y-64247894D01*
X157103085Y-64270346D01*
X157012583Y-64394909D01*
X156930083Y-64556825D01*
X156930081Y-64556828D01*
X156873928Y-64729649D01*
X156873928Y-64729652D01*
X156845500Y-64909139D01*
X156845500Y-65090860D01*
X156873928Y-65270347D01*
X156873928Y-65270350D01*
X156930081Y-65443171D01*
X156930083Y-65443174D01*
X157012583Y-65605090D01*
X157119397Y-65752106D01*
X157247894Y-65880603D01*
X157394910Y-65987417D01*
X157556826Y-66069917D01*
X157556828Y-66069918D01*
X157621282Y-66090860D01*
X157729654Y-66126072D01*
X157909139Y-66154500D01*
X157909140Y-66154500D01*
X158090860Y-66154500D01*
X158090861Y-66154500D01*
X158213547Y-66135068D01*
X158282839Y-66144022D01*
X158320625Y-66169860D01*
X161363181Y-69212416D01*
X161396666Y-69273739D01*
X161399500Y-69300097D01*
X161399500Y-74349207D01*
X161379815Y-74416246D01*
X161348386Y-74449525D01*
X161217925Y-74544311D01*
X161084312Y-74677924D01*
X161084312Y-74677925D01*
X161084310Y-74677927D01*
X161036610Y-74743579D01*
X160973240Y-74830800D01*
X160887454Y-74999163D01*
X160829059Y-75178881D01*
X160799500Y-75365513D01*
X160799500Y-75554486D01*
X160829059Y-75741118D01*
X160887454Y-75920836D01*
X160968071Y-76079054D01*
X160973240Y-76089199D01*
X161084310Y-76242073D01*
X161217927Y-76375690D01*
X161370801Y-76486760D01*
X161450347Y-76527290D01*
X161539163Y-76572545D01*
X161539165Y-76572545D01*
X161539168Y-76572547D01*
X161642976Y-76606276D01*
X161718875Y-76630938D01*
X161718876Y-76630938D01*
X161718882Y-76630940D01*
X161738311Y-76634017D01*
X161801444Y-76663945D01*
X161838376Y-76723257D01*
X161837378Y-76793119D01*
X161806593Y-76844171D01*
X155787584Y-82863181D01*
X155726261Y-82896666D01*
X155699903Y-82899500D01*
X146800098Y-82899500D01*
X146733059Y-82879815D01*
X146712417Y-82863181D01*
X139636819Y-75787583D01*
X139603334Y-75726260D01*
X139600500Y-75699902D01*
X139600500Y-69710900D01*
X139620185Y-69643861D01*
X139672989Y-69598106D01*
X139687602Y-69592517D01*
X139730178Y-69579251D01*
X139804089Y-69534570D01*
X139873777Y-69492443D01*
X139873778Y-69492441D01*
X139873783Y-69492439D01*
X139992439Y-69373783D01*
X140000001Y-69361275D01*
X140020254Y-69327770D01*
X140079251Y-69230178D01*
X140129173Y-69069971D01*
X140135500Y-69000347D01*
X140135499Y-67999654D01*
X140135499Y-67999653D01*
X140135499Y-67999645D01*
X140129174Y-67930033D01*
X140129171Y-67930022D01*
X140079252Y-67769824D01*
X140079250Y-67769820D01*
X139992443Y-67626222D01*
X139992439Y-67626217D01*
X139873782Y-67507560D01*
X139873777Y-67507556D01*
X139730180Y-67420750D01*
X139730179Y-67420749D01*
X139730178Y-67420749D01*
X139687608Y-67407483D01*
X139629462Y-67368747D01*
X139601488Y-67304722D01*
X139600500Y-67289099D01*
X139600500Y-63645945D01*
X139600499Y-63645941D01*
X139597111Y-63633297D01*
X139593334Y-63619199D01*
X139559577Y-63493215D01*
X139520750Y-63425965D01*
X139480520Y-63356284D01*
X139368716Y-63244480D01*
X139368715Y-63244479D01*
X139364385Y-63240149D01*
X139364374Y-63240139D01*
X135557360Y-59433125D01*
X135523875Y-59371802D01*
X135522568Y-59326046D01*
X135534947Y-59247894D01*
X135542000Y-59203361D01*
X135542000Y-59021639D01*
X135513572Y-58842154D01*
X135513571Y-58842150D01*
X135513571Y-58842149D01*
X135457418Y-58669328D01*
X135457415Y-58669320D01*
X135436088Y-58627465D01*
X135423191Y-58558795D01*
X135449467Y-58494055D01*
X135506573Y-58453797D01*
X135576379Y-58450805D01*
X135634253Y-58483488D01*
X142830139Y-65679374D01*
X142863624Y-65740697D01*
X142864931Y-65786452D01*
X142845500Y-65909138D01*
X142845500Y-66090860D01*
X142873928Y-66270347D01*
X142873928Y-66270350D01*
X142930081Y-66443171D01*
X142930083Y-66443174D01*
X143012583Y-66605090D01*
X143119397Y-66752106D01*
X143247894Y-66880603D01*
X143394910Y-66987417D01*
X143556826Y-67069917D01*
X143556828Y-67069918D01*
X143718029Y-67122294D01*
X143729654Y-67126072D01*
X143909139Y-67154500D01*
X143909140Y-67154500D01*
X144090860Y-67154500D01*
X144090861Y-67154500D01*
X144270346Y-67126072D01*
X144270349Y-67126071D01*
X144270350Y-67126071D01*
X144443171Y-67069918D01*
X144443171Y-67069917D01*
X144443174Y-67069917D01*
X144605090Y-66987417D01*
X144752106Y-66880603D01*
X144880603Y-66752106D01*
X144987417Y-66605090D01*
X145069917Y-66443174D01*
X145126072Y-66270346D01*
X145154500Y-66090861D01*
X145154500Y-65909139D01*
X145126072Y-65729654D01*
X145126071Y-65729650D01*
X145126071Y-65729649D01*
X145069918Y-65556828D01*
X145069916Y-65556825D01*
X145012009Y-65443174D01*
X144987417Y-65394910D01*
X144880603Y-65247894D01*
X144752106Y-65119397D01*
X144725845Y-65100317D01*
X144683180Y-65044988D01*
X144677201Y-64975375D01*
X144709807Y-64913580D01*
X144725846Y-64899682D01*
X144752106Y-64880603D01*
X144880603Y-64752106D01*
X144987417Y-64605090D01*
X145069917Y-64443174D01*
X145085599Y-64394909D01*
X145126071Y-64270350D01*
X145126071Y-64270349D01*
X145126072Y-64270346D01*
X145154500Y-64090861D01*
X145154500Y-63909139D01*
X145126072Y-63729654D01*
X145126071Y-63729650D01*
X145126071Y-63729649D01*
X145069918Y-63556828D01*
X145069916Y-63556825D01*
X145037506Y-63493215D01*
X144987417Y-63394910D01*
X144880603Y-63247894D01*
X144752106Y-63119397D01*
X144725845Y-63100317D01*
X144683180Y-63044988D01*
X144677201Y-62975375D01*
X144709807Y-62913580D01*
X144725846Y-62899682D01*
X144752106Y-62880603D01*
X144880603Y-62752106D01*
X144987417Y-62605090D01*
X145069917Y-62443174D01*
X145087357Y-62389499D01*
X145126071Y-62270350D01*
X145126071Y-62270349D01*
X145126072Y-62270346D01*
X145154500Y-62090861D01*
X145154500Y-61909139D01*
X145126072Y-61729654D01*
X145126071Y-61729650D01*
X145126071Y-61729649D01*
X145069918Y-61556828D01*
X145069916Y-61556825D01*
X145069329Y-61555671D01*
X144987417Y-61394910D01*
X144880603Y-61247894D01*
X144752106Y-61119397D01*
X144725845Y-61100317D01*
X144683180Y-61044988D01*
X144677201Y-60975375D01*
X144709807Y-60913580D01*
X144725846Y-60899682D01*
X144752106Y-60880603D01*
X144880603Y-60752106D01*
X144987417Y-60605090D01*
X145069917Y-60443174D01*
X145096814Y-60360394D01*
X145126071Y-60270350D01*
X145126071Y-60270349D01*
X145126072Y-60270346D01*
X145154500Y-60090861D01*
X145154500Y-59909139D01*
X145126072Y-59729654D01*
X145126071Y-59729650D01*
X145126071Y-59729649D01*
X145069918Y-59556828D01*
X145069916Y-59556825D01*
X145069329Y-59555671D01*
X144987417Y-59394910D01*
X144880603Y-59247894D01*
X144752106Y-59119397D01*
X144605090Y-59012583D01*
X144443174Y-58930083D01*
X144443171Y-58930081D01*
X144270348Y-58873928D01*
X144139457Y-58853197D01*
X144090861Y-58845500D01*
X143909139Y-58845500D01*
X143786452Y-58864931D01*
X143717159Y-58855976D01*
X143679374Y-58830139D01*
X142136819Y-57287584D01*
X142103334Y-57226261D01*
X142100500Y-57199903D01*
X142100500Y-49450170D01*
X145749500Y-49450170D01*
X145749500Y-76549829D01*
X145758910Y-76572547D01*
X145787636Y-76641897D01*
X145858103Y-76712364D01*
X145950172Y-76750500D01*
X145950174Y-76750500D01*
X156049826Y-76750500D01*
X156049828Y-76750500D01*
X156141897Y-76712364D01*
X156212364Y-76641897D01*
X156250500Y-76549828D01*
X156250500Y-49450172D01*
X156212364Y-49358103D01*
X156141897Y-49287636D01*
X156049829Y-49249500D01*
X156049828Y-49249500D01*
X146049828Y-49249500D01*
X145950172Y-49249500D01*
X145950170Y-49249500D01*
X145858102Y-49287636D01*
X145787636Y-49358102D01*
X145749500Y-49450170D01*
X142100500Y-49450170D01*
X142100500Y-39710900D01*
X142120185Y-39643861D01*
X142172989Y-39598106D01*
X142187602Y-39592517D01*
X142230178Y-39579251D01*
X142304089Y-39534570D01*
X142373777Y-39492443D01*
X142373778Y-39492441D01*
X142373783Y-39492439D01*
X142492439Y-39373783D01*
X142579251Y-39230178D01*
X142629173Y-39069971D01*
X142635500Y-39000347D01*
X142635499Y-37999654D01*
X142635499Y-37999653D01*
X142635499Y-37999645D01*
X142629174Y-37930033D01*
X142629171Y-37930022D01*
X142579252Y-37769824D01*
X142579250Y-37769820D01*
X142492443Y-37626222D01*
X142492439Y-37626217D01*
X142373782Y-37507560D01*
X142373777Y-37507556D01*
X142230180Y-37420750D01*
X142230179Y-37420749D01*
X142230178Y-37420749D01*
X142069971Y-37370827D01*
X142069966Y-37370826D01*
X142063707Y-37368876D01*
X142064405Y-37366632D01*
X142012017Y-37339216D01*
X141977454Y-37278494D01*
X141981207Y-37208725D01*
X142022084Y-37152061D01*
X142064235Y-37132821D01*
X142063707Y-37131126D01*
X142230175Y-37079252D01*
X142230175Y-37079251D01*
X142230178Y-37079251D01*
X142304089Y-37034570D01*
X142373777Y-36992443D01*
X142373778Y-36992441D01*
X142373783Y-36992439D01*
X142492439Y-36873783D01*
X142579251Y-36730178D01*
X142629173Y-36569971D01*
X142635500Y-36500347D01*
X142635499Y-35765095D01*
X142655183Y-35698057D01*
X142671813Y-35677420D01*
X143037819Y-35311415D01*
X143099142Y-35277930D01*
X143168834Y-35282914D01*
G37*
%TD.AperFunction*%
%TA.AperFunction,NonConductor*%
G36*
X167697807Y-80714326D02*
G01*
X167730603Y-80715497D01*
X167732488Y-80716806D01*
X167734778Y-80716970D01*
X167761036Y-80736627D01*
X167787995Y-80755345D01*
X167789557Y-80757978D01*
X167790711Y-80758842D01*
X167806005Y-80785699D01*
X167834914Y-80855491D01*
X167834919Y-80855501D01*
X167917048Y-80978415D01*
X167917051Y-80978419D01*
X168021580Y-81082948D01*
X168021584Y-81082951D01*
X168144498Y-81165080D01*
X168144511Y-81165087D01*
X168281082Y-81221656D01*
X168281087Y-81221658D01*
X168281091Y-81221658D01*
X168281092Y-81221659D01*
X168426079Y-81250500D01*
X168426082Y-81250500D01*
X168573919Y-81250500D01*
X168601308Y-81245052D01*
X168670899Y-81251279D01*
X168726077Y-81294141D01*
X168749322Y-81360031D01*
X168749500Y-81366669D01*
X168749500Y-83625500D01*
X168729815Y-83692539D01*
X168677011Y-83738294D01*
X168625500Y-83749500D01*
X160404123Y-83749500D01*
X160337084Y-83729815D01*
X160291329Y-83677011D01*
X160281385Y-83607853D01*
X160310410Y-83544297D01*
X160316442Y-83537819D01*
X161217442Y-82636819D01*
X161278765Y-82603334D01*
X161305123Y-82600500D01*
X165413331Y-82600500D01*
X165413347Y-82600501D01*
X165420943Y-82600501D01*
X165579054Y-82600501D01*
X165579057Y-82600501D01*
X165731785Y-82559577D01*
X165781904Y-82530639D01*
X165868716Y-82480520D01*
X165980520Y-82368716D01*
X165980520Y-82368714D01*
X165990728Y-82358507D01*
X165990729Y-82358504D01*
X167603765Y-80745469D01*
X167632563Y-80729744D01*
X167660778Y-80713004D01*
X167663071Y-80713085D01*
X167665086Y-80711986D01*
X167697807Y-80714326D01*
G37*
%TD.AperFunction*%
%TA.AperFunction,NonConductor*%
G36*
X146230969Y-84038113D02*
G01*
X146233533Y-84039552D01*
X146268216Y-84059577D01*
X146420943Y-84100501D01*
X146420945Y-84100501D01*
X146586654Y-84100501D01*
X146586670Y-84100500D01*
X154420943Y-84100500D01*
X155750903Y-84100500D01*
X155817942Y-84120185D01*
X155863697Y-84172989D01*
X155873641Y-84242147D01*
X155844616Y-84305703D01*
X155838584Y-84312181D01*
X154952584Y-85198181D01*
X154891261Y-85231666D01*
X154864903Y-85234500D01*
X153794499Y-85234500D01*
X153727460Y-85214815D01*
X153681705Y-85162011D01*
X153670499Y-85110500D01*
X153670499Y-84887129D01*
X153670498Y-84887123D01*
X153664091Y-84827516D01*
X153613797Y-84692671D01*
X153613793Y-84692664D01*
X153527547Y-84577455D01*
X153527544Y-84577452D01*
X153412335Y-84491206D01*
X153412328Y-84491202D01*
X153277482Y-84440908D01*
X153277483Y-84440908D01*
X153217883Y-84434501D01*
X153217881Y-84434500D01*
X153217873Y-84434500D01*
X153217864Y-84434500D01*
X151322129Y-84434500D01*
X151322123Y-84434501D01*
X151262516Y-84440908D01*
X151127671Y-84491202D01*
X151127664Y-84491206D01*
X151012455Y-84577452D01*
X151012452Y-84577455D01*
X150926206Y-84692664D01*
X150926203Y-84692669D01*
X150896398Y-84772581D01*
X150854526Y-84828514D01*
X150789062Y-84852931D01*
X150720789Y-84838079D01*
X150692535Y-84816928D01*
X150642363Y-84766756D01*
X150642358Y-84766752D01*
X150464025Y-84637187D01*
X150464024Y-84637186D01*
X150464022Y-84637185D01*
X150346791Y-84577452D01*
X150267606Y-84537104D01*
X150267603Y-84537103D01*
X150057952Y-84468985D01*
X149949086Y-84451742D01*
X149840222Y-84434500D01*
X149619778Y-84434500D01*
X149547201Y-84445995D01*
X149402047Y-84468985D01*
X149192396Y-84537103D01*
X149192393Y-84537104D01*
X148995974Y-84637187D01*
X148817641Y-84766752D01*
X148817636Y-84766756D01*
X148661756Y-84922636D01*
X148661752Y-84922641D01*
X148532185Y-85100976D01*
X148498648Y-85166796D01*
X148450674Y-85217591D01*
X148388164Y-85234500D01*
X147135097Y-85234500D01*
X147068058Y-85214815D01*
X147047416Y-85198181D01*
X146083861Y-84234626D01*
X146050376Y-84173303D01*
X146055360Y-84103611D01*
X146097232Y-84047678D01*
X146162696Y-84023261D01*
X146230969Y-84038113D01*
G37*
%TD.AperFunction*%
%TA.AperFunction,NonConductor*%
G36*
X155577272Y-86374066D02*
G01*
X155620465Y-86428985D01*
X155627110Y-86498538D01*
X155595097Y-86560642D01*
X155593031Y-86562758D01*
X155292609Y-86863181D01*
X155231286Y-86896666D01*
X155204928Y-86899500D01*
X153794500Y-86899500D01*
X153785814Y-86896949D01*
X153776853Y-86898238D01*
X153752812Y-86887259D01*
X153727461Y-86879815D01*
X153721533Y-86872974D01*
X153713297Y-86869213D01*
X153699007Y-86846978D01*
X153681706Y-86827011D01*
X153679418Y-86816496D01*
X153675523Y-86810435D01*
X153670500Y-86775500D01*
X153670500Y-86559500D01*
X153690185Y-86492461D01*
X153742989Y-86446706D01*
X153794500Y-86435500D01*
X155078331Y-86435500D01*
X155078347Y-86435501D01*
X155085943Y-86435501D01*
X155244054Y-86435501D01*
X155244057Y-86435501D01*
X155396785Y-86394577D01*
X155443347Y-86367692D01*
X155511244Y-86351217D01*
X155577272Y-86374066D01*
G37*
%TD.AperFunction*%
%TA.AperFunction,NonConductor*%
G36*
X159168834Y-84787939D02*
G01*
X159224767Y-84829811D01*
X159249184Y-84895275D01*
X159249500Y-84904121D01*
X159249500Y-88165500D01*
X159229815Y-88232539D01*
X159177011Y-88278294D01*
X159125500Y-88289500D01*
X155801346Y-88289500D01*
X155798417Y-88288640D01*
X155795450Y-88289360D01*
X155765099Y-88278856D01*
X155734307Y-88269815D01*
X155732308Y-88267509D01*
X155729422Y-88266510D01*
X155709565Y-88241261D01*
X155688552Y-88217011D01*
X155688117Y-88213990D01*
X155686230Y-88211590D01*
X155683176Y-88179628D01*
X155678608Y-88147853D01*
X155679876Y-88145075D01*
X155679586Y-88142037D01*
X155694295Y-88113501D01*
X155707633Y-88084297D01*
X155710623Y-88081828D01*
X155711600Y-88079933D01*
X155739342Y-88058115D01*
X155786929Y-88030639D01*
X155873741Y-87980520D01*
X155985545Y-87868716D01*
X155985545Y-87868714D01*
X155995753Y-87858507D01*
X155995754Y-87858504D01*
X159037821Y-84816438D01*
X159099142Y-84782955D01*
X159168834Y-84787939D01*
G37*
%TD.AperFunction*%
M02*
