%TF.GenerationSoftware,KiCad,Pcbnew,10.0.4*%
%TF.CreationDate,2026-07-08T09:23:37+02:00*%
%TF.ProjectId,mouse1-1,6d6f7573-6531-42d3-912e-6b696361645f,07/07/2026*%
%TF.SameCoordinates,Original*%
%TF.FileFunction,Legend,Top*%
%TF.FilePolarity,Positive*%
%FSLAX46Y46*%
G04 Gerber Fmt 4.6, Leading zero omitted, Abs format (unit mm)*
G04 Created by KiCad (PCBNEW 10.0.4) date 2026-07-08 09:23:37*
%MOMM*%
%LPD*%
G01*
G04 APERTURE LIST*
%ADD10C,0.150000*%
%ADD11C,0.100000*%
%ADD12C,0.125000*%
%ADD13C,0.120000*%
G04 APERTURE END LIST*
D10*
X148476190Y-42078418D02*
X148380952Y-42030799D01*
X148380952Y-42030799D02*
X148333333Y-41983180D01*
X148333333Y-41983180D02*
X148285714Y-41887942D01*
X148285714Y-41887942D02*
X148285714Y-41840323D01*
X148285714Y-41840323D02*
X148333333Y-41745085D01*
X148333333Y-41745085D02*
X148380952Y-41697466D01*
X148380952Y-41697466D02*
X148476190Y-41649847D01*
X148476190Y-41649847D02*
X148666666Y-41649847D01*
X148666666Y-41649847D02*
X148761904Y-41697466D01*
X148761904Y-41697466D02*
X148809523Y-41745085D01*
X148809523Y-41745085D02*
X148857142Y-41840323D01*
X148857142Y-41840323D02*
X148857142Y-41887942D01*
X148857142Y-41887942D02*
X148809523Y-41983180D01*
X148809523Y-41983180D02*
X148761904Y-42030799D01*
X148761904Y-42030799D02*
X148666666Y-42078418D01*
X148666666Y-42078418D02*
X148476190Y-42078418D01*
X148476190Y-42078418D02*
X148380952Y-42126037D01*
X148380952Y-42126037D02*
X148333333Y-42173656D01*
X148333333Y-42173656D02*
X148285714Y-42268894D01*
X148285714Y-42268894D02*
X148285714Y-42459370D01*
X148285714Y-42459370D02*
X148333333Y-42554608D01*
X148333333Y-42554608D02*
X148380952Y-42602228D01*
X148380952Y-42602228D02*
X148476190Y-42649847D01*
X148476190Y-42649847D02*
X148666666Y-42649847D01*
X148666666Y-42649847D02*
X148761904Y-42602228D01*
X148761904Y-42602228D02*
X148809523Y-42554608D01*
X148809523Y-42554608D02*
X148857142Y-42459370D01*
X148857142Y-42459370D02*
X148857142Y-42268894D01*
X148857142Y-42268894D02*
X148809523Y-42173656D01*
X148809523Y-42173656D02*
X148761904Y-42126037D01*
X148761904Y-42126037D02*
X148666666Y-42078418D01*
X149190476Y-41649847D02*
X149857142Y-41649847D01*
X149857142Y-41649847D02*
X149428571Y-42649847D01*
X150142857Y-41649847D02*
X150761904Y-41649847D01*
X150761904Y-41649847D02*
X150428571Y-42030799D01*
X150428571Y-42030799D02*
X150571428Y-42030799D01*
X150571428Y-42030799D02*
X150666666Y-42078418D01*
X150666666Y-42078418D02*
X150714285Y-42126037D01*
X150714285Y-42126037D02*
X150761904Y-42221275D01*
X150761904Y-42221275D02*
X150761904Y-42459370D01*
X150761904Y-42459370D02*
X150714285Y-42554608D01*
X150714285Y-42554608D02*
X150666666Y-42602228D01*
X150666666Y-42602228D02*
X150571428Y-42649847D01*
X150571428Y-42649847D02*
X150285714Y-42649847D01*
X150285714Y-42649847D02*
X150190476Y-42602228D01*
X150190476Y-42602228D02*
X150142857Y-42554608D01*
X151095238Y-41649847D02*
X151714285Y-41649847D01*
X151714285Y-41649847D02*
X151380952Y-42030799D01*
X151380952Y-42030799D02*
X151523809Y-42030799D01*
X151523809Y-42030799D02*
X151619047Y-42078418D01*
X151619047Y-42078418D02*
X151666666Y-42126037D01*
X151666666Y-42126037D02*
X151714285Y-42221275D01*
X151714285Y-42221275D02*
X151714285Y-42459370D01*
X151714285Y-42459370D02*
X151666666Y-42554608D01*
X151666666Y-42554608D02*
X151619047Y-42602228D01*
X151619047Y-42602228D02*
X151523809Y-42649847D01*
X151523809Y-42649847D02*
X151238095Y-42649847D01*
X151238095Y-42649847D02*
X151142857Y-42602228D01*
X151142857Y-42602228D02*
X151095238Y-42554608D01*
X145904762Y-43355029D02*
X145952381Y-43307410D01*
X145952381Y-43307410D02*
X146047619Y-43259791D01*
X146047619Y-43259791D02*
X146285714Y-43259791D01*
X146285714Y-43259791D02*
X146380952Y-43307410D01*
X146380952Y-43307410D02*
X146428571Y-43355029D01*
X146428571Y-43355029D02*
X146476190Y-43450267D01*
X146476190Y-43450267D02*
X146476190Y-43545505D01*
X146476190Y-43545505D02*
X146428571Y-43688362D01*
X146428571Y-43688362D02*
X145857143Y-44259791D01*
X145857143Y-44259791D02*
X146476190Y-44259791D01*
X147095238Y-43259791D02*
X147190476Y-43259791D01*
X147190476Y-43259791D02*
X147285714Y-43307410D01*
X147285714Y-43307410D02*
X147333333Y-43355029D01*
X147333333Y-43355029D02*
X147380952Y-43450267D01*
X147380952Y-43450267D02*
X147428571Y-43640743D01*
X147428571Y-43640743D02*
X147428571Y-43878838D01*
X147428571Y-43878838D02*
X147380952Y-44069314D01*
X147380952Y-44069314D02*
X147333333Y-44164552D01*
X147333333Y-44164552D02*
X147285714Y-44212172D01*
X147285714Y-44212172D02*
X147190476Y-44259791D01*
X147190476Y-44259791D02*
X147095238Y-44259791D01*
X147095238Y-44259791D02*
X147000000Y-44212172D01*
X147000000Y-44212172D02*
X146952381Y-44164552D01*
X146952381Y-44164552D02*
X146904762Y-44069314D01*
X146904762Y-44069314D02*
X146857143Y-43878838D01*
X146857143Y-43878838D02*
X146857143Y-43640743D01*
X146857143Y-43640743D02*
X146904762Y-43450267D01*
X146904762Y-43450267D02*
X146952381Y-43355029D01*
X146952381Y-43355029D02*
X147000000Y-43307410D01*
X147000000Y-43307410D02*
X147095238Y-43259791D01*
X148380952Y-44259791D02*
X147809524Y-44259791D01*
X148095238Y-44259791D02*
X148095238Y-43259791D01*
X148095238Y-43259791D02*
X148000000Y-43402648D01*
X148000000Y-43402648D02*
X147904762Y-43497886D01*
X147904762Y-43497886D02*
X147809524Y-43545505D01*
X148761905Y-43355029D02*
X148809524Y-43307410D01*
X148809524Y-43307410D02*
X148904762Y-43259791D01*
X148904762Y-43259791D02*
X149142857Y-43259791D01*
X149142857Y-43259791D02*
X149238095Y-43307410D01*
X149238095Y-43307410D02*
X149285714Y-43355029D01*
X149285714Y-43355029D02*
X149333333Y-43450267D01*
X149333333Y-43450267D02*
X149333333Y-43545505D01*
X149333333Y-43545505D02*
X149285714Y-43688362D01*
X149285714Y-43688362D02*
X148714286Y-44259791D01*
X148714286Y-44259791D02*
X149333333Y-44259791D01*
X149761905Y-44164552D02*
X149809524Y-44212172D01*
X149809524Y-44212172D02*
X149761905Y-44259791D01*
X149761905Y-44259791D02*
X149714286Y-44212172D01*
X149714286Y-44212172D02*
X149761905Y-44164552D01*
X149761905Y-44164552D02*
X149761905Y-44259791D01*
X150428571Y-43259791D02*
X150523809Y-43259791D01*
X150523809Y-43259791D02*
X150619047Y-43307410D01*
X150619047Y-43307410D02*
X150666666Y-43355029D01*
X150666666Y-43355029D02*
X150714285Y-43450267D01*
X150714285Y-43450267D02*
X150761904Y-43640743D01*
X150761904Y-43640743D02*
X150761904Y-43878838D01*
X150761904Y-43878838D02*
X150714285Y-44069314D01*
X150714285Y-44069314D02*
X150666666Y-44164552D01*
X150666666Y-44164552D02*
X150619047Y-44212172D01*
X150619047Y-44212172D02*
X150523809Y-44259791D01*
X150523809Y-44259791D02*
X150428571Y-44259791D01*
X150428571Y-44259791D02*
X150333333Y-44212172D01*
X150333333Y-44212172D02*
X150285714Y-44164552D01*
X150285714Y-44164552D02*
X150238095Y-44069314D01*
X150238095Y-44069314D02*
X150190476Y-43878838D01*
X150190476Y-43878838D02*
X150190476Y-43640743D01*
X150190476Y-43640743D02*
X150238095Y-43450267D01*
X150238095Y-43450267D02*
X150285714Y-43355029D01*
X150285714Y-43355029D02*
X150333333Y-43307410D01*
X150333333Y-43307410D02*
X150428571Y-43259791D01*
X151142857Y-43355029D02*
X151190476Y-43307410D01*
X151190476Y-43307410D02*
X151285714Y-43259791D01*
X151285714Y-43259791D02*
X151523809Y-43259791D01*
X151523809Y-43259791D02*
X151619047Y-43307410D01*
X151619047Y-43307410D02*
X151666666Y-43355029D01*
X151666666Y-43355029D02*
X151714285Y-43450267D01*
X151714285Y-43450267D02*
X151714285Y-43545505D01*
X151714285Y-43545505D02*
X151666666Y-43688362D01*
X151666666Y-43688362D02*
X151095238Y-44259791D01*
X151095238Y-44259791D02*
X151714285Y-44259791D01*
X152142857Y-44164552D02*
X152190476Y-44212172D01*
X152190476Y-44212172D02*
X152142857Y-44259791D01*
X152142857Y-44259791D02*
X152095238Y-44212172D01*
X152095238Y-44212172D02*
X152142857Y-44164552D01*
X152142857Y-44164552D02*
X152142857Y-44259791D01*
X152809523Y-43259791D02*
X152904761Y-43259791D01*
X152904761Y-43259791D02*
X152999999Y-43307410D01*
X152999999Y-43307410D02*
X153047618Y-43355029D01*
X153047618Y-43355029D02*
X153095237Y-43450267D01*
X153095237Y-43450267D02*
X153142856Y-43640743D01*
X153142856Y-43640743D02*
X153142856Y-43878838D01*
X153142856Y-43878838D02*
X153095237Y-44069314D01*
X153095237Y-44069314D02*
X153047618Y-44164552D01*
X153047618Y-44164552D02*
X152999999Y-44212172D01*
X152999999Y-44212172D02*
X152904761Y-44259791D01*
X152904761Y-44259791D02*
X152809523Y-44259791D01*
X152809523Y-44259791D02*
X152714285Y-44212172D01*
X152714285Y-44212172D02*
X152666666Y-44164552D01*
X152666666Y-44164552D02*
X152619047Y-44069314D01*
X152619047Y-44069314D02*
X152571428Y-43878838D01*
X152571428Y-43878838D02*
X152571428Y-43640743D01*
X152571428Y-43640743D02*
X152619047Y-43450267D01*
X152619047Y-43450267D02*
X152666666Y-43355029D01*
X152666666Y-43355029D02*
X152714285Y-43307410D01*
X152714285Y-43307410D02*
X152809523Y-43259791D01*
X153476190Y-43259791D02*
X154095237Y-43259791D01*
X154095237Y-43259791D02*
X153761904Y-43640743D01*
X153761904Y-43640743D02*
X153904761Y-43640743D01*
X153904761Y-43640743D02*
X153999999Y-43688362D01*
X153999999Y-43688362D02*
X154047618Y-43735981D01*
X154047618Y-43735981D02*
X154095237Y-43831219D01*
X154095237Y-43831219D02*
X154095237Y-44069314D01*
X154095237Y-44069314D02*
X154047618Y-44164552D01*
X154047618Y-44164552D02*
X153999999Y-44212172D01*
X153999999Y-44212172D02*
X153904761Y-44259791D01*
X153904761Y-44259791D02*
X153619047Y-44259791D01*
X153619047Y-44259791D02*
X153523809Y-44212172D01*
X153523809Y-44212172D02*
X153476190Y-44164552D01*
D11*
X133000000Y-53000000D02*
X136000000Y-53000000D01*
X136000000Y-62000000D01*
X133000000Y-62000000D01*
X133000000Y-53000000D01*
X134200000Y-33500000D02*
G75*
G02*
X132000000Y-33500000I-1100000J0D01*
G01*
X132000000Y-33500000D02*
G75*
G02*
X134200000Y-33500000I1100000J0D01*
G01*
X134200000Y-78500000D02*
G75*
G02*
X132000000Y-78500000I-1100000J0D01*
G01*
X132000000Y-78500000D02*
G75*
G02*
X134200000Y-78500000I1100000J0D01*
G01*
X136500000Y-30000000D02*
X142500000Y-30000000D01*
X142500000Y-42000000D01*
X136500000Y-42000000D01*
X136500000Y-30000000D01*
X157500000Y-31500000D02*
X166500000Y-31500000D01*
X166500000Y-42500000D01*
X157500000Y-42500000D01*
X157500000Y-31500000D01*
X169100000Y-33500000D02*
G75*
G02*
X166900000Y-33500000I-1100000J0D01*
G01*
X166900000Y-33500000D02*
G75*
G02*
X169100000Y-33500000I1100000J0D01*
G01*
X169100000Y-78500000D02*
G75*
G02*
X166900000Y-78500000I-1100000J0D01*
G01*
X166900000Y-78500000D02*
G75*
G02*
X169100000Y-78500000I1100000J0D01*
G01*
D12*
X166833333Y-65555908D02*
X166785714Y-65603528D01*
X166785714Y-65603528D02*
X166642857Y-65651147D01*
X166642857Y-65651147D02*
X166547619Y-65651147D01*
X166547619Y-65651147D02*
X166404762Y-65603528D01*
X166404762Y-65603528D02*
X166309524Y-65508289D01*
X166309524Y-65508289D02*
X166261905Y-65413051D01*
X166261905Y-65413051D02*
X166214286Y-65222575D01*
X166214286Y-65222575D02*
X166214286Y-65079718D01*
X166214286Y-65079718D02*
X166261905Y-64889242D01*
X166261905Y-64889242D02*
X166309524Y-64794004D01*
X166309524Y-64794004D02*
X166404762Y-64698766D01*
X166404762Y-64698766D02*
X166547619Y-64651147D01*
X166547619Y-64651147D02*
X166642857Y-64651147D01*
X166642857Y-64651147D02*
X166785714Y-64698766D01*
X166785714Y-64698766D02*
X166833333Y-64746385D01*
X167785714Y-65651147D02*
X167214286Y-65651147D01*
X167500000Y-65651147D02*
X167500000Y-64651147D01*
X167500000Y-64651147D02*
X167404762Y-64794004D01*
X167404762Y-64794004D02*
X167309524Y-64889242D01*
X167309524Y-64889242D02*
X167214286Y-64936861D01*
X165452380Y-67261091D02*
X164880952Y-67261091D01*
X165166666Y-67261091D02*
X165166666Y-66261091D01*
X165166666Y-66261091D02*
X165071428Y-66403948D01*
X165071428Y-66403948D02*
X164976190Y-66499186D01*
X164976190Y-66499186D02*
X164880952Y-66546805D01*
X166071428Y-66261091D02*
X166166666Y-66261091D01*
X166166666Y-66261091D02*
X166261904Y-66308710D01*
X166261904Y-66308710D02*
X166309523Y-66356329D01*
X166309523Y-66356329D02*
X166357142Y-66451567D01*
X166357142Y-66451567D02*
X166404761Y-66642043D01*
X166404761Y-66642043D02*
X166404761Y-66880138D01*
X166404761Y-66880138D02*
X166357142Y-67070614D01*
X166357142Y-67070614D02*
X166309523Y-67165852D01*
X166309523Y-67165852D02*
X166261904Y-67213472D01*
X166261904Y-67213472D02*
X166166666Y-67261091D01*
X166166666Y-67261091D02*
X166071428Y-67261091D01*
X166071428Y-67261091D02*
X165976190Y-67213472D01*
X165976190Y-67213472D02*
X165928571Y-67165852D01*
X165928571Y-67165852D02*
X165880952Y-67070614D01*
X165880952Y-67070614D02*
X165833333Y-66880138D01*
X165833333Y-66880138D02*
X165833333Y-66642043D01*
X165833333Y-66642043D02*
X165880952Y-66451567D01*
X165880952Y-66451567D02*
X165928571Y-66356329D01*
X165928571Y-66356329D02*
X165976190Y-66308710D01*
X165976190Y-66308710D02*
X166071428Y-66261091D01*
X167023809Y-66261091D02*
X167119047Y-66261091D01*
X167119047Y-66261091D02*
X167214285Y-66308710D01*
X167214285Y-66308710D02*
X167261904Y-66356329D01*
X167261904Y-66356329D02*
X167309523Y-66451567D01*
X167309523Y-66451567D02*
X167357142Y-66642043D01*
X167357142Y-66642043D02*
X167357142Y-66880138D01*
X167357142Y-66880138D02*
X167309523Y-67070614D01*
X167309523Y-67070614D02*
X167261904Y-67165852D01*
X167261904Y-67165852D02*
X167214285Y-67213472D01*
X167214285Y-67213472D02*
X167119047Y-67261091D01*
X167119047Y-67261091D02*
X167023809Y-67261091D01*
X167023809Y-67261091D02*
X166928571Y-67213472D01*
X166928571Y-67213472D02*
X166880952Y-67165852D01*
X166880952Y-67165852D02*
X166833333Y-67070614D01*
X166833333Y-67070614D02*
X166785714Y-66880138D01*
X166785714Y-66880138D02*
X166785714Y-66642043D01*
X166785714Y-66642043D02*
X166833333Y-66451567D01*
X166833333Y-66451567D02*
X166880952Y-66356329D01*
X166880952Y-66356329D02*
X166928571Y-66308710D01*
X166928571Y-66308710D02*
X167023809Y-66261091D01*
X168214285Y-66594424D02*
X168214285Y-67261091D01*
X167785714Y-66594424D02*
X167785714Y-67118233D01*
X167785714Y-67118233D02*
X167833333Y-67213472D01*
X167833333Y-67213472D02*
X167928571Y-67261091D01*
X167928571Y-67261091D02*
X168071428Y-67261091D01*
X168071428Y-67261091D02*
X168166666Y-67213472D01*
X168166666Y-67213472D02*
X168214285Y-67165852D01*
X169023809Y-66737281D02*
X168690476Y-66737281D01*
X168690476Y-67261091D02*
X168690476Y-66261091D01*
X168690476Y-66261091D02*
X169166666Y-66261091D01*
D11*
X137833333Y-70557208D02*
X137785714Y-70604828D01*
X137785714Y-70604828D02*
X137642857Y-70652447D01*
X137642857Y-70652447D02*
X137547619Y-70652447D01*
X137547619Y-70652447D02*
X137404762Y-70604828D01*
X137404762Y-70604828D02*
X137309524Y-70509589D01*
X137309524Y-70509589D02*
X137261905Y-70414351D01*
X137261905Y-70414351D02*
X137214286Y-70223875D01*
X137214286Y-70223875D02*
X137214286Y-70081018D01*
X137214286Y-70081018D02*
X137261905Y-69890542D01*
X137261905Y-69890542D02*
X137309524Y-69795304D01*
X137309524Y-69795304D02*
X137404762Y-69700066D01*
X137404762Y-69700066D02*
X137547619Y-69652447D01*
X137547619Y-69652447D02*
X137642857Y-69652447D01*
X137642857Y-69652447D02*
X137785714Y-69700066D01*
X137785714Y-69700066D02*
X137833333Y-69747685D01*
X138166667Y-69652447D02*
X138785714Y-69652447D01*
X138785714Y-69652447D02*
X138452381Y-70033399D01*
X138452381Y-70033399D02*
X138595238Y-70033399D01*
X138595238Y-70033399D02*
X138690476Y-70081018D01*
X138690476Y-70081018D02*
X138738095Y-70128637D01*
X138738095Y-70128637D02*
X138785714Y-70223875D01*
X138785714Y-70223875D02*
X138785714Y-70461970D01*
X138785714Y-70461970D02*
X138738095Y-70557208D01*
X138738095Y-70557208D02*
X138690476Y-70604828D01*
X138690476Y-70604828D02*
X138595238Y-70652447D01*
X138595238Y-70652447D02*
X138309524Y-70652447D01*
X138309524Y-70652447D02*
X138214286Y-70604828D01*
X138214286Y-70604828D02*
X138166667Y-70557208D01*
X137333333Y-72262391D02*
X136761905Y-72262391D01*
X137047619Y-72262391D02*
X137047619Y-71262391D01*
X137047619Y-71262391D02*
X136952381Y-71405248D01*
X136952381Y-71405248D02*
X136857143Y-71500486D01*
X136857143Y-71500486D02*
X136761905Y-71548105D01*
X137952381Y-71262391D02*
X138047619Y-71262391D01*
X138047619Y-71262391D02*
X138142857Y-71310010D01*
X138142857Y-71310010D02*
X138190476Y-71357629D01*
X138190476Y-71357629D02*
X138238095Y-71452867D01*
X138238095Y-71452867D02*
X138285714Y-71643343D01*
X138285714Y-71643343D02*
X138285714Y-71881438D01*
X138285714Y-71881438D02*
X138238095Y-72071914D01*
X138238095Y-72071914D02*
X138190476Y-72167152D01*
X138190476Y-72167152D02*
X138142857Y-72214772D01*
X138142857Y-72214772D02*
X138047619Y-72262391D01*
X138047619Y-72262391D02*
X137952381Y-72262391D01*
X137952381Y-72262391D02*
X137857143Y-72214772D01*
X137857143Y-72214772D02*
X137809524Y-72167152D01*
X137809524Y-72167152D02*
X137761905Y-72071914D01*
X137761905Y-72071914D02*
X137714286Y-71881438D01*
X137714286Y-71881438D02*
X137714286Y-71643343D01*
X137714286Y-71643343D02*
X137761905Y-71452867D01*
X137761905Y-71452867D02*
X137809524Y-71357629D01*
X137809524Y-71357629D02*
X137857143Y-71310010D01*
X137857143Y-71310010D02*
X137952381Y-71262391D01*
X139142857Y-71595724D02*
X139142857Y-72262391D01*
X138904762Y-71214772D02*
X138666667Y-71929057D01*
X138666667Y-71929057D02*
X139285714Y-71929057D01*
X143238095Y-56457419D02*
X143238095Y-57266942D01*
X143238095Y-57266942D02*
X143285714Y-57362180D01*
X143285714Y-57362180D02*
X143333333Y-57409800D01*
X143333333Y-57409800D02*
X143428571Y-57457419D01*
X143428571Y-57457419D02*
X143619047Y-57457419D01*
X143619047Y-57457419D02*
X143714285Y-57409800D01*
X143714285Y-57409800D02*
X143761904Y-57362180D01*
X143761904Y-57362180D02*
X143809523Y-57266942D01*
X143809523Y-57266942D02*
X143809523Y-56457419D01*
X144809523Y-57457419D02*
X144238095Y-57457419D01*
X144523809Y-57457419D02*
X144523809Y-56457419D01*
X144523809Y-56457419D02*
X144428571Y-56600276D01*
X144428571Y-56600276D02*
X144333333Y-56695514D01*
X144333333Y-56695514D02*
X144238095Y-56743133D01*
X160833333Y-65557208D02*
X160785714Y-65604828D01*
X160785714Y-65604828D02*
X160642857Y-65652447D01*
X160642857Y-65652447D02*
X160547619Y-65652447D01*
X160547619Y-65652447D02*
X160404762Y-65604828D01*
X160404762Y-65604828D02*
X160309524Y-65509589D01*
X160309524Y-65509589D02*
X160261905Y-65414351D01*
X160261905Y-65414351D02*
X160214286Y-65223875D01*
X160214286Y-65223875D02*
X160214286Y-65081018D01*
X160214286Y-65081018D02*
X160261905Y-64890542D01*
X160261905Y-64890542D02*
X160309524Y-64795304D01*
X160309524Y-64795304D02*
X160404762Y-64700066D01*
X160404762Y-64700066D02*
X160547619Y-64652447D01*
X160547619Y-64652447D02*
X160642857Y-64652447D01*
X160642857Y-64652447D02*
X160785714Y-64700066D01*
X160785714Y-64700066D02*
X160833333Y-64747685D01*
X161214286Y-64747685D02*
X161261905Y-64700066D01*
X161261905Y-64700066D02*
X161357143Y-64652447D01*
X161357143Y-64652447D02*
X161595238Y-64652447D01*
X161595238Y-64652447D02*
X161690476Y-64700066D01*
X161690476Y-64700066D02*
X161738095Y-64747685D01*
X161738095Y-64747685D02*
X161785714Y-64842923D01*
X161785714Y-64842923D02*
X161785714Y-64938161D01*
X161785714Y-64938161D02*
X161738095Y-65081018D01*
X161738095Y-65081018D02*
X161166667Y-65652447D01*
X161166667Y-65652447D02*
X161785714Y-65652447D01*
X160333333Y-67262391D02*
X159761905Y-67262391D01*
X160047619Y-67262391D02*
X160047619Y-66262391D01*
X160047619Y-66262391D02*
X159952381Y-66405248D01*
X159952381Y-66405248D02*
X159857143Y-66500486D01*
X159857143Y-66500486D02*
X159761905Y-66548105D01*
X160952381Y-66262391D02*
X161047619Y-66262391D01*
X161047619Y-66262391D02*
X161142857Y-66310010D01*
X161142857Y-66310010D02*
X161190476Y-66357629D01*
X161190476Y-66357629D02*
X161238095Y-66452867D01*
X161238095Y-66452867D02*
X161285714Y-66643343D01*
X161285714Y-66643343D02*
X161285714Y-66881438D01*
X161285714Y-66881438D02*
X161238095Y-67071914D01*
X161238095Y-67071914D02*
X161190476Y-67167152D01*
X161190476Y-67167152D02*
X161142857Y-67214772D01*
X161142857Y-67214772D02*
X161047619Y-67262391D01*
X161047619Y-67262391D02*
X160952381Y-67262391D01*
X160952381Y-67262391D02*
X160857143Y-67214772D01*
X160857143Y-67214772D02*
X160809524Y-67167152D01*
X160809524Y-67167152D02*
X160761905Y-67071914D01*
X160761905Y-67071914D02*
X160714286Y-66881438D01*
X160714286Y-66881438D02*
X160714286Y-66643343D01*
X160714286Y-66643343D02*
X160761905Y-66452867D01*
X160761905Y-66452867D02*
X160809524Y-66357629D01*
X160809524Y-66357629D02*
X160857143Y-66310010D01*
X160857143Y-66310010D02*
X160952381Y-66262391D01*
X162142857Y-66595724D02*
X162142857Y-67262391D01*
X161904762Y-66214772D02*
X161666667Y-66929057D01*
X161666667Y-66929057D02*
X162285714Y-66929057D01*
X167380952Y-69542580D02*
X167380952Y-68828295D01*
X167380952Y-68828295D02*
X167428571Y-68685438D01*
X167428571Y-68685438D02*
X167523809Y-68590200D01*
X167523809Y-68590200D02*
X167666666Y-68542580D01*
X167666666Y-68542580D02*
X167761904Y-68542580D01*
X166333333Y-68637819D02*
X166380952Y-68590200D01*
X166380952Y-68590200D02*
X166523809Y-68542580D01*
X166523809Y-68542580D02*
X166619047Y-68542580D01*
X166619047Y-68542580D02*
X166761904Y-68590200D01*
X166761904Y-68590200D02*
X166857142Y-68685438D01*
X166857142Y-68685438D02*
X166904761Y-68780676D01*
X166904761Y-68780676D02*
X166952380Y-68971152D01*
X166952380Y-68971152D02*
X166952380Y-69114009D01*
X166952380Y-69114009D02*
X166904761Y-69304485D01*
X166904761Y-69304485D02*
X166857142Y-69399723D01*
X166857142Y-69399723D02*
X166761904Y-69494961D01*
X166761904Y-69494961D02*
X166619047Y-69542580D01*
X166619047Y-69542580D02*
X166523809Y-69542580D01*
X166523809Y-69542580D02*
X166380952Y-69494961D01*
X166380952Y-69494961D02*
X166333333Y-69447342D01*
X165904761Y-68923533D02*
X165142857Y-68923533D01*
X164142857Y-68542580D02*
X164714285Y-68542580D01*
X164428571Y-68542580D02*
X164428571Y-69542580D01*
X164428571Y-69542580D02*
X164523809Y-69399723D01*
X164523809Y-69399723D02*
X164619047Y-69304485D01*
X164619047Y-69304485D02*
X164714285Y-69256866D01*
X163190476Y-68542580D02*
X163761904Y-68542580D01*
X163476190Y-68542580D02*
X163476190Y-69542580D01*
X163476190Y-69542580D02*
X163571428Y-69399723D01*
X163571428Y-69399723D02*
X163666666Y-69304485D01*
X163666666Y-69304485D02*
X163761904Y-69256866D01*
X162571428Y-69542580D02*
X162476190Y-69542580D01*
X162476190Y-69542580D02*
X162380952Y-69494961D01*
X162380952Y-69494961D02*
X162333333Y-69447342D01*
X162333333Y-69447342D02*
X162285714Y-69352104D01*
X162285714Y-69352104D02*
X162238095Y-69161628D01*
X162238095Y-69161628D02*
X162238095Y-68923533D01*
X162238095Y-68923533D02*
X162285714Y-68733057D01*
X162285714Y-68733057D02*
X162333333Y-68637819D01*
X162333333Y-68637819D02*
X162380952Y-68590200D01*
X162380952Y-68590200D02*
X162476190Y-68542580D01*
X162476190Y-68542580D02*
X162571428Y-68542580D01*
X162571428Y-68542580D02*
X162666666Y-68590200D01*
X162666666Y-68590200D02*
X162714285Y-68637819D01*
X162714285Y-68637819D02*
X162761904Y-68733057D01*
X162761904Y-68733057D02*
X162809523Y-68923533D01*
X162809523Y-68923533D02*
X162809523Y-69161628D01*
X162809523Y-69161628D02*
X162761904Y-69352104D01*
X162761904Y-69352104D02*
X162714285Y-69447342D01*
X162714285Y-69447342D02*
X162666666Y-69494961D01*
X162666666Y-69494961D02*
X162571428Y-69542580D01*
X161619047Y-69542580D02*
X161523809Y-69542580D01*
X161523809Y-69542580D02*
X161428571Y-69494961D01*
X161428571Y-69494961D02*
X161380952Y-69447342D01*
X161380952Y-69447342D02*
X161333333Y-69352104D01*
X161333333Y-69352104D02*
X161285714Y-69161628D01*
X161285714Y-69161628D02*
X161285714Y-68923533D01*
X161285714Y-68923533D02*
X161333333Y-68733057D01*
X161333333Y-68733057D02*
X161380952Y-68637819D01*
X161380952Y-68637819D02*
X161428571Y-68590200D01*
X161428571Y-68590200D02*
X161523809Y-68542580D01*
X161523809Y-68542580D02*
X161619047Y-68542580D01*
X161619047Y-68542580D02*
X161714285Y-68590200D01*
X161714285Y-68590200D02*
X161761904Y-68637819D01*
X161761904Y-68637819D02*
X161809523Y-68733057D01*
X161809523Y-68733057D02*
X161857142Y-68923533D01*
X161857142Y-68923533D02*
X161857142Y-69161628D01*
X161857142Y-69161628D02*
X161809523Y-69352104D01*
X161809523Y-69352104D02*
X161761904Y-69447342D01*
X161761904Y-69447342D02*
X161714285Y-69494961D01*
X161714285Y-69494961D02*
X161619047Y-69542580D01*
D10*
X159880952Y-51954819D02*
X159404762Y-51954819D01*
X159404762Y-51954819D02*
X159404762Y-50954819D01*
X160214286Y-51431009D02*
X160547619Y-51431009D01*
X160690476Y-51954819D02*
X160214286Y-51954819D01*
X160214286Y-51954819D02*
X160214286Y-50954819D01*
X160214286Y-50954819D02*
X160690476Y-50954819D01*
X161119048Y-51954819D02*
X161119048Y-50954819D01*
X161119048Y-50954819D02*
X161357143Y-50954819D01*
X161357143Y-50954819D02*
X161500000Y-51002438D01*
X161500000Y-51002438D02*
X161595238Y-51097676D01*
X161595238Y-51097676D02*
X161642857Y-51192914D01*
X161642857Y-51192914D02*
X161690476Y-51383390D01*
X161690476Y-51383390D02*
X161690476Y-51526247D01*
X161690476Y-51526247D02*
X161642857Y-51716723D01*
X161642857Y-51716723D02*
X161595238Y-51811961D01*
X161595238Y-51811961D02*
X161500000Y-51907200D01*
X161500000Y-51907200D02*
X161357143Y-51954819D01*
X161357143Y-51954819D02*
X161119048Y-51954819D01*
X162547619Y-51288152D02*
X162547619Y-51954819D01*
X162309524Y-50907200D02*
X162071429Y-51621485D01*
X162071429Y-51621485D02*
X162690476Y-51621485D01*
D11*
X144738095Y-28547300D02*
X144880952Y-28594919D01*
X144880952Y-28594919D02*
X145119047Y-28594919D01*
X145119047Y-28594919D02*
X145214285Y-28547300D01*
X145214285Y-28547300D02*
X145261904Y-28499680D01*
X145261904Y-28499680D02*
X145309523Y-28404442D01*
X145309523Y-28404442D02*
X145309523Y-28309204D01*
X145309523Y-28309204D02*
X145261904Y-28213966D01*
X145261904Y-28213966D02*
X145214285Y-28166347D01*
X145214285Y-28166347D02*
X145119047Y-28118728D01*
X145119047Y-28118728D02*
X144928571Y-28071109D01*
X144928571Y-28071109D02*
X144833333Y-28023490D01*
X144833333Y-28023490D02*
X144785714Y-27975871D01*
X144785714Y-27975871D02*
X144738095Y-27880633D01*
X144738095Y-27880633D02*
X144738095Y-27785395D01*
X144738095Y-27785395D02*
X144785714Y-27690157D01*
X144785714Y-27690157D02*
X144833333Y-27642538D01*
X144833333Y-27642538D02*
X144928571Y-27594919D01*
X144928571Y-27594919D02*
X145166666Y-27594919D01*
X145166666Y-27594919D02*
X145309523Y-27642538D01*
X145642857Y-27594919D02*
X145880952Y-28594919D01*
X145880952Y-28594919D02*
X146071428Y-27880633D01*
X146071428Y-27880633D02*
X146261904Y-28594919D01*
X146261904Y-28594919D02*
X146500000Y-27594919D01*
X147357142Y-28594919D02*
X146880952Y-28594919D01*
X146880952Y-28594919D02*
X146880952Y-27594919D01*
D10*
X145380952Y-84454819D02*
X144904762Y-84454819D01*
X144904762Y-84454819D02*
X144904762Y-83454819D01*
X145714286Y-83931009D02*
X146047619Y-83931009D01*
X146190476Y-84454819D02*
X145714286Y-84454819D01*
X145714286Y-84454819D02*
X145714286Y-83454819D01*
X145714286Y-83454819D02*
X146190476Y-83454819D01*
X146619048Y-84454819D02*
X146619048Y-83454819D01*
X146619048Y-83454819D02*
X146857143Y-83454819D01*
X146857143Y-83454819D02*
X147000000Y-83502438D01*
X147000000Y-83502438D02*
X147095238Y-83597676D01*
X147095238Y-83597676D02*
X147142857Y-83692914D01*
X147142857Y-83692914D02*
X147190476Y-83883390D01*
X147190476Y-83883390D02*
X147190476Y-84026247D01*
X147190476Y-84026247D02*
X147142857Y-84216723D01*
X147142857Y-84216723D02*
X147095238Y-84311961D01*
X147095238Y-84311961D02*
X147000000Y-84407200D01*
X147000000Y-84407200D02*
X146857143Y-84454819D01*
X146857143Y-84454819D02*
X146619048Y-84454819D01*
X148142857Y-84454819D02*
X147571429Y-84454819D01*
X147857143Y-84454819D02*
X147857143Y-83454819D01*
X147857143Y-83454819D02*
X147761905Y-83597676D01*
X147761905Y-83597676D02*
X147666667Y-83692914D01*
X147666667Y-83692914D02*
X147571429Y-83740533D01*
X166954819Y-57666666D02*
X166478628Y-57999999D01*
X166954819Y-58238094D02*
X165954819Y-58238094D01*
X165954819Y-58238094D02*
X165954819Y-57857142D01*
X165954819Y-57857142D02*
X166002438Y-57761904D01*
X166002438Y-57761904D02*
X166050057Y-57714285D01*
X166050057Y-57714285D02*
X166145295Y-57666666D01*
X166145295Y-57666666D02*
X166288152Y-57666666D01*
X166288152Y-57666666D02*
X166383390Y-57714285D01*
X166383390Y-57714285D02*
X166431009Y-57761904D01*
X166431009Y-57761904D02*
X166478628Y-57857142D01*
X166478628Y-57857142D02*
X166478628Y-58238094D01*
X166050057Y-57285713D02*
X166002438Y-57238094D01*
X166002438Y-57238094D02*
X165954819Y-57142856D01*
X165954819Y-57142856D02*
X165954819Y-56904761D01*
X165954819Y-56904761D02*
X166002438Y-56809523D01*
X166002438Y-56809523D02*
X166050057Y-56761904D01*
X166050057Y-56761904D02*
X166145295Y-56714285D01*
X166145295Y-56714285D02*
X166240533Y-56714285D01*
X166240533Y-56714285D02*
X166383390Y-56761904D01*
X166383390Y-56761904D02*
X166954819Y-57333332D01*
X166954819Y-57333332D02*
X166954819Y-56714285D01*
D11*
X137433609Y-37714285D02*
X137433609Y-37380952D01*
X137957419Y-37238095D02*
X137957419Y-37714285D01*
X137957419Y-37714285D02*
X136957419Y-37714285D01*
X136957419Y-37714285D02*
X136957419Y-37238095D01*
X137957419Y-36809523D02*
X136957419Y-36809523D01*
X136957419Y-36809523D02*
X137957419Y-36238095D01*
X137957419Y-36238095D02*
X136957419Y-36238095D01*
X137862180Y-35190476D02*
X137909800Y-35238095D01*
X137909800Y-35238095D02*
X137957419Y-35380952D01*
X137957419Y-35380952D02*
X137957419Y-35476190D01*
X137957419Y-35476190D02*
X137909800Y-35619047D01*
X137909800Y-35619047D02*
X137814561Y-35714285D01*
X137814561Y-35714285D02*
X137719323Y-35761904D01*
X137719323Y-35761904D02*
X137528847Y-35809523D01*
X137528847Y-35809523D02*
X137385990Y-35809523D01*
X137385990Y-35809523D02*
X137195514Y-35761904D01*
X137195514Y-35761904D02*
X137100276Y-35714285D01*
X137100276Y-35714285D02*
X137005038Y-35619047D01*
X137005038Y-35619047D02*
X136957419Y-35476190D01*
X136957419Y-35476190D02*
X136957419Y-35380952D01*
X136957419Y-35380952D02*
X137005038Y-35238095D01*
X137005038Y-35238095D02*
X137052657Y-35190476D01*
X137957419Y-34238095D02*
X137957419Y-34809523D01*
X137957419Y-34523809D02*
X136957419Y-34523809D01*
X136957419Y-34523809D02*
X137100276Y-34619047D01*
X137100276Y-34619047D02*
X137195514Y-34714285D01*
X137195514Y-34714285D02*
X137243133Y-34809523D01*
X136457419Y-59350594D02*
X137266942Y-59350594D01*
X137266942Y-59350594D02*
X137362180Y-59302975D01*
X137362180Y-59302975D02*
X137409800Y-59255356D01*
X137409800Y-59255356D02*
X137457419Y-59160118D01*
X137457419Y-59160118D02*
X137457419Y-58969642D01*
X137457419Y-58969642D02*
X137409800Y-58874404D01*
X137409800Y-58874404D02*
X137362180Y-58826785D01*
X137362180Y-58826785D02*
X137266942Y-58779166D01*
X137266942Y-58779166D02*
X136457419Y-58779166D01*
X137409800Y-58350594D02*
X137457419Y-58207737D01*
X137457419Y-58207737D02*
X137457419Y-57969642D01*
X137457419Y-57969642D02*
X137409800Y-57874404D01*
X137409800Y-57874404D02*
X137362180Y-57826785D01*
X137362180Y-57826785D02*
X137266942Y-57779166D01*
X137266942Y-57779166D02*
X137171704Y-57779166D01*
X137171704Y-57779166D02*
X137076466Y-57826785D01*
X137076466Y-57826785D02*
X137028847Y-57874404D01*
X137028847Y-57874404D02*
X136981228Y-57969642D01*
X136981228Y-57969642D02*
X136933609Y-58160118D01*
X136933609Y-58160118D02*
X136885990Y-58255356D01*
X136885990Y-58255356D02*
X136838371Y-58302975D01*
X136838371Y-58302975D02*
X136743133Y-58350594D01*
X136743133Y-58350594D02*
X136647895Y-58350594D01*
X136647895Y-58350594D02*
X136552657Y-58302975D01*
X136552657Y-58302975D02*
X136505038Y-58255356D01*
X136505038Y-58255356D02*
X136457419Y-58160118D01*
X136457419Y-58160118D02*
X136457419Y-57922023D01*
X136457419Y-57922023D02*
X136505038Y-57779166D01*
X136933609Y-57017261D02*
X136981228Y-56874404D01*
X136981228Y-56874404D02*
X137028847Y-56826785D01*
X137028847Y-56826785D02*
X137124085Y-56779166D01*
X137124085Y-56779166D02*
X137266942Y-56779166D01*
X137266942Y-56779166D02*
X137362180Y-56826785D01*
X137362180Y-56826785D02*
X137409800Y-56874404D01*
X137409800Y-56874404D02*
X137457419Y-56969642D01*
X137457419Y-56969642D02*
X137457419Y-57350594D01*
X137457419Y-57350594D02*
X136457419Y-57350594D01*
X136457419Y-57350594D02*
X136457419Y-57017261D01*
X136457419Y-57017261D02*
X136505038Y-56922023D01*
X136505038Y-56922023D02*
X136552657Y-56874404D01*
X136552657Y-56874404D02*
X136647895Y-56826785D01*
X136647895Y-56826785D02*
X136743133Y-56826785D01*
X136743133Y-56826785D02*
X136838371Y-56874404D01*
X136838371Y-56874404D02*
X136885990Y-56922023D01*
X136885990Y-56922023D02*
X136933609Y-57017261D01*
X136933609Y-57017261D02*
X136933609Y-57350594D01*
X137457419Y-55826785D02*
X137457419Y-56398213D01*
X137457419Y-56112499D02*
X136457419Y-56112499D01*
X136457419Y-56112499D02*
X136600276Y-56207737D01*
X136600276Y-56207737D02*
X136695514Y-56302975D01*
X136695514Y-56302975D02*
X136743133Y-56398213D01*
X153642857Y-25909800D02*
X153785714Y-25957419D01*
X153785714Y-25957419D02*
X154023809Y-25957419D01*
X154023809Y-25957419D02*
X154119047Y-25909800D01*
X154119047Y-25909800D02*
X154166666Y-25862180D01*
X154166666Y-25862180D02*
X154214285Y-25766942D01*
X154214285Y-25766942D02*
X154214285Y-25671704D01*
X154214285Y-25671704D02*
X154166666Y-25576466D01*
X154166666Y-25576466D02*
X154119047Y-25528847D01*
X154119047Y-25528847D02*
X154023809Y-25481228D01*
X154023809Y-25481228D02*
X153833333Y-25433609D01*
X153833333Y-25433609D02*
X153738095Y-25385990D01*
X153738095Y-25385990D02*
X153690476Y-25338371D01*
X153690476Y-25338371D02*
X153642857Y-25243133D01*
X153642857Y-25243133D02*
X153642857Y-25147895D01*
X153642857Y-25147895D02*
X153690476Y-25052657D01*
X153690476Y-25052657D02*
X153738095Y-25005038D01*
X153738095Y-25005038D02*
X153833333Y-24957419D01*
X153833333Y-24957419D02*
X154071428Y-24957419D01*
X154071428Y-24957419D02*
X154214285Y-25005038D01*
X154547619Y-24957419D02*
X154785714Y-25957419D01*
X154785714Y-25957419D02*
X154976190Y-25243133D01*
X154976190Y-25243133D02*
X155166666Y-25957419D01*
X155166666Y-25957419D02*
X155404762Y-24957419D01*
X156357142Y-25957419D02*
X156023809Y-25481228D01*
X155785714Y-25957419D02*
X155785714Y-24957419D01*
X155785714Y-24957419D02*
X156166666Y-24957419D01*
X156166666Y-24957419D02*
X156261904Y-25005038D01*
X156261904Y-25005038D02*
X156309523Y-25052657D01*
X156309523Y-25052657D02*
X156357142Y-25147895D01*
X156357142Y-25147895D02*
X156357142Y-25290752D01*
X156357142Y-25290752D02*
X156309523Y-25385990D01*
X156309523Y-25385990D02*
X156261904Y-25433609D01*
X156261904Y-25433609D02*
X156166666Y-25481228D01*
X156166666Y-25481228D02*
X155785714Y-25481228D01*
D10*
X162454819Y-73666666D02*
X161978628Y-73999999D01*
X162454819Y-74238094D02*
X161454819Y-74238094D01*
X161454819Y-74238094D02*
X161454819Y-73857142D01*
X161454819Y-73857142D02*
X161502438Y-73761904D01*
X161502438Y-73761904D02*
X161550057Y-73714285D01*
X161550057Y-73714285D02*
X161645295Y-73666666D01*
X161645295Y-73666666D02*
X161788152Y-73666666D01*
X161788152Y-73666666D02*
X161883390Y-73714285D01*
X161883390Y-73714285D02*
X161931009Y-73761904D01*
X161931009Y-73761904D02*
X161978628Y-73857142D01*
X161978628Y-73857142D02*
X161978628Y-74238094D01*
X162454819Y-72714285D02*
X162454819Y-73285713D01*
X162454819Y-72999999D02*
X161454819Y-72999999D01*
X161454819Y-72999999D02*
X161597676Y-73095237D01*
X161597676Y-73095237D02*
X161692914Y-73190475D01*
X161692914Y-73190475D02*
X161740533Y-73285713D01*
X160595238Y-39907200D02*
X160738095Y-39954819D01*
X160738095Y-39954819D02*
X160976190Y-39954819D01*
X160976190Y-39954819D02*
X161071428Y-39907200D01*
X161071428Y-39907200D02*
X161119047Y-39859580D01*
X161119047Y-39859580D02*
X161166666Y-39764342D01*
X161166666Y-39764342D02*
X161166666Y-39669104D01*
X161166666Y-39669104D02*
X161119047Y-39573866D01*
X161119047Y-39573866D02*
X161071428Y-39526247D01*
X161071428Y-39526247D02*
X160976190Y-39478628D01*
X160976190Y-39478628D02*
X160785714Y-39431009D01*
X160785714Y-39431009D02*
X160690476Y-39383390D01*
X160690476Y-39383390D02*
X160642857Y-39335771D01*
X160642857Y-39335771D02*
X160595238Y-39240533D01*
X160595238Y-39240533D02*
X160595238Y-39145295D01*
X160595238Y-39145295D02*
X160642857Y-39050057D01*
X160642857Y-39050057D02*
X160690476Y-39002438D01*
X160690476Y-39002438D02*
X160785714Y-38954819D01*
X160785714Y-38954819D02*
X161023809Y-38954819D01*
X161023809Y-38954819D02*
X161166666Y-39002438D01*
X161500000Y-38954819D02*
X161738095Y-39954819D01*
X161738095Y-39954819D02*
X161928571Y-39240533D01*
X161928571Y-39240533D02*
X162119047Y-39954819D01*
X162119047Y-39954819D02*
X162357143Y-38954819D01*
X162738095Y-39954819D02*
X162738095Y-38954819D01*
X162738095Y-38954819D02*
X163071428Y-39669104D01*
X163071428Y-39669104D02*
X163404761Y-38954819D01*
X163404761Y-38954819D02*
X163404761Y-39954819D01*
X164404761Y-39954819D02*
X163833333Y-39954819D01*
X164119047Y-39954819D02*
X164119047Y-38954819D01*
X164119047Y-38954819D02*
X164023809Y-39097676D01*
X164023809Y-39097676D02*
X163928571Y-39192914D01*
X163928571Y-39192914D02*
X163833333Y-39240533D01*
%TO.C,D2*%
D13*
X163045963Y-44885538D02*
X160316530Y-47614970D01*
X163045963Y-44885538D02*
X165252136Y-47091711D01*
X165252136Y-47091711D02*
X162522702Y-49821143D01*
X162522702Y-49821143D02*
G75*
G02*
X160316530Y-47614971I-1103086J1103086D01*
G01*
X164460175Y-47883671D02*
X165252136Y-47091711D01*
X165534978Y-47374553D01*
X164743018Y-48166514D01*
X164460175Y-47883671D01*
%TO.C,LED1*%
X149440000Y-84625000D02*
X149440000Y-80765000D01*
X152560000Y-84625000D02*
X149440000Y-84625000D01*
X152560000Y-84625000D02*
X152560000Y-80765000D01*
X149040000Y-83505000D02*
X149440000Y-83505000D01*
X149440000Y-84625000D01*
X149040000Y-84625000D01*
X149040000Y-83505000D01*
X149730000Y-84625000D02*
X149730000Y-84755000D01*
X149730000Y-84625000D01*
X152270000Y-84625000D02*
X152270000Y-84755000D01*
X152270000Y-84625000D01*
X149440000Y-80765000D02*
G75*
G02*
X152560000Y-80765000I1560000J0D01*
G01*
%TO.C,R2*%
X164500000Y-62070000D02*
X164500000Y-58910000D01*
X165420000Y-62990000D02*
G75*
G02*
X163580000Y-62990000I-920000J0D01*
G01*
X163580000Y-62990000D02*
G75*
G02*
X165420000Y-62990000I920000J0D01*
G01*
%TO.C,U1*%
D11*
X143000000Y-49000000D02*
X159000000Y-49000000D01*
X159000000Y-77000000D01*
X143000000Y-77000000D01*
X143000000Y-49000000D01*
%TO.C,C1*%
X161000000Y-61000000D02*
X163000000Y-61000000D01*
X163000000Y-64000000D01*
X161000000Y-64000000D01*
X161000000Y-61000000D01*
%TO.C,R1*%
D13*
X161080000Y-76080000D02*
X161080000Y-79920000D01*
X162920000Y-76080000D02*
X162920000Y-79920000D01*
%TO.C,SWM1*%
X159250000Y-34500000D02*
X159250000Y-36000000D01*
X160000000Y-38732011D02*
X164500000Y-38732011D01*
X165000000Y-31808221D02*
X160500000Y-31808221D01*
X166250000Y-36000000D02*
X166250000Y-34500000D01*
%TO.C,C3*%
D11*
X136500000Y-67500000D02*
X139500000Y-67500000D01*
X139500000Y-69500000D01*
X136500000Y-69500000D01*
X136500000Y-67500000D01*
%TO.C,C2*%
X166000000Y-61000000D02*
X168000000Y-61000000D01*
X168000000Y-64000000D01*
X166000000Y-64000000D01*
X166000000Y-61000000D01*
%TD*%
M02*
