%TF.GenerationSoftware,KiCad,Pcbnew,10.0.4*%
%TF.CreationDate,2026-07-07T18:33:14+02:00*%
%TF.ProjectId,mouse1-1,6d6f7573-6531-42d3-912e-6b696361645f,07/07/2026*%
%TF.SameCoordinates,Original*%
%TF.FileFunction,Legend,Top*%
%TF.FilePolarity,Positive*%
%FSLAX46Y46*%
G04 Gerber Fmt 4.6, Leading zero omitted, Abs format (unit mm)*
G04 Created by KiCad (PCBNEW 10.0.4) date 2026-07-07 18:33:14*
%MOMM*%
%LPD*%
G01*
G04 APERTURE LIST*
%ADD10C,0.150000*%
%ADD11C,0.100000*%
%ADD12C,0.120000*%
G04 APERTURE END LIST*
D10*
X134833333Y-67054608D02*
X134785714Y-67102228D01*
X134785714Y-67102228D02*
X134642857Y-67149847D01*
X134642857Y-67149847D02*
X134547619Y-67149847D01*
X134547619Y-67149847D02*
X134404762Y-67102228D01*
X134404762Y-67102228D02*
X134309524Y-67006989D01*
X134309524Y-67006989D02*
X134261905Y-66911751D01*
X134261905Y-66911751D02*
X134214286Y-66721275D01*
X134214286Y-66721275D02*
X134214286Y-66578418D01*
X134214286Y-66578418D02*
X134261905Y-66387942D01*
X134261905Y-66387942D02*
X134309524Y-66292704D01*
X134309524Y-66292704D02*
X134404762Y-66197466D01*
X134404762Y-66197466D02*
X134547619Y-66149847D01*
X134547619Y-66149847D02*
X134642857Y-66149847D01*
X134642857Y-66149847D02*
X134785714Y-66197466D01*
X134785714Y-66197466D02*
X134833333Y-66245085D01*
X135166667Y-66149847D02*
X135785714Y-66149847D01*
X135785714Y-66149847D02*
X135452381Y-66530799D01*
X135452381Y-66530799D02*
X135595238Y-66530799D01*
X135595238Y-66530799D02*
X135690476Y-66578418D01*
X135690476Y-66578418D02*
X135738095Y-66626037D01*
X135738095Y-66626037D02*
X135785714Y-66721275D01*
X135785714Y-66721275D02*
X135785714Y-66959370D01*
X135785714Y-66959370D02*
X135738095Y-67054608D01*
X135738095Y-67054608D02*
X135690476Y-67102228D01*
X135690476Y-67102228D02*
X135595238Y-67149847D01*
X135595238Y-67149847D02*
X135309524Y-67149847D01*
X135309524Y-67149847D02*
X135214286Y-67102228D01*
X135214286Y-67102228D02*
X135166667Y-67054608D01*
X134333333Y-68759791D02*
X133761905Y-68759791D01*
X134047619Y-68759791D02*
X134047619Y-67759791D01*
X134047619Y-67759791D02*
X133952381Y-67902648D01*
X133952381Y-67902648D02*
X133857143Y-67997886D01*
X133857143Y-67997886D02*
X133761905Y-68045505D01*
X134952381Y-67759791D02*
X135047619Y-67759791D01*
X135047619Y-67759791D02*
X135142857Y-67807410D01*
X135142857Y-67807410D02*
X135190476Y-67855029D01*
X135190476Y-67855029D02*
X135238095Y-67950267D01*
X135238095Y-67950267D02*
X135285714Y-68140743D01*
X135285714Y-68140743D02*
X135285714Y-68378838D01*
X135285714Y-68378838D02*
X135238095Y-68569314D01*
X135238095Y-68569314D02*
X135190476Y-68664552D01*
X135190476Y-68664552D02*
X135142857Y-68712172D01*
X135142857Y-68712172D02*
X135047619Y-68759791D01*
X135047619Y-68759791D02*
X134952381Y-68759791D01*
X134952381Y-68759791D02*
X134857143Y-68712172D01*
X134857143Y-68712172D02*
X134809524Y-68664552D01*
X134809524Y-68664552D02*
X134761905Y-68569314D01*
X134761905Y-68569314D02*
X134714286Y-68378838D01*
X134714286Y-68378838D02*
X134714286Y-68140743D01*
X134714286Y-68140743D02*
X134761905Y-67950267D01*
X134761905Y-67950267D02*
X134809524Y-67855029D01*
X134809524Y-67855029D02*
X134857143Y-67807410D01*
X134857143Y-67807410D02*
X134952381Y-67759791D01*
X136142857Y-68093124D02*
X136142857Y-68759791D01*
X135904762Y-67712172D02*
X135666667Y-68426457D01*
X135666667Y-68426457D02*
X136285714Y-68426457D01*
X160833333Y-66054608D02*
X160785714Y-66102228D01*
X160785714Y-66102228D02*
X160642857Y-66149847D01*
X160642857Y-66149847D02*
X160547619Y-66149847D01*
X160547619Y-66149847D02*
X160404762Y-66102228D01*
X160404762Y-66102228D02*
X160309524Y-66006989D01*
X160309524Y-66006989D02*
X160261905Y-65911751D01*
X160261905Y-65911751D02*
X160214286Y-65721275D01*
X160214286Y-65721275D02*
X160214286Y-65578418D01*
X160214286Y-65578418D02*
X160261905Y-65387942D01*
X160261905Y-65387942D02*
X160309524Y-65292704D01*
X160309524Y-65292704D02*
X160404762Y-65197466D01*
X160404762Y-65197466D02*
X160547619Y-65149847D01*
X160547619Y-65149847D02*
X160642857Y-65149847D01*
X160642857Y-65149847D02*
X160785714Y-65197466D01*
X160785714Y-65197466D02*
X160833333Y-65245085D01*
X161214286Y-65245085D02*
X161261905Y-65197466D01*
X161261905Y-65197466D02*
X161357143Y-65149847D01*
X161357143Y-65149847D02*
X161595238Y-65149847D01*
X161595238Y-65149847D02*
X161690476Y-65197466D01*
X161690476Y-65197466D02*
X161738095Y-65245085D01*
X161738095Y-65245085D02*
X161785714Y-65340323D01*
X161785714Y-65340323D02*
X161785714Y-65435561D01*
X161785714Y-65435561D02*
X161738095Y-65578418D01*
X161738095Y-65578418D02*
X161166667Y-66149847D01*
X161166667Y-66149847D02*
X161785714Y-66149847D01*
X160333333Y-67759791D02*
X159761905Y-67759791D01*
X160047619Y-67759791D02*
X160047619Y-66759791D01*
X160047619Y-66759791D02*
X159952381Y-66902648D01*
X159952381Y-66902648D02*
X159857143Y-66997886D01*
X159857143Y-66997886D02*
X159761905Y-67045505D01*
X160952381Y-66759791D02*
X161047619Y-66759791D01*
X161047619Y-66759791D02*
X161142857Y-66807410D01*
X161142857Y-66807410D02*
X161190476Y-66855029D01*
X161190476Y-66855029D02*
X161238095Y-66950267D01*
X161238095Y-66950267D02*
X161285714Y-67140743D01*
X161285714Y-67140743D02*
X161285714Y-67378838D01*
X161285714Y-67378838D02*
X161238095Y-67569314D01*
X161238095Y-67569314D02*
X161190476Y-67664552D01*
X161190476Y-67664552D02*
X161142857Y-67712172D01*
X161142857Y-67712172D02*
X161047619Y-67759791D01*
X161047619Y-67759791D02*
X160952381Y-67759791D01*
X160952381Y-67759791D02*
X160857143Y-67712172D01*
X160857143Y-67712172D02*
X160809524Y-67664552D01*
X160809524Y-67664552D02*
X160761905Y-67569314D01*
X160761905Y-67569314D02*
X160714286Y-67378838D01*
X160714286Y-67378838D02*
X160714286Y-67140743D01*
X160714286Y-67140743D02*
X160761905Y-66950267D01*
X160761905Y-66950267D02*
X160809524Y-66855029D01*
X160809524Y-66855029D02*
X160857143Y-66807410D01*
X160857143Y-66807410D02*
X160952381Y-66759791D01*
X162142857Y-67093124D02*
X162142857Y-67759791D01*
X161904762Y-66712172D02*
X161666667Y-67426457D01*
X161666667Y-67426457D02*
X162285714Y-67426457D01*
X166333333Y-60554608D02*
X166285714Y-60602228D01*
X166285714Y-60602228D02*
X166142857Y-60649847D01*
X166142857Y-60649847D02*
X166047619Y-60649847D01*
X166047619Y-60649847D02*
X165904762Y-60602228D01*
X165904762Y-60602228D02*
X165809524Y-60506989D01*
X165809524Y-60506989D02*
X165761905Y-60411751D01*
X165761905Y-60411751D02*
X165714286Y-60221275D01*
X165714286Y-60221275D02*
X165714286Y-60078418D01*
X165714286Y-60078418D02*
X165761905Y-59887942D01*
X165761905Y-59887942D02*
X165809524Y-59792704D01*
X165809524Y-59792704D02*
X165904762Y-59697466D01*
X165904762Y-59697466D02*
X166047619Y-59649847D01*
X166047619Y-59649847D02*
X166142857Y-59649847D01*
X166142857Y-59649847D02*
X166285714Y-59697466D01*
X166285714Y-59697466D02*
X166333333Y-59745085D01*
X167285714Y-60649847D02*
X166714286Y-60649847D01*
X167000000Y-60649847D02*
X167000000Y-59649847D01*
X167000000Y-59649847D02*
X166904762Y-59792704D01*
X166904762Y-59792704D02*
X166809524Y-59887942D01*
X166809524Y-59887942D02*
X166714286Y-59935561D01*
X165095237Y-62259791D02*
X164523809Y-62259791D01*
X164809523Y-62259791D02*
X164809523Y-61259791D01*
X164809523Y-61259791D02*
X164714285Y-61402648D01*
X164714285Y-61402648D02*
X164619047Y-61497886D01*
X164619047Y-61497886D02*
X164523809Y-61545505D01*
X165714285Y-61259791D02*
X165809523Y-61259791D01*
X165809523Y-61259791D02*
X165904761Y-61307410D01*
X165904761Y-61307410D02*
X165952380Y-61355029D01*
X165952380Y-61355029D02*
X165999999Y-61450267D01*
X165999999Y-61450267D02*
X166047618Y-61640743D01*
X166047618Y-61640743D02*
X166047618Y-61878838D01*
X166047618Y-61878838D02*
X165999999Y-62069314D01*
X165999999Y-62069314D02*
X165952380Y-62164552D01*
X165952380Y-62164552D02*
X165904761Y-62212172D01*
X165904761Y-62212172D02*
X165809523Y-62259791D01*
X165809523Y-62259791D02*
X165714285Y-62259791D01*
X165714285Y-62259791D02*
X165619047Y-62212172D01*
X165619047Y-62212172D02*
X165571428Y-62164552D01*
X165571428Y-62164552D02*
X165523809Y-62069314D01*
X165523809Y-62069314D02*
X165476190Y-61878838D01*
X165476190Y-61878838D02*
X165476190Y-61640743D01*
X165476190Y-61640743D02*
X165523809Y-61450267D01*
X165523809Y-61450267D02*
X165571428Y-61355029D01*
X165571428Y-61355029D02*
X165619047Y-61307410D01*
X165619047Y-61307410D02*
X165714285Y-61259791D01*
X166666666Y-61259791D02*
X166761904Y-61259791D01*
X166761904Y-61259791D02*
X166857142Y-61307410D01*
X166857142Y-61307410D02*
X166904761Y-61355029D01*
X166904761Y-61355029D02*
X166952380Y-61450267D01*
X166952380Y-61450267D02*
X166999999Y-61640743D01*
X166999999Y-61640743D02*
X166999999Y-61878838D01*
X166999999Y-61878838D02*
X166952380Y-62069314D01*
X166952380Y-62069314D02*
X166904761Y-62164552D01*
X166904761Y-62164552D02*
X166857142Y-62212172D01*
X166857142Y-62212172D02*
X166761904Y-62259791D01*
X166761904Y-62259791D02*
X166666666Y-62259791D01*
X166666666Y-62259791D02*
X166571428Y-62212172D01*
X166571428Y-62212172D02*
X166523809Y-62164552D01*
X166523809Y-62164552D02*
X166476190Y-62069314D01*
X166476190Y-62069314D02*
X166428571Y-61878838D01*
X166428571Y-61878838D02*
X166428571Y-61640743D01*
X166428571Y-61640743D02*
X166476190Y-61450267D01*
X166476190Y-61450267D02*
X166523809Y-61355029D01*
X166523809Y-61355029D02*
X166571428Y-61307410D01*
X166571428Y-61307410D02*
X166666666Y-61259791D01*
X167857142Y-61593124D02*
X167857142Y-62259791D01*
X167428571Y-61593124D02*
X167428571Y-62116933D01*
X167428571Y-62116933D02*
X167476190Y-62212172D01*
X167476190Y-62212172D02*
X167571428Y-62259791D01*
X167571428Y-62259791D02*
X167714285Y-62259791D01*
X167714285Y-62259791D02*
X167809523Y-62212172D01*
X167809523Y-62212172D02*
X167857142Y-62164552D01*
X168190476Y-61593124D02*
X168571428Y-61593124D01*
X168333333Y-62259791D02*
X168333333Y-61402648D01*
X168333333Y-61402648D02*
X168380952Y-61307410D01*
X168380952Y-61307410D02*
X168476190Y-61259791D01*
X168476190Y-61259791D02*
X168571428Y-61259791D01*
X164954819Y-59626666D02*
X164478628Y-59959999D01*
X164954819Y-60198094D02*
X163954819Y-60198094D01*
X163954819Y-60198094D02*
X163954819Y-59817142D01*
X163954819Y-59817142D02*
X164002438Y-59721904D01*
X164002438Y-59721904D02*
X164050057Y-59674285D01*
X164050057Y-59674285D02*
X164145295Y-59626666D01*
X164145295Y-59626666D02*
X164288152Y-59626666D01*
X164288152Y-59626666D02*
X164383390Y-59674285D01*
X164383390Y-59674285D02*
X164431009Y-59721904D01*
X164431009Y-59721904D02*
X164478628Y-59817142D01*
X164478628Y-59817142D02*
X164478628Y-60198094D01*
X164050057Y-59245713D02*
X164002438Y-59198094D01*
X164002438Y-59198094D02*
X163954819Y-59102856D01*
X163954819Y-59102856D02*
X163954819Y-58864761D01*
X163954819Y-58864761D02*
X164002438Y-58769523D01*
X164002438Y-58769523D02*
X164050057Y-58721904D01*
X164050057Y-58721904D02*
X164145295Y-58674285D01*
X164145295Y-58674285D02*
X164240533Y-58674285D01*
X164240533Y-58674285D02*
X164383390Y-58721904D01*
X164383390Y-58721904D02*
X164954819Y-59293332D01*
X164954819Y-59293332D02*
X164954819Y-58674285D01*
D11*
X145261905Y-28909800D02*
X145404762Y-28957419D01*
X145404762Y-28957419D02*
X145642857Y-28957419D01*
X145642857Y-28957419D02*
X145738095Y-28909800D01*
X145738095Y-28909800D02*
X145785714Y-28862180D01*
X145785714Y-28862180D02*
X145833333Y-28766942D01*
X145833333Y-28766942D02*
X145833333Y-28671704D01*
X145833333Y-28671704D02*
X145785714Y-28576466D01*
X145785714Y-28576466D02*
X145738095Y-28528847D01*
X145738095Y-28528847D02*
X145642857Y-28481228D01*
X145642857Y-28481228D02*
X145452381Y-28433609D01*
X145452381Y-28433609D02*
X145357143Y-28385990D01*
X145357143Y-28385990D02*
X145309524Y-28338371D01*
X145309524Y-28338371D02*
X145261905Y-28243133D01*
X145261905Y-28243133D02*
X145261905Y-28147895D01*
X145261905Y-28147895D02*
X145309524Y-28052657D01*
X145309524Y-28052657D02*
X145357143Y-28005038D01*
X145357143Y-28005038D02*
X145452381Y-27957419D01*
X145452381Y-27957419D02*
X145690476Y-27957419D01*
X145690476Y-27957419D02*
X145833333Y-28005038D01*
X146166667Y-27957419D02*
X146404762Y-28957419D01*
X146404762Y-28957419D02*
X146595238Y-28243133D01*
X146595238Y-28243133D02*
X146785714Y-28957419D01*
X146785714Y-28957419D02*
X147023810Y-27957419D01*
X147880952Y-28957419D02*
X147404762Y-28957419D01*
X147404762Y-28957419D02*
X147404762Y-27957419D01*
X148738095Y-28957419D02*
X148166667Y-28957419D01*
X148452381Y-28957419D02*
X148452381Y-27957419D01*
X148452381Y-27957419D02*
X148357143Y-28100276D01*
X148357143Y-28100276D02*
X148261905Y-28195514D01*
X148261905Y-28195514D02*
X148166667Y-28243133D01*
D10*
X164996905Y-52454819D02*
X164996905Y-51454819D01*
X164996905Y-51454819D02*
X165235000Y-51454819D01*
X165235000Y-51454819D02*
X165377857Y-51502438D01*
X165377857Y-51502438D02*
X165473095Y-51597676D01*
X165473095Y-51597676D02*
X165520714Y-51692914D01*
X165520714Y-51692914D02*
X165568333Y-51883390D01*
X165568333Y-51883390D02*
X165568333Y-52026247D01*
X165568333Y-52026247D02*
X165520714Y-52216723D01*
X165520714Y-52216723D02*
X165473095Y-52311961D01*
X165473095Y-52311961D02*
X165377857Y-52407200D01*
X165377857Y-52407200D02*
X165235000Y-52454819D01*
X165235000Y-52454819D02*
X164996905Y-52454819D01*
X166520714Y-52454819D02*
X165949286Y-52454819D01*
X166235000Y-52454819D02*
X166235000Y-51454819D01*
X166235000Y-51454819D02*
X166139762Y-51597676D01*
X166139762Y-51597676D02*
X166044524Y-51692914D01*
X166044524Y-51692914D02*
X165949286Y-51740533D01*
D11*
X137042580Y-51261905D02*
X136233057Y-51261905D01*
X136233057Y-51261905D02*
X136137819Y-51309524D01*
X136137819Y-51309524D02*
X136090200Y-51357143D01*
X136090200Y-51357143D02*
X136042580Y-51452381D01*
X136042580Y-51452381D02*
X136042580Y-51642857D01*
X136042580Y-51642857D02*
X136090200Y-51738095D01*
X136090200Y-51738095D02*
X136137819Y-51785714D01*
X136137819Y-51785714D02*
X136233057Y-51833333D01*
X136233057Y-51833333D02*
X137042580Y-51833333D01*
X136090200Y-52261905D02*
X136042580Y-52404762D01*
X136042580Y-52404762D02*
X136042580Y-52642857D01*
X136042580Y-52642857D02*
X136090200Y-52738095D01*
X136090200Y-52738095D02*
X136137819Y-52785714D01*
X136137819Y-52785714D02*
X136233057Y-52833333D01*
X136233057Y-52833333D02*
X136328295Y-52833333D01*
X136328295Y-52833333D02*
X136423533Y-52785714D01*
X136423533Y-52785714D02*
X136471152Y-52738095D01*
X136471152Y-52738095D02*
X136518771Y-52642857D01*
X136518771Y-52642857D02*
X136566390Y-52452381D01*
X136566390Y-52452381D02*
X136614009Y-52357143D01*
X136614009Y-52357143D02*
X136661628Y-52309524D01*
X136661628Y-52309524D02*
X136756866Y-52261905D01*
X136756866Y-52261905D02*
X136852104Y-52261905D01*
X136852104Y-52261905D02*
X136947342Y-52309524D01*
X136947342Y-52309524D02*
X136994961Y-52357143D01*
X136994961Y-52357143D02*
X137042580Y-52452381D01*
X137042580Y-52452381D02*
X137042580Y-52690476D01*
X137042580Y-52690476D02*
X136994961Y-52833333D01*
X136566390Y-53595238D02*
X136518771Y-53738095D01*
X136518771Y-53738095D02*
X136471152Y-53785714D01*
X136471152Y-53785714D02*
X136375914Y-53833333D01*
X136375914Y-53833333D02*
X136233057Y-53833333D01*
X136233057Y-53833333D02*
X136137819Y-53785714D01*
X136137819Y-53785714D02*
X136090200Y-53738095D01*
X136090200Y-53738095D02*
X136042580Y-53642857D01*
X136042580Y-53642857D02*
X136042580Y-53261905D01*
X136042580Y-53261905D02*
X137042580Y-53261905D01*
X137042580Y-53261905D02*
X137042580Y-53595238D01*
X137042580Y-53595238D02*
X136994961Y-53690476D01*
X136994961Y-53690476D02*
X136947342Y-53738095D01*
X136947342Y-53738095D02*
X136852104Y-53785714D01*
X136852104Y-53785714D02*
X136756866Y-53785714D01*
X136756866Y-53785714D02*
X136661628Y-53738095D01*
X136661628Y-53738095D02*
X136614009Y-53690476D01*
X136614009Y-53690476D02*
X136566390Y-53595238D01*
X136566390Y-53595238D02*
X136566390Y-53261905D01*
X136042580Y-54785714D02*
X136042580Y-54214286D01*
X136042580Y-54500000D02*
X137042580Y-54500000D01*
X137042580Y-54500000D02*
X136899723Y-54404762D01*
X136899723Y-54404762D02*
X136804485Y-54309524D01*
X136804485Y-54309524D02*
X136756866Y-54214286D01*
D10*
X147954819Y-86738094D02*
X146954819Y-86738094D01*
X146954819Y-86738094D02*
X146954819Y-86499999D01*
X146954819Y-86499999D02*
X147002438Y-86357142D01*
X147002438Y-86357142D02*
X147097676Y-86261904D01*
X147097676Y-86261904D02*
X147192914Y-86214285D01*
X147192914Y-86214285D02*
X147383390Y-86166666D01*
X147383390Y-86166666D02*
X147526247Y-86166666D01*
X147526247Y-86166666D02*
X147716723Y-86214285D01*
X147716723Y-86214285D02*
X147811961Y-86261904D01*
X147811961Y-86261904D02*
X147907200Y-86357142D01*
X147907200Y-86357142D02*
X147954819Y-86499999D01*
X147954819Y-86499999D02*
X147954819Y-86738094D01*
X147954819Y-85214285D02*
X147954819Y-85785713D01*
X147954819Y-85499999D02*
X146954819Y-85499999D01*
X146954819Y-85499999D02*
X147097676Y-85595237D01*
X147097676Y-85595237D02*
X147192914Y-85690475D01*
X147192914Y-85690475D02*
X147240533Y-85785713D01*
D11*
X167909800Y-33833332D02*
X167957419Y-33690475D01*
X167957419Y-33690475D02*
X167957419Y-33452380D01*
X167957419Y-33452380D02*
X167909800Y-33357142D01*
X167909800Y-33357142D02*
X167862180Y-33309523D01*
X167862180Y-33309523D02*
X167766942Y-33261904D01*
X167766942Y-33261904D02*
X167671704Y-33261904D01*
X167671704Y-33261904D02*
X167576466Y-33309523D01*
X167576466Y-33309523D02*
X167528847Y-33357142D01*
X167528847Y-33357142D02*
X167481228Y-33452380D01*
X167481228Y-33452380D02*
X167433609Y-33642856D01*
X167433609Y-33642856D02*
X167385990Y-33738094D01*
X167385990Y-33738094D02*
X167338371Y-33785713D01*
X167338371Y-33785713D02*
X167243133Y-33833332D01*
X167243133Y-33833332D02*
X167147895Y-33833332D01*
X167147895Y-33833332D02*
X167052657Y-33785713D01*
X167052657Y-33785713D02*
X167005038Y-33738094D01*
X167005038Y-33738094D02*
X166957419Y-33642856D01*
X166957419Y-33642856D02*
X166957419Y-33404761D01*
X166957419Y-33404761D02*
X167005038Y-33261904D01*
X166957419Y-32928570D02*
X167957419Y-32690475D01*
X167957419Y-32690475D02*
X167243133Y-32499999D01*
X167243133Y-32499999D02*
X167957419Y-32309523D01*
X167957419Y-32309523D02*
X166957419Y-32071428D01*
X167957419Y-31119047D02*
X167481228Y-31452380D01*
X167957419Y-31690475D02*
X166957419Y-31690475D01*
X166957419Y-31690475D02*
X166957419Y-31309523D01*
X166957419Y-31309523D02*
X167005038Y-31214285D01*
X167005038Y-31214285D02*
X167052657Y-31166666D01*
X167052657Y-31166666D02*
X167147895Y-31119047D01*
X167147895Y-31119047D02*
X167290752Y-31119047D01*
X167290752Y-31119047D02*
X167385990Y-31166666D01*
X167385990Y-31166666D02*
X167433609Y-31214285D01*
X167433609Y-31214285D02*
X167481228Y-31309523D01*
X167481228Y-31309523D02*
X167481228Y-31690475D01*
X167957419Y-30166666D02*
X167957419Y-30738094D01*
X167957419Y-30452380D02*
X166957419Y-30452380D01*
X166957419Y-30452380D02*
X167100276Y-30547618D01*
X167100276Y-30547618D02*
X167195514Y-30642856D01*
X167195514Y-30642856D02*
X167243133Y-30738094D01*
X138046109Y-37714285D02*
X138046109Y-37380952D01*
X138569919Y-37238095D02*
X138569919Y-37714285D01*
X138569919Y-37714285D02*
X137569919Y-37714285D01*
X137569919Y-37714285D02*
X137569919Y-37238095D01*
X138569919Y-36809523D02*
X137569919Y-36809523D01*
X137569919Y-36809523D02*
X138569919Y-36238095D01*
X138569919Y-36238095D02*
X137569919Y-36238095D01*
X138474680Y-35190476D02*
X138522300Y-35238095D01*
X138522300Y-35238095D02*
X138569919Y-35380952D01*
X138569919Y-35380952D02*
X138569919Y-35476190D01*
X138569919Y-35476190D02*
X138522300Y-35619047D01*
X138522300Y-35619047D02*
X138427061Y-35714285D01*
X138427061Y-35714285D02*
X138331823Y-35761904D01*
X138331823Y-35761904D02*
X138141347Y-35809523D01*
X138141347Y-35809523D02*
X137998490Y-35809523D01*
X137998490Y-35809523D02*
X137808014Y-35761904D01*
X137808014Y-35761904D02*
X137712776Y-35714285D01*
X137712776Y-35714285D02*
X137617538Y-35619047D01*
X137617538Y-35619047D02*
X137569919Y-35476190D01*
X137569919Y-35476190D02*
X137569919Y-35380952D01*
X137569919Y-35380952D02*
X137617538Y-35238095D01*
X137617538Y-35238095D02*
X137665157Y-35190476D01*
X138569919Y-34238095D02*
X138569919Y-34809523D01*
X138569919Y-34523809D02*
X137569919Y-34523809D01*
X137569919Y-34523809D02*
X137712776Y-34619047D01*
X137712776Y-34619047D02*
X137808014Y-34714285D01*
X137808014Y-34714285D02*
X137855633Y-34809523D01*
D10*
X162454819Y-79166666D02*
X161978628Y-79499999D01*
X162454819Y-79738094D02*
X161454819Y-79738094D01*
X161454819Y-79738094D02*
X161454819Y-79357142D01*
X161454819Y-79357142D02*
X161502438Y-79261904D01*
X161502438Y-79261904D02*
X161550057Y-79214285D01*
X161550057Y-79214285D02*
X161645295Y-79166666D01*
X161645295Y-79166666D02*
X161788152Y-79166666D01*
X161788152Y-79166666D02*
X161883390Y-79214285D01*
X161883390Y-79214285D02*
X161931009Y-79261904D01*
X161931009Y-79261904D02*
X161978628Y-79357142D01*
X161978628Y-79357142D02*
X161978628Y-79738094D01*
X162454819Y-78214285D02*
X162454819Y-78785713D01*
X162454819Y-78499999D02*
X161454819Y-78499999D01*
X161454819Y-78499999D02*
X161597676Y-78595237D01*
X161597676Y-78595237D02*
X161692914Y-78690475D01*
X161692914Y-78690475D02*
X161740533Y-78785713D01*
X165407200Y-36404761D02*
X165454819Y-36261904D01*
X165454819Y-36261904D02*
X165454819Y-36023809D01*
X165454819Y-36023809D02*
X165407200Y-35928571D01*
X165407200Y-35928571D02*
X165359580Y-35880952D01*
X165359580Y-35880952D02*
X165264342Y-35833333D01*
X165264342Y-35833333D02*
X165169104Y-35833333D01*
X165169104Y-35833333D02*
X165073866Y-35880952D01*
X165073866Y-35880952D02*
X165026247Y-35928571D01*
X165026247Y-35928571D02*
X164978628Y-36023809D01*
X164978628Y-36023809D02*
X164931009Y-36214285D01*
X164931009Y-36214285D02*
X164883390Y-36309523D01*
X164883390Y-36309523D02*
X164835771Y-36357142D01*
X164835771Y-36357142D02*
X164740533Y-36404761D01*
X164740533Y-36404761D02*
X164645295Y-36404761D01*
X164645295Y-36404761D02*
X164550057Y-36357142D01*
X164550057Y-36357142D02*
X164502438Y-36309523D01*
X164502438Y-36309523D02*
X164454819Y-36214285D01*
X164454819Y-36214285D02*
X164454819Y-35976190D01*
X164454819Y-35976190D02*
X164502438Y-35833333D01*
X164454819Y-35499999D02*
X165454819Y-35261904D01*
X165454819Y-35261904D02*
X164740533Y-35071428D01*
X164740533Y-35071428D02*
X165454819Y-34880952D01*
X165454819Y-34880952D02*
X164454819Y-34642857D01*
X165454819Y-34261904D02*
X164454819Y-34261904D01*
X164454819Y-34261904D02*
X165169104Y-33928571D01*
X165169104Y-33928571D02*
X164454819Y-33595238D01*
X164454819Y-33595238D02*
X165454819Y-33595238D01*
X165454819Y-32595238D02*
X165454819Y-33166666D01*
X165454819Y-32880952D02*
X164454819Y-32880952D01*
X164454819Y-32880952D02*
X164597676Y-32976190D01*
X164597676Y-32976190D02*
X164692914Y-33071428D01*
X164692914Y-33071428D02*
X164740533Y-33166666D01*
%TO.C,R2*%
D12*
X161580000Y-63920000D02*
X161580000Y-60080000D01*
X163420000Y-63920000D02*
X163420000Y-60080000D01*
%TO.C,REF\u002A\u002A*%
D11*
X164000000Y-62500000D02*
X167000000Y-62500000D01*
X167000000Y-64500000D01*
X164000000Y-64500000D01*
X164000000Y-62500000D01*
%TO.C,D1*%
D12*
X164860000Y-46940000D02*
X161000000Y-46940000D01*
X164860000Y-46940000D02*
X164860000Y-50060000D01*
X164860000Y-50060000D02*
X161000000Y-50060000D01*
X163740000Y-50060000D02*
X164860000Y-50060000D01*
X164860000Y-50460000D01*
X163740000Y-50460000D01*
X163740000Y-50060000D01*
X164860000Y-47230000D02*
X164990000Y-47230000D01*
X164860000Y-47230000D01*
X164860000Y-49770000D02*
X164990000Y-49770000D01*
X164860000Y-49770000D01*
X161000000Y-50060000D02*
G75*
G02*
X161000000Y-46940000I0J1560000D01*
G01*
X149440000Y-85125000D02*
X149440000Y-81265000D01*
X152560000Y-85125000D02*
X149440000Y-85125000D01*
X152560000Y-85125000D02*
X152560000Y-81265000D01*
X149040000Y-84005000D02*
X149440000Y-84005000D01*
X149440000Y-85125000D01*
X149040000Y-85125000D01*
X149040000Y-84005000D01*
X149730000Y-85125000D02*
X149730000Y-85255000D01*
X149730000Y-85125000D01*
X152270000Y-85125000D02*
X152270000Y-85255000D01*
X152270000Y-85125000D01*
X149440000Y-81265000D02*
G75*
G02*
X152560000Y-81265000I1560000J0D01*
G01*
%TO.C,C2*%
D11*
X159500000Y-62000000D02*
X161500000Y-62000000D01*
X161500000Y-65000000D01*
X159500000Y-65000000D01*
X159500000Y-62000000D01*
%TO.C,R1*%
D12*
X159080000Y-76080000D02*
X159080000Y-79920000D01*
X160920000Y-76080000D02*
X160920000Y-79920000D01*
%TO.C,REF\u002A\u002A*%
D11*
X133500000Y-69500000D02*
X136500000Y-69500000D01*
X136500000Y-71500000D01*
X133500000Y-71500000D01*
X133500000Y-69500000D01*
%TO.C,SWM1*%
D12*
X157750000Y-33750000D02*
X157750000Y-35250000D01*
X158500000Y-37982011D02*
X163000000Y-37982011D01*
X163500000Y-31058221D02*
X159000000Y-31058221D01*
X164750000Y-35250000D02*
X164750000Y-33750000D01*
%TO.C,U1*%
D11*
X142500000Y-50500000D02*
X158500000Y-50500000D01*
X158500000Y-78500000D01*
X142500000Y-78500000D01*
X142500000Y-50500000D01*
%TD*%
M02*
