%TF.GenerationSoftware,KiCad,Pcbnew,10.0.4*%
%TF.CreationDate,2026-07-07T18:33:14+02:00*%
%TF.ProjectId,mouse1-1,6d6f7573-6531-42d3-912e-6b696361645f,07/07/2026*%
%TF.SameCoordinates,Original*%
%TF.FileFunction,Soldermask,Top*%
%TF.FilePolarity,Negative*%
%FSLAX46Y46*%
G04 Gerber Fmt 4.6, Leading zero omitted, Abs format (unit mm)*
G04 Created by KiCad (PCBNEW 10.0.4) date 2026-07-07 18:33:14*
%MOMM*%
%LPD*%
G01*
G04 APERTURE LIST*
G04 Aperture macros list*
%AMRoundRect*
0 Rectangle with rounded corners*
0 $1 Rounding radius*
0 $2 $3 $4 $5 $6 $7 $8 $9 X,Y pos of 4 corners*
0 Add a 4 corners polygon primitive as box body*
4,1,4,$2,$3,$4,$5,$6,$7,$8,$9,$2,$3,0*
0 Add four circle primitives for the rounded corners*
1,1,$1+$1,$2,$3*
1,1,$1+$1,$4,$5*
1,1,$1+$1,$6,$7*
1,1,$1+$1,$8,$9*
0 Add four rect primitives between the rounded corners*
20,1,$1+$1,$2,$3,$4,$5,0*
20,1,$1+$1,$4,$5,$6,$7,0*
20,1,$1+$1,$6,$7,$8,$9,0*
20,1,$1+$1,$8,$9,$2,$3,0*%
G04 Aperture macros list end*
%ADD10C,1.400000*%
%ADD11RoundRect,0.190500X-0.444500X0.444500X-0.444500X-0.444500X0.444500X-0.444500X0.444500X0.444500X0*%
%ADD12C,2.100000*%
%ADD13RoundRect,0.190500X-0.444500X-0.444500X0.444500X-0.444500X0.444500X0.444500X-0.444500X0.444500X0*%
%ADD14R,1.800000X1.800000*%
%ADD15C,1.800000*%
%ADD16C,1.512000*%
%ADD17RoundRect,0.190500X0.444500X-0.444500X0.444500X0.444500X-0.444500X0.444500X-0.444500X-0.444500X0*%
%ADD18R,2.252440X1.134998*%
%ADD19R,2.201764X1.000000*%
%ADD20C,2.000000*%
G04 APERTURE END LIST*
D10*
%TO.C,R2*%
X162500000Y-64540000D03*
X162500000Y-59460000D03*
%TD*%
D11*
%TO.C,REF\u002A\u002A*%
X164500000Y-63500000D03*
X166500000Y-63500000D03*
%TD*%
D12*
%TO.C,REF\u002A\u002A*%
X166500000Y-76500000D03*
%TD*%
D13*
%TO.C,SWL1*%
X133500000Y-28862500D03*
X138500000Y-28862500D03*
X143500000Y-28862500D03*
%TD*%
D14*
%TO.C,D1*%
X166070000Y-47230000D03*
D15*
X166070000Y-49770000D03*
%TD*%
D16*
%TO.C,USB1*%
X134000000Y-53000000D03*
X134000000Y-55000000D03*
X134000000Y-58000000D03*
X134000000Y-60000000D03*
%TD*%
D14*
%TO.C,D1*%
X152270000Y-86335000D03*
D15*
X149730000Y-86335000D03*
%TD*%
D13*
%TO.C,C2*%
X160500000Y-64500000D03*
X160500000Y-62500000D03*
%TD*%
D12*
%TO.C,REF\u002A\u002A*%
X166500000Y-41500000D03*
%TD*%
D13*
%TO.C,SWR1*%
X157500000Y-28862500D03*
X162500000Y-28862500D03*
X167500000Y-28862500D03*
%TD*%
D17*
%TO.C,ENC1*%
X142112500Y-38500000D03*
X142112500Y-36000000D03*
X142112500Y-33500000D03*
D18*
X140011680Y-41067499D03*
D19*
X140037018Y-31000000D03*
%TD*%
D12*
%TO.C,REF\u002A\u002A*%
X134500000Y-41500000D03*
%TD*%
%TO.C,REF\u002A\u002A*%
X134500000Y-76000000D03*
%TD*%
D10*
%TO.C,R1*%
X160000000Y-75460000D03*
X160000000Y-80540000D03*
%TD*%
D17*
%TO.C,REF\u002A\u002A*%
X136000000Y-70500000D03*
X134000000Y-70500000D03*
%TD*%
D20*
%TO.C,SWM1*%
X161000000Y-32250000D03*
X161000000Y-36750000D03*
%TD*%
D16*
%TO.C,U1*%
X143500000Y-61500000D03*
X143500000Y-63500000D03*
X143500000Y-65500000D03*
X143500000Y-67500000D03*
X157500000Y-66500000D03*
X157500000Y-64500000D03*
X157500000Y-62500000D03*
X157500000Y-60500000D03*
%TD*%
M02*
