%TF.GenerationSoftware,KiCad,Pcbnew,10.0.4*%
%TF.CreationDate,2026-07-07T16:46:10+02:00*%
%TF.ProjectId,mouse1-1,6d6f7573-6531-42d3-912e-6b696361645f,07/07/2026*%
%TF.SameCoordinates,Original*%
%TF.FileFunction,Copper,L2,Bot*%
%TF.FilePolarity,Positive*%
%FSLAX46Y46*%
G04 Gerber Fmt 4.6, Leading zero omitted, Abs format (unit mm)*
G04 Created by KiCad (PCBNEW 10.0.4) date 2026-07-07 16:46:10*
%MOMM*%
%LPD*%
G01*
G04 APERTURE LIST*
G04 Aperture macros list*
%AMRoundRect*
0 Rectangle with rounded corners*
0 $1 Rounding radius*
0 $2 $3 $4 $5 $6 $7 $8 $9 X,Y pos of 4 corners*
0 Add a 4 corners polygon primitive as box body*
4,1,4,$2,$3,$4,$5,$6,$7,$8,$9,$2,$3,0*
0 Add four circle primitives for the rounded corners*
1,1,$1+$1,$2,$3*
1,1,$1+$1,$4,$5*
1,1,$1+$1,$6,$7*
1,1,$1+$1,$8,$9*
0 Add four rect primitives between the rounded corners*
20,1,$1+$1,$2,$3,$4,$5,0*
20,1,$1+$1,$4,$5,$6,$7,0*
20,1,$1+$1,$6,$7,$8,$9,0*
20,1,$1+$1,$8,$9,$2,$3,0*%
G04 Aperture macros list end*
%TA.AperFunction,ComponentPad*%
%ADD10RoundRect,0.190500X0.444500X-0.444500X0.444500X0.444500X-0.444500X0.444500X-0.444500X-0.444500X0*%
%TD*%
%TA.AperFunction,ComponentPad*%
%ADD11R,2.252440X1.134998*%
%TD*%
%TA.AperFunction,ComponentPad*%
%ADD12R,2.201764X1.000000*%
%TD*%
%TA.AperFunction,ComponentPad*%
%ADD13RoundRect,0.190500X-0.444500X-0.444500X0.444500X-0.444500X0.444500X0.444500X-0.444500X0.444500X0*%
%TD*%
%TA.AperFunction,ComponentPad*%
%ADD14C,1.308000*%
%TD*%
%TA.AperFunction,ComponentPad*%
%ADD15R,0.986872X1.298245*%
%TD*%
%TA.AperFunction,ComponentPad*%
%ADD16R,0.925400X1.135000*%
%TD*%
%TA.AperFunction,ComponentPad*%
%ADD17R,1.800000X1.800000*%
%TD*%
%TA.AperFunction,ComponentPad*%
%ADD18C,1.800000*%
%TD*%
%TA.AperFunction,ComponentPad*%
%ADD19C,1.400000*%
%TD*%
%TA.AperFunction,ComponentPad*%
%ADD20C,2.000000*%
%TD*%
%TA.AperFunction,Conductor*%
%ADD21C,0.300000*%
%TD*%
%TA.AperFunction,Conductor*%
%ADD22C,0.200000*%
%TD*%
G04 APERTURE END LIST*
D10*
%TO.P,ENC1,1,A_1*%
%TO.N,Net-(ENC1-A)*%
X142000000Y-38500000D03*
%TO.P,ENC1,2,B_2*%
%TO.N,Net-(ENC1-B)*%
X142000000Y-36000000D03*
%TO.P,ENC1,3,C_3*%
%TO.N,Net-(ENC1-C)*%
X142000000Y-33500000D03*
D11*
%TO.P,ENC1,4,THT1_4*%
%TO.N,unconnected-(ENC1-THT1-Pad4)*%
X139899180Y-41067499D03*
D12*
%TO.P,ENC1,5,THT2_5*%
%TO.N,unconnected-(ENC1-THT2-Pad5)*%
X139924518Y-31000000D03*
%TD*%
D13*
%TO.P,SWL1,1,C_1*%
%TO.N,Net-(ENC1-A)*%
X133500000Y-28862500D03*
%TO.P,SWL1,2,NO_2*%
%TO.N,Net-(SWL1-NO)*%
X138500000Y-28862500D03*
%TO.P,SWL1,3,NC_3*%
%TO.N,unconnected-(SWL1-NC-Pad3)*%
X143500000Y-28862500D03*
%TD*%
D14*
%TO.P,USB1,1,C_1*%
%TO.N,Net-(U1-DP)*%
X134000000Y-53000000D03*
%TO.P,USB1,2,D_2*%
%TO.N,Net-(U1-DM)*%
X134000000Y-55000000D03*
%TO.P,USB1,3,GND_3*%
%TO.N,Net-(ENC1-A)*%
X134000000Y-58000000D03*
%TO.P,USB1,4,VCC_4*%
%TO.N,Net-(D1-A)*%
X134000000Y-60000000D03*
%TD*%
D15*
%TO.P,C1,1*%
%TO.N,Net-(D1-A)*%
X166993445Y-63985878D03*
D16*
%TO.P,C1,2*%
%TO.N,Net-(ENC1-A)*%
X164037300Y-64067500D03*
%TD*%
D17*
%TO.P,D1,1,K_1*%
%TO.N,Net-(D1-K)*%
X152270000Y-86335000D03*
D18*
%TO.P,D1,2,A_2*%
%TO.N,Net-(D1-A)*%
X149730000Y-86335000D03*
%TD*%
D13*
%TO.P,SWR1,1,C_1*%
%TO.N,Net-(ENC1-B)*%
X157500000Y-28862500D03*
%TO.P,SWR1,2,NO_2*%
%TO.N,Net-(SWR1-NO)*%
X162500000Y-28862500D03*
%TO.P,SWR1,3,NC_3*%
%TO.N,unconnected-(SWR1-NC-Pad3)*%
X167500000Y-28862500D03*
%TD*%
D19*
%TO.P,R1,1*%
%TO.N,Net-(SWR1-NO)*%
X160000000Y-75460000D03*
%TO.P,R1,2*%
%TO.N,Net-(D1-K)*%
X160000000Y-80540000D03*
%TD*%
D20*
%TO.P,SWM1,1,1_1*%
%TO.N,Net-(SWL1-NO)*%
X161000000Y-32250000D03*
%TO.P,SWM1,2,2_2*%
%TO.N,Net-(SWR1-NO)*%
X161000000Y-36750000D03*
%TD*%
D14*
%TO.P,U1,1,SK2_1*%
%TO.N,Net-(ENC1-C)*%
X143500000Y-61500000D03*
%TO.P,U1,2,SK0_2*%
%TO.N,Net-(SWL1-NO)*%
X143500000Y-63500000D03*
%TO.P,U1,3,DP_3*%
%TO.N,Net-(U1-DP)*%
X143500000Y-65500000D03*
%TO.P,U1,4,DM_4*%
%TO.N,Net-(U1-DM)*%
X143500000Y-67500000D03*
%TO.P,U1,5,LED_5*%
%TO.N,Net-(SWR1-NO)*%
X157500000Y-66500000D03*
%TO.P,U1,6,GND_6*%
%TO.N,Net-(ENC1-A)*%
X157500000Y-64500000D03*
%TO.P,U1,7,VDD_7*%
%TO.N,Net-(D1-A)*%
X157500000Y-62500000D03*
%TO.P,U1,8,SK1_8*%
%TO.N,Net-(ENC1-B)*%
X157500000Y-60500000D03*
%TD*%
%TO.N,Net-(ENC1-A)*%
D21*
X158000000Y-81055075D02*
X164000000Y-75055075D01*
X153500000Y-84500000D02*
X149000000Y-84500000D01*
X134185460Y-44500000D02*
X140185460Y-38500000D01*
X158000000Y-82000000D02*
X158000000Y-81055075D01*
D22*
X163500000Y-64500000D02*
X164000000Y-64000000D01*
D21*
X149000000Y-84500000D02*
X136000000Y-71500000D01*
X132500000Y-56500000D02*
X132500000Y-44500000D01*
X132500000Y-44500000D02*
X134185460Y-44500000D01*
X158000000Y-82000000D02*
X154500000Y-85500000D01*
X142112500Y-38500000D02*
X133500000Y-29887500D01*
X136000000Y-71500000D02*
X136000000Y-60000000D01*
X136000000Y-60000000D02*
X134000000Y-58000000D01*
D22*
X157500000Y-64500000D02*
X163500000Y-64500000D01*
D21*
X164000000Y-63500000D02*
X164000000Y-64000000D01*
X140185460Y-38500000D02*
X142112500Y-38500000D01*
X134000000Y-58000000D02*
X132500000Y-56500000D01*
X164000000Y-75055075D02*
X164000000Y-64000000D01*
X154500000Y-85500000D02*
X153500000Y-84500000D01*
X133500000Y-29887500D02*
X133500000Y-28862500D01*
%TO.N,Net-(SWL1-NO)*%
D22*
X141500000Y-61500000D02*
X143047500Y-59952500D01*
X142089550Y-37565000D02*
X138500000Y-33975450D01*
X143047500Y-59952500D02*
X143047500Y-37847050D01*
X138500000Y-33975450D02*
X138500000Y-28862500D01*
X162250000Y-32250000D02*
X164500000Y-30000000D01*
X162250000Y-32250000D02*
X161000000Y-32250000D01*
X142765450Y-37565000D02*
X142089550Y-37565000D01*
X143500000Y-63500000D02*
X141500000Y-61500000D01*
X164500000Y-30000000D02*
X164500000Y-27500000D01*
X143047500Y-37847050D02*
X142765450Y-37565000D01*
X141862500Y-25500000D02*
X162500000Y-25500000D01*
X162500000Y-25500000D02*
X164500000Y-27500000D01*
X138500000Y-28862500D02*
X141862500Y-25500000D01*
%TO.N,Net-(U1-DP)*%
X143500000Y-65500000D02*
X143500000Y-66000000D01*
X134000000Y-53000000D02*
X141000000Y-60000000D01*
X142000000Y-64000000D02*
X143500000Y-65500000D01*
X141000000Y-60000000D02*
X141000000Y-64000000D01*
X141000000Y-64000000D02*
X142000000Y-64000000D01*
%TO.N,Net-(U1-DM)*%
X140500000Y-64500000D02*
X143500000Y-67500000D01*
X134000000Y-55000000D02*
X137500000Y-58500000D01*
X137500000Y-64500000D02*
X140500000Y-64500000D01*
X137500000Y-58500000D02*
X137500000Y-64500000D01*
%TO.N,Net-(D1-A)*%
D21*
X159334315Y-83100000D02*
X154500000Y-87934315D01*
X168500000Y-82000000D02*
X165000000Y-82000000D01*
X168500000Y-65500000D02*
X168500000Y-82000000D01*
X163900000Y-83100000D02*
X159334315Y-83100000D01*
X167000000Y-64000000D02*
X168500000Y-65500000D01*
X134000000Y-70605000D02*
X134000000Y-60000000D01*
D22*
X165500000Y-62500000D02*
X167000000Y-64000000D01*
X157500000Y-62500000D02*
X165500000Y-62500000D01*
D21*
X149730000Y-86335000D02*
X134000000Y-70605000D01*
X154500000Y-88000000D02*
X154360000Y-88140000D01*
X154360000Y-88140000D02*
X151535000Y-88140000D01*
X154500000Y-87934315D02*
X154500000Y-88000000D01*
X165000000Y-82000000D02*
X163900000Y-83100000D01*
X151535000Y-88140000D02*
X149730000Y-86335000D01*
%TO.N,Net-(D1-K)*%
X155194949Y-86335000D02*
X152270000Y-86335000D01*
X160000000Y-81529949D02*
X155194949Y-86335000D01*
X160000000Y-80540000D02*
X160000000Y-81529949D01*
%TO.N,Net-(ENC1-B)*%
D22*
X163152950Y-27927500D02*
X158435000Y-27927500D01*
X157500000Y-60500000D02*
X163435000Y-54565000D01*
X155637500Y-27000000D02*
X143500000Y-27000000D01*
X162842157Y-29842157D02*
X163657843Y-29842157D01*
X163500000Y-28500000D02*
X163435000Y-28500000D01*
X162842157Y-29842157D02*
X162886814Y-29797500D01*
X158435000Y-27927500D02*
X157500000Y-28862500D01*
X163435000Y-36935000D02*
X159700000Y-33200000D01*
X159700000Y-33200000D02*
X159700000Y-31711522D01*
X163435000Y-28209550D02*
X163435000Y-28500000D01*
X157500000Y-60500000D02*
X157500000Y-60000000D01*
X163435000Y-54565000D02*
X163435000Y-36935000D01*
X141177500Y-35065000D02*
X142112500Y-36000000D01*
X163435000Y-28209550D02*
X163152950Y-27927500D01*
X157500000Y-60500000D02*
X157500000Y-61000000D01*
X163657843Y-29842157D02*
X164000000Y-29500000D01*
X159700000Y-31711522D02*
X161569365Y-29842157D01*
X164000000Y-29000000D02*
X163500000Y-28500000D01*
X143500000Y-27000000D02*
X141500000Y-29000000D01*
X164000000Y-29500000D02*
X164000000Y-29000000D01*
X161569365Y-29842157D02*
X162842157Y-29842157D01*
X141177500Y-32847050D02*
X141177500Y-35065000D01*
X141500000Y-32524550D02*
X141177500Y-32847050D01*
X157500000Y-60500000D02*
X158000000Y-60500000D01*
X157500000Y-28862500D02*
X155637500Y-27000000D01*
X141500000Y-29000000D02*
X141500000Y-32524550D01*
%TO.N,Net-(SWR1-NO)*%
X160000000Y-69000000D02*
X160000000Y-75460000D01*
X157500000Y-66500000D02*
X160000000Y-69000000D01*
X161000000Y-35500000D02*
X157500000Y-32000000D01*
X156350000Y-65350000D02*
X156350000Y-41400000D01*
X161000000Y-36750000D02*
X161000000Y-35500000D01*
X157500000Y-31000000D02*
X159637500Y-28862500D01*
X159637500Y-28862500D02*
X162500000Y-28862500D01*
X157500000Y-32000000D02*
X157500000Y-31000000D01*
X156350000Y-41400000D02*
X161000000Y-36750000D01*
X157500000Y-66500000D02*
X156350000Y-65350000D01*
X157500000Y-66500000D02*
X157500000Y-67000000D01*
%TO.N,Net-(ENC1-C)*%
X143500000Y-61500000D02*
X143500000Y-34887500D01*
X143500000Y-34887500D02*
X142112500Y-33500000D01*
%TD*%
%TA.AperFunction,NonConductor*%
G36*
X162266942Y-26120185D02*
G01*
X162287584Y-26136819D01*
X163266083Y-27115318D01*
X163299568Y-27176641D01*
X163294584Y-27246333D01*
X163252712Y-27302266D01*
X163187248Y-27326683D01*
X163178402Y-27326999D01*
X163066297Y-27326999D01*
X163066281Y-27327000D01*
X158521670Y-27327000D01*
X158521654Y-27326999D01*
X158514058Y-27326999D01*
X158355943Y-27326999D01*
X158279579Y-27347461D01*
X158203214Y-27367923D01*
X158203209Y-27367926D01*
X158066290Y-27446975D01*
X158066282Y-27446981D01*
X157822583Y-27690681D01*
X157761260Y-27724166D01*
X157734902Y-27727000D01*
X157265098Y-27727000D01*
X157198059Y-27707315D01*
X157177417Y-27690681D01*
X156125090Y-26638355D01*
X156125088Y-26638352D01*
X156006217Y-26519481D01*
X156006216Y-26519480D01*
X155919404Y-26469360D01*
X155919404Y-26469359D01*
X155919400Y-26469358D01*
X155869285Y-26440423D01*
X155716557Y-26399499D01*
X155558443Y-26399499D01*
X155550847Y-26399499D01*
X155550831Y-26399500D01*
X143579057Y-26399500D01*
X143420943Y-26399500D01*
X143268215Y-26440423D01*
X143268214Y-26440423D01*
X143268212Y-26440424D01*
X143268209Y-26440425D01*
X143218096Y-26469359D01*
X143218095Y-26469360D01*
X143174689Y-26494420D01*
X143131285Y-26519479D01*
X143131282Y-26519481D01*
X141019479Y-28631284D01*
X140995624Y-28672603D01*
X140985541Y-28690069D01*
X140940423Y-28768215D01*
X140899499Y-28920943D01*
X140899499Y-28920945D01*
X140899499Y-29089046D01*
X140899500Y-29089059D01*
X140899500Y-29875500D01*
X140879815Y-29942539D01*
X140827011Y-29988294D01*
X140775500Y-29999500D01*
X139528584Y-29999500D01*
X139461545Y-29979815D01*
X139415790Y-29927011D01*
X139405846Y-29857853D01*
X139434871Y-29794297D01*
X139440903Y-29787819D01*
X139441086Y-29787636D01*
X139492439Y-29736283D01*
X139579251Y-29592678D01*
X139629173Y-29432471D01*
X139635500Y-29362847D01*
X139635499Y-28627595D01*
X139655183Y-28560557D01*
X139671813Y-28539920D01*
X142074916Y-26136819D01*
X142136239Y-26103334D01*
X142162597Y-26100500D01*
X162199903Y-26100500D01*
X162266942Y-26120185D01*
G37*
%TD.AperFunction*%
%TA.AperFunction,NonConductor*%
G36*
X162763100Y-30442658D02*
G01*
X162908745Y-30442658D01*
X162975784Y-30462343D01*
X163021539Y-30515147D01*
X163026407Y-30549009D01*
X163031482Y-30584305D01*
X163002457Y-30647861D01*
X163002454Y-30647862D01*
X162996425Y-30654339D01*
X162345545Y-31305218D01*
X162284222Y-31338703D01*
X162214530Y-31333719D01*
X162158597Y-31291847D01*
X162157547Y-31290424D01*
X162144517Y-31272490D01*
X161977512Y-31105485D01*
X161977510Y-31105483D01*
X161786433Y-30966657D01*
X161696718Y-30920945D01*
X161612350Y-30877957D01*
X161561554Y-30829982D01*
X161544759Y-30762161D01*
X161567296Y-30696026D01*
X161580951Y-30679804D01*
X161781782Y-30478973D01*
X161843105Y-30445491D01*
X161869462Y-30442657D01*
X162755489Y-30442657D01*
X162763096Y-30442657D01*
X162763100Y-30442658D01*
G37*
%TD.AperFunction*%
%TA.AperFunction,NonConductor*%
G36*
X160866963Y-29482685D02*
G01*
X160912718Y-29535489D01*
X160922662Y-29604647D01*
X160893637Y-29668203D01*
X160887605Y-29674681D01*
X159219481Y-31342804D01*
X159219479Y-31342807D01*
X159186750Y-31399497D01*
X159186749Y-31399499D01*
X159140423Y-31479736D01*
X159140423Y-31479737D01*
X159099499Y-31632465D01*
X159099499Y-31632467D01*
X159099499Y-31800568D01*
X159099500Y-31800581D01*
X159099500Y-32450903D01*
X159079815Y-32517942D01*
X159027011Y-32563697D01*
X158957853Y-32573641D01*
X158894297Y-32544616D01*
X158887819Y-32538584D01*
X158136819Y-31787584D01*
X158103334Y-31726261D01*
X158100500Y-31699903D01*
X158100500Y-31300097D01*
X158120185Y-31233058D01*
X158136819Y-31212416D01*
X159849916Y-29499319D01*
X159911239Y-29465834D01*
X159937597Y-29463000D01*
X160799924Y-29463000D01*
X160866963Y-29482685D01*
G37*
%TD.AperFunction*%
%TA.AperFunction,NonConductor*%
G36*
X140784185Y-32003049D02*
G01*
X140793147Y-32001761D01*
X140817187Y-32012739D01*
X140842539Y-32020184D01*
X140848466Y-32027024D01*
X140856703Y-32030786D01*
X140870992Y-32053020D01*
X140888294Y-32072988D01*
X140890581Y-32083502D01*
X140894477Y-32089564D01*
X140899500Y-32124499D01*
X140899500Y-32224452D01*
X140879815Y-32291491D01*
X140863181Y-32312133D01*
X140696981Y-32478332D01*
X140696977Y-32478337D01*
X140650075Y-32559576D01*
X140650075Y-32559577D01*
X140617923Y-32615264D01*
X140576999Y-32767994D01*
X140576999Y-32936096D01*
X140577000Y-32936109D01*
X140577000Y-34903853D01*
X140557315Y-34970892D01*
X140504511Y-35016647D01*
X140435353Y-35026591D01*
X140371797Y-34997566D01*
X140365319Y-34991534D01*
X139136819Y-33763034D01*
X139103334Y-33701711D01*
X139100500Y-33675353D01*
X139100500Y-32124499D01*
X139120185Y-32057460D01*
X139172989Y-32011705D01*
X139224500Y-32000499D01*
X140775500Y-32000499D01*
X140784185Y-32003049D01*
G37*
%TD.AperFunction*%
%TA.AperFunction,NonConductor*%
G36*
X132455703Y-29662149D02*
G01*
X132480617Y-29691713D01*
X132507557Y-29736278D01*
X132507560Y-29736282D01*
X132626217Y-29854939D01*
X132626222Y-29854943D01*
X132745439Y-29927011D01*
X132769822Y-29941751D01*
X132782330Y-29945648D01*
X132793611Y-29953163D01*
X132806803Y-29956281D01*
X132822118Y-29972153D01*
X132840477Y-29984383D01*
X132846949Y-29997887D01*
X132855318Y-30006560D01*
X132867059Y-30039841D01*
X132870314Y-30056204D01*
X132874499Y-30077244D01*
X132923535Y-30195627D01*
X132994723Y-30302169D01*
X132994726Y-30302173D01*
X132994727Y-30302174D01*
X140330373Y-37637819D01*
X140363858Y-37699142D01*
X140358874Y-37768834D01*
X140317002Y-37824767D01*
X140251538Y-37849184D01*
X140242692Y-37849500D01*
X140121389Y-37849500D01*
X139995721Y-37874497D01*
X139995715Y-37874499D01*
X139877330Y-37923535D01*
X139770791Y-37994722D01*
X139770784Y-37994728D01*
X136002104Y-41763408D01*
X135940781Y-41796893D01*
X135871089Y-41791909D01*
X135815156Y-41750037D01*
X135790739Y-41684573D01*
X135791949Y-41656335D01*
X135800500Y-41602352D01*
X135800500Y-41397648D01*
X135768477Y-41195466D01*
X135705220Y-41000781D01*
X135705218Y-41000778D01*
X135705218Y-41000776D01*
X135671503Y-40934607D01*
X135612287Y-40818390D01*
X135604556Y-40807749D01*
X135491971Y-40652786D01*
X135347213Y-40508028D01*
X135181613Y-40387715D01*
X135181612Y-40387714D01*
X135181610Y-40387713D01*
X135124653Y-40358691D01*
X134999223Y-40294781D01*
X134804534Y-40231522D01*
X134629995Y-40203878D01*
X134602352Y-40199500D01*
X134397648Y-40199500D01*
X134373329Y-40203351D01*
X134195465Y-40231522D01*
X134000776Y-40294781D01*
X133818386Y-40387715D01*
X133652786Y-40508028D01*
X133508028Y-40652786D01*
X133387715Y-40818386D01*
X133294781Y-41000776D01*
X133231522Y-41195465D01*
X133199500Y-41397648D01*
X133199500Y-41602351D01*
X133231522Y-41804534D01*
X133294781Y-41999223D01*
X133387715Y-42181613D01*
X133508028Y-42347213D01*
X133652786Y-42491971D01*
X133807749Y-42604556D01*
X133818390Y-42612287D01*
X133934607Y-42671503D01*
X134000776Y-42705218D01*
X134000778Y-42705218D01*
X134000781Y-42705220D01*
X134105137Y-42739127D01*
X134195465Y-42768477D01*
X134296557Y-42784488D01*
X134397648Y-42800500D01*
X134397649Y-42800500D01*
X134602350Y-42800500D01*
X134602352Y-42800500D01*
X134656331Y-42791950D01*
X134725621Y-42800904D01*
X134779074Y-42845900D01*
X134799714Y-42912651D01*
X134780990Y-42979965D01*
X134763408Y-43002104D01*
X133952333Y-43813181D01*
X133891010Y-43846666D01*
X133864652Y-43849500D01*
X132435929Y-43849500D01*
X132398692Y-43856907D01*
X132329100Y-43850680D01*
X132273923Y-43807817D01*
X132250678Y-43741928D01*
X132250500Y-43735290D01*
X132250500Y-29755862D01*
X132270185Y-29688823D01*
X132322989Y-29643068D01*
X132392147Y-29633124D01*
X132455703Y-29662149D01*
G37*
%TD.AperFunction*%
%TA.AperFunction,NonConductor*%
G36*
X162624033Y-36993540D02*
G01*
X162675093Y-37024328D01*
X162798181Y-37147416D01*
X162831666Y-37208739D01*
X162834500Y-37235097D01*
X162834500Y-54264902D01*
X162814815Y-54331941D01*
X162798181Y-54352583D01*
X157820624Y-59330139D01*
X157759301Y-59363624D01*
X157713545Y-59364931D01*
X157620888Y-59350255D01*
X157590861Y-59345500D01*
X157409139Y-59345500D01*
X157349310Y-59354976D01*
X157229652Y-59373928D01*
X157229649Y-59373928D01*
X157112818Y-59411889D01*
X157042976Y-59413884D01*
X156983144Y-59377803D01*
X156952316Y-59315102D01*
X156950500Y-59293958D01*
X156950500Y-41700096D01*
X156970185Y-41633057D01*
X156986814Y-41612420D01*
X160396437Y-38202796D01*
X160457758Y-38169313D01*
X160522433Y-38172547D01*
X160648632Y-38213553D01*
X160736110Y-38227408D01*
X160881903Y-38250500D01*
X160881908Y-38250500D01*
X161118097Y-38250500D01*
X161351368Y-38213553D01*
X161384468Y-38202798D01*
X161575992Y-38140568D01*
X161786433Y-38033343D01*
X161977510Y-37894517D01*
X162144517Y-37727510D01*
X162283343Y-37536433D01*
X162390568Y-37325992D01*
X162463553Y-37101368D01*
X162464939Y-37092616D01*
X162494862Y-37029484D01*
X162554170Y-36992548D01*
X162624033Y-36993540D01*
G37*
%TD.AperFunction*%
%TA.AperFunction,NonConductor*%
G36*
X140871756Y-39170185D02*
G01*
X140917511Y-39222989D01*
X140917792Y-39223608D01*
X140920749Y-39230179D01*
X141007556Y-39373777D01*
X141007560Y-39373782D01*
X141126217Y-39492439D01*
X141126222Y-39492443D01*
X141246815Y-39565343D01*
X141269822Y-39579251D01*
X141430029Y-39629173D01*
X141499653Y-39635500D01*
X142323000Y-39635499D01*
X142390039Y-39655183D01*
X142435794Y-39707987D01*
X142447000Y-39759499D01*
X142447000Y-59652403D01*
X142427315Y-59719442D01*
X142410681Y-59740084D01*
X141812181Y-60338584D01*
X141792744Y-60349196D01*
X141776011Y-60363697D01*
X141762679Y-60365613D01*
X141750858Y-60372069D01*
X141728771Y-60370489D01*
X141706853Y-60373641D01*
X141694601Y-60368045D01*
X141681166Y-60367085D01*
X141663439Y-60353814D01*
X141643297Y-60344616D01*
X141636014Y-60333284D01*
X141625233Y-60325213D01*
X141617495Y-60304467D01*
X141605523Y-60285838D01*
X141602371Y-60263919D01*
X141600816Y-60259749D01*
X141600500Y-60250903D01*
X141600500Y-60089059D01*
X141600501Y-60089046D01*
X141600501Y-59920945D01*
X141600501Y-59920943D01*
X141559577Y-59768215D01*
X141521340Y-59701987D01*
X141480520Y-59631284D01*
X141368716Y-59519480D01*
X141368715Y-59519479D01*
X141364385Y-59515149D01*
X141364374Y-59515139D01*
X135169860Y-53320625D01*
X135136375Y-53259302D01*
X135135068Y-53213546D01*
X135154500Y-53090859D01*
X135154500Y-52909139D01*
X135126072Y-52729654D01*
X135126071Y-52729650D01*
X135126071Y-52729649D01*
X135069918Y-52556828D01*
X135069916Y-52556825D01*
X134987416Y-52394909D01*
X134880603Y-52247894D01*
X134752106Y-52119397D01*
X134605090Y-52012583D01*
X134443174Y-51930083D01*
X134443171Y-51930081D01*
X134270348Y-51873928D01*
X134150689Y-51854976D01*
X134090861Y-51845500D01*
X133909139Y-51845500D01*
X133849310Y-51854976D01*
X133729652Y-51873928D01*
X133729649Y-51873928D01*
X133556828Y-51930081D01*
X133556825Y-51930083D01*
X133394906Y-52012585D01*
X133347385Y-52047111D01*
X133281579Y-52070591D01*
X133213525Y-52054765D01*
X133164830Y-52004659D01*
X133150500Y-51946793D01*
X133150500Y-45274500D01*
X133170185Y-45207461D01*
X133222989Y-45161706D01*
X133274500Y-45150500D01*
X134249531Y-45150500D01*
X134334075Y-45133682D01*
X134375204Y-45125501D01*
X134493587Y-45076465D01*
X134600129Y-45005277D01*
X138060781Y-41544623D01*
X138122102Y-41511140D01*
X138191794Y-41516124D01*
X138247727Y-41557996D01*
X138272144Y-41623460D01*
X138272460Y-41632304D01*
X138272460Y-41682867D01*
X138272461Y-41682874D01*
X138278868Y-41742481D01*
X138329162Y-41877326D01*
X138329166Y-41877333D01*
X138415412Y-41992542D01*
X138415415Y-41992545D01*
X138530624Y-42078791D01*
X138530631Y-42078795D01*
X138665477Y-42129089D01*
X138665476Y-42129089D01*
X138672404Y-42129833D01*
X138725087Y-42135498D01*
X141073272Y-42135497D01*
X141132883Y-42129089D01*
X141267731Y-42078794D01*
X141382946Y-41992544D01*
X141469196Y-41877329D01*
X141519491Y-41742481D01*
X141525900Y-41682871D01*
X141525899Y-40452128D01*
X141519491Y-40392517D01*
X141517699Y-40387713D01*
X141469197Y-40257671D01*
X141469193Y-40257664D01*
X141382947Y-40142455D01*
X141382944Y-40142452D01*
X141267735Y-40056206D01*
X141267728Y-40056202D01*
X141132882Y-40005908D01*
X141132883Y-40005908D01*
X141073283Y-39999501D01*
X141073281Y-39999500D01*
X141073273Y-39999500D01*
X141073265Y-39999500D01*
X139905267Y-39999500D01*
X139838228Y-39979815D01*
X139792473Y-39927011D01*
X139782529Y-39857853D01*
X139811554Y-39794297D01*
X139817586Y-39787819D01*
X140112963Y-39492443D01*
X140418587Y-39186819D01*
X140479910Y-39153334D01*
X140506268Y-39150500D01*
X140804717Y-39150500D01*
X140871756Y-39170185D01*
G37*
%TD.AperFunction*%
%TA.AperFunction,NonConductor*%
G36*
X141805703Y-62655384D02*
G01*
X141812181Y-62661416D01*
X142330139Y-63179374D01*
X142363624Y-63240697D01*
X142364931Y-63286454D01*
X142357660Y-63332359D01*
X142327730Y-63395493D01*
X142268418Y-63432424D01*
X142203093Y-63432735D01*
X142079057Y-63399499D01*
X141920943Y-63399499D01*
X141913347Y-63399499D01*
X141913331Y-63399500D01*
X141724500Y-63399500D01*
X141657461Y-63379815D01*
X141611706Y-63327011D01*
X141600500Y-63275500D01*
X141600500Y-62749097D01*
X141620185Y-62682058D01*
X141672989Y-62636303D01*
X141742147Y-62626359D01*
X141805703Y-62655384D01*
G37*
%TD.AperFunction*%
%TA.AperFunction,NonConductor*%
G36*
X163040274Y-63109145D02*
G01*
X163070257Y-63115668D01*
X163073487Y-63118898D01*
X163077870Y-63120185D01*
X163097962Y-63143372D01*
X163119663Y-63165073D01*
X163120634Y-63169537D01*
X163123625Y-63172989D01*
X163127992Y-63203360D01*
X163134515Y-63233346D01*
X163133183Y-63239466D01*
X163133569Y-63242147D01*
X163127013Y-63267833D01*
X163080508Y-63392517D01*
X163075358Y-63440423D01*
X163074101Y-63452123D01*
X163074100Y-63452135D01*
X163074100Y-63775500D01*
X163054415Y-63842539D01*
X163001611Y-63888294D01*
X162950100Y-63899500D01*
X158553933Y-63899500D01*
X158486894Y-63879815D01*
X158453615Y-63848386D01*
X158396915Y-63770346D01*
X158380603Y-63747894D01*
X158252106Y-63619397D01*
X158225845Y-63600317D01*
X158183180Y-63544988D01*
X158177201Y-63475375D01*
X158209807Y-63413580D01*
X158225846Y-63399682D01*
X158252106Y-63380603D01*
X158380603Y-63252106D01*
X158453615Y-63151613D01*
X158508946Y-63108949D01*
X158553933Y-63100500D01*
X163010831Y-63100500D01*
X163040274Y-63109145D01*
G37*
%TD.AperFunction*%
%TA.AperFunction,NonConductor*%
G36*
X138232515Y-58081799D02*
G01*
X138234626Y-58083861D01*
X140363181Y-60212416D01*
X140396666Y-60273739D01*
X140399500Y-60300097D01*
X140399500Y-63775500D01*
X140379815Y-63842539D01*
X140327011Y-63888294D01*
X140275500Y-63899500D01*
X138224500Y-63899500D01*
X138157461Y-63879815D01*
X138111706Y-63827011D01*
X138100500Y-63775500D01*
X138100500Y-58420945D01*
X138100500Y-58420943D01*
X138059577Y-58268216D01*
X138039557Y-58233541D01*
X138023085Y-58165642D01*
X138045938Y-58099615D01*
X138100859Y-58056424D01*
X138170412Y-58049783D01*
X138232515Y-58081799D01*
G37*
%TD.AperFunction*%
%TA.AperFunction,NonConductor*%
G36*
X168692539Y-24310185D02*
G01*
X168738294Y-24362989D01*
X168749500Y-24414500D01*
X168749500Y-27969137D01*
X168729815Y-28036176D01*
X168677011Y-28081931D01*
X168607853Y-28091875D01*
X168544297Y-28062850D01*
X168519383Y-28033287D01*
X168492440Y-27988718D01*
X168373782Y-27870060D01*
X168373777Y-27870056D01*
X168230180Y-27783250D01*
X168230179Y-27783249D01*
X168230178Y-27783249D01*
X168069971Y-27733327D01*
X168069969Y-27733326D01*
X168069967Y-27733326D01*
X168021221Y-27728896D01*
X168000347Y-27727000D01*
X168000344Y-27727000D01*
X166999645Y-27727000D01*
X166930033Y-27733325D01*
X166930022Y-27733328D01*
X166769824Y-27783247D01*
X166769820Y-27783249D01*
X166626222Y-27870056D01*
X166626217Y-27870060D01*
X166507560Y-27988717D01*
X166507556Y-27988722D01*
X166420750Y-28132319D01*
X166370826Y-28292532D01*
X166364500Y-28362155D01*
X166364500Y-29362854D01*
X166370825Y-29432466D01*
X166370828Y-29432477D01*
X166420747Y-29592675D01*
X166420749Y-29592679D01*
X166507556Y-29736277D01*
X166507560Y-29736282D01*
X166626217Y-29854939D01*
X166626222Y-29854943D01*
X166745439Y-29927011D01*
X166769822Y-29941751D01*
X166930029Y-29991673D01*
X166999653Y-29998000D01*
X168000346Y-29997999D01*
X168000353Y-29997999D01*
X168069966Y-29991674D01*
X168069969Y-29991673D01*
X168069971Y-29991673D01*
X168230178Y-29941751D01*
X168341432Y-29874496D01*
X168373777Y-29854943D01*
X168373778Y-29854941D01*
X168373783Y-29854939D01*
X168492439Y-29736283D01*
X168503689Y-29717673D01*
X168519383Y-29691713D01*
X168570910Y-29644525D01*
X168639769Y-29632686D01*
X168704098Y-29659954D01*
X168743473Y-29717673D01*
X168749500Y-29755862D01*
X168749500Y-64530192D01*
X168729815Y-64597231D01*
X168677011Y-64642986D01*
X168607853Y-64652930D01*
X168544297Y-64623905D01*
X168537819Y-64617873D01*
X168023699Y-64103753D01*
X167990214Y-64042430D01*
X167987380Y-64016072D01*
X167987380Y-63288884D01*
X167987379Y-63288878D01*
X167987118Y-63286454D01*
X167980972Y-63229272D01*
X167972610Y-63206853D01*
X167930678Y-63094426D01*
X167930674Y-63094419D01*
X167844428Y-62979210D01*
X167844425Y-62979207D01*
X167729216Y-62892961D01*
X167729209Y-62892957D01*
X167594363Y-62842663D01*
X167594364Y-62842663D01*
X167534764Y-62836256D01*
X167534762Y-62836255D01*
X167534754Y-62836255D01*
X167534746Y-62836255D01*
X166736852Y-62836255D01*
X166669813Y-62816570D01*
X166649171Y-62799936D01*
X165987590Y-62138355D01*
X165987588Y-62138352D01*
X165868717Y-62019481D01*
X165868716Y-62019480D01*
X165781904Y-61969360D01*
X165781904Y-61969359D01*
X165781900Y-61969358D01*
X165731785Y-61940423D01*
X165579057Y-61899499D01*
X165420943Y-61899499D01*
X165413347Y-61899499D01*
X165413331Y-61899500D01*
X158553933Y-61899500D01*
X158486894Y-61879815D01*
X158453615Y-61848386D01*
X158396915Y-61770346D01*
X158380603Y-61747894D01*
X158252106Y-61619397D01*
X158225845Y-61600317D01*
X158183180Y-61544988D01*
X158177201Y-61475375D01*
X158209807Y-61413580D01*
X158225846Y-61399682D01*
X158252106Y-61380603D01*
X158380603Y-61252106D01*
X158487417Y-61105090D01*
X158569917Y-60943174D01*
X158585599Y-60894909D01*
X158626071Y-60770350D01*
X158626071Y-60770349D01*
X158626072Y-60770346D01*
X158654500Y-60590861D01*
X158654500Y-60409139D01*
X158635068Y-60286451D01*
X158644023Y-60217159D01*
X158669857Y-60179376D01*
X163793506Y-55055728D01*
X163793511Y-55055724D01*
X163803714Y-55045520D01*
X163803716Y-55045520D01*
X163915520Y-54933716D01*
X163994577Y-54796784D01*
X164035500Y-54644057D01*
X164035500Y-41397648D01*
X165199500Y-41397648D01*
X165199500Y-41602351D01*
X165231522Y-41804534D01*
X165294781Y-41999223D01*
X165387715Y-42181613D01*
X165508028Y-42347213D01*
X165652786Y-42491971D01*
X165807749Y-42604556D01*
X165818390Y-42612287D01*
X165934607Y-42671503D01*
X166000776Y-42705218D01*
X166000778Y-42705218D01*
X166000781Y-42705220D01*
X166105137Y-42739127D01*
X166195465Y-42768477D01*
X166296557Y-42784488D01*
X166397648Y-42800500D01*
X166397649Y-42800500D01*
X166602351Y-42800500D01*
X166602352Y-42800500D01*
X166804534Y-42768477D01*
X166999219Y-42705220D01*
X167181610Y-42612287D01*
X167274590Y-42544732D01*
X167347213Y-42491971D01*
X167347215Y-42491968D01*
X167347219Y-42491966D01*
X167491966Y-42347219D01*
X167491968Y-42347215D01*
X167491971Y-42347213D01*
X167544732Y-42274590D01*
X167612287Y-42181610D01*
X167705220Y-41999219D01*
X167768477Y-41804534D01*
X167800500Y-41602352D01*
X167800500Y-41397648D01*
X167768477Y-41195466D01*
X167705220Y-41000781D01*
X167705218Y-41000778D01*
X167705218Y-41000776D01*
X167671503Y-40934607D01*
X167612287Y-40818390D01*
X167604556Y-40807749D01*
X167491971Y-40652786D01*
X167347213Y-40508028D01*
X167181613Y-40387715D01*
X167181612Y-40387714D01*
X167181610Y-40387713D01*
X167124653Y-40358691D01*
X166999223Y-40294781D01*
X166804534Y-40231522D01*
X166629995Y-40203878D01*
X166602352Y-40199500D01*
X166397648Y-40199500D01*
X166373329Y-40203351D01*
X166195465Y-40231522D01*
X166000776Y-40294781D01*
X165818386Y-40387715D01*
X165652786Y-40508028D01*
X165508028Y-40652786D01*
X165387715Y-40818386D01*
X165294781Y-41000776D01*
X165231522Y-41195465D01*
X165199500Y-41397648D01*
X164035500Y-41397648D01*
X164035500Y-37024060D01*
X164035501Y-37024047D01*
X164035501Y-36855944D01*
X164035501Y-36855943D01*
X163994577Y-36703216D01*
X163953408Y-36631908D01*
X163915524Y-36566290D01*
X163915518Y-36566282D01*
X161274329Y-33925093D01*
X161240844Y-33863770D01*
X161245828Y-33794078D01*
X161287700Y-33738145D01*
X161342615Y-33714939D01*
X161351368Y-33713553D01*
X161575992Y-33640568D01*
X161786433Y-33533343D01*
X161977510Y-33394517D01*
X162144517Y-33227510D01*
X162283343Y-33036433D01*
X162360767Y-32884478D01*
X162408741Y-32833682D01*
X162420144Y-32827795D01*
X162429368Y-32823622D01*
X162481785Y-32809577D01*
X162553810Y-32767993D01*
X162618716Y-32730520D01*
X162730520Y-32618716D01*
X162730520Y-32618714D01*
X162740724Y-32608511D01*
X162740727Y-32608506D01*
X164980520Y-30368716D01*
X165059577Y-30231784D01*
X165100501Y-30079057D01*
X165100501Y-29920942D01*
X165100501Y-29913347D01*
X165100500Y-29913329D01*
X165100500Y-27420945D01*
X165100500Y-27420943D01*
X165059577Y-27268216D01*
X165059577Y-27268215D01*
X165059577Y-27268214D01*
X165030639Y-27218095D01*
X165030637Y-27218092D01*
X165006706Y-27176641D01*
X164980520Y-27131284D01*
X164868716Y-27019480D01*
X164868715Y-27019479D01*
X164864385Y-27015149D01*
X164864374Y-27015139D01*
X162987590Y-25138355D01*
X162987588Y-25138352D01*
X162868717Y-25019481D01*
X162868716Y-25019480D01*
X162781904Y-24969360D01*
X162781904Y-24969359D01*
X162781900Y-24969358D01*
X162731785Y-24940423D01*
X162579057Y-24899499D01*
X162420943Y-24899499D01*
X162413347Y-24899499D01*
X162413331Y-24899500D01*
X141941557Y-24899500D01*
X141783443Y-24899500D01*
X141630715Y-24940423D01*
X141630714Y-24940423D01*
X141630712Y-24940424D01*
X141630709Y-24940425D01*
X141580596Y-24969359D01*
X141580595Y-24969360D01*
X141537189Y-24994420D01*
X141493785Y-25019479D01*
X141493782Y-25019481D01*
X141381978Y-25131286D01*
X138822582Y-27690681D01*
X138761259Y-27724166D01*
X138734901Y-27727000D01*
X137999645Y-27727000D01*
X137930033Y-27733325D01*
X137930022Y-27733328D01*
X137769824Y-27783247D01*
X137769820Y-27783249D01*
X137626222Y-27870056D01*
X137626217Y-27870060D01*
X137507560Y-27988717D01*
X137507556Y-27988722D01*
X137420750Y-28132319D01*
X137370826Y-28292532D01*
X137364500Y-28362155D01*
X137364500Y-29362854D01*
X137370825Y-29432466D01*
X137370828Y-29432477D01*
X137420747Y-29592675D01*
X137420749Y-29592679D01*
X137507556Y-29736277D01*
X137507560Y-29736282D01*
X137626217Y-29854939D01*
X137626222Y-29854943D01*
X137769820Y-29941750D01*
X137769822Y-29941751D01*
X137812389Y-29955015D01*
X137870536Y-29993750D01*
X137898512Y-30057775D01*
X137899500Y-30073400D01*
X137899500Y-33067692D01*
X137879815Y-33134731D01*
X137827011Y-33180486D01*
X137757853Y-33190430D01*
X137694297Y-33161405D01*
X137687819Y-33155373D01*
X134468265Y-29935819D01*
X134434780Y-29874496D01*
X134439764Y-29804804D01*
X134468265Y-29760457D01*
X134479222Y-29749500D01*
X134492439Y-29736283D01*
X134579251Y-29592678D01*
X134629173Y-29432471D01*
X134635500Y-29362847D01*
X134635499Y-28362154D01*
X134635499Y-28362153D01*
X134635499Y-28362145D01*
X134629174Y-28292533D01*
X134629171Y-28292522D01*
X134579252Y-28132324D01*
X134579250Y-28132320D01*
X134492443Y-27988722D01*
X134492439Y-27988717D01*
X134373782Y-27870060D01*
X134373777Y-27870056D01*
X134230180Y-27783250D01*
X134230179Y-27783249D01*
X134230178Y-27783249D01*
X134069971Y-27733327D01*
X134069969Y-27733326D01*
X134069967Y-27733326D01*
X134021221Y-27728896D01*
X134000347Y-27727000D01*
X134000344Y-27727000D01*
X132999645Y-27727000D01*
X132930033Y-27733325D01*
X132930022Y-27733328D01*
X132769824Y-27783247D01*
X132769820Y-27783249D01*
X132626222Y-27870056D01*
X132626217Y-27870060D01*
X132507559Y-27988718D01*
X132480617Y-28033287D01*
X132429089Y-28080474D01*
X132360230Y-28092313D01*
X132295901Y-28065044D01*
X132256527Y-28007325D01*
X132250500Y-27969137D01*
X132250500Y-24414500D01*
X132270185Y-24347461D01*
X132322989Y-24301706D01*
X132374500Y-24290500D01*
X168625500Y-24290500D01*
X168692539Y-24310185D01*
G37*
%TD.AperFunction*%
%TA.AperFunction,NonConductor*%
G36*
X135280211Y-60254335D02*
G01*
X135331687Y-60301579D01*
X135349500Y-60365612D01*
X135349500Y-70735192D01*
X135329815Y-70802231D01*
X135277011Y-70847986D01*
X135207853Y-70857930D01*
X135144297Y-70828905D01*
X135137819Y-70822873D01*
X134686819Y-70371873D01*
X134653334Y-70310550D01*
X134650500Y-70284192D01*
X134650500Y-61017604D01*
X134670185Y-60950565D01*
X134701612Y-60917288D01*
X134752106Y-60880603D01*
X134880603Y-60752106D01*
X134987417Y-60605090D01*
X135069917Y-60443174D01*
X135092510Y-60373641D01*
X135107569Y-60327294D01*
X135147006Y-60269618D01*
X135211365Y-60242420D01*
X135280211Y-60254335D01*
G37*
%TD.AperFunction*%
%TA.AperFunction,NonConductor*%
G36*
X158912832Y-81145082D02*
G01*
X158931142Y-81146392D01*
X158944994Y-81156761D01*
X158961255Y-81162667D01*
X158986427Y-81187406D01*
X158987308Y-81188562D01*
X159084310Y-81322073D01*
X159104328Y-81342091D01*
X159109377Y-81348715D01*
X159119012Y-81373878D01*
X159131924Y-81397525D01*
X159131316Y-81406014D01*
X159134361Y-81413965D01*
X159128861Y-81440341D01*
X159126940Y-81467217D01*
X159121838Y-81474031D01*
X159120101Y-81482365D01*
X159098439Y-81511564D01*
X158862181Y-81747822D01*
X158800858Y-81781307D01*
X158731166Y-81776323D01*
X158675233Y-81734451D01*
X158650816Y-81668987D01*
X158650500Y-81660141D01*
X158650500Y-81375882D01*
X158670185Y-81308843D01*
X158686815Y-81288205D01*
X158800127Y-81174892D01*
X158815311Y-81166601D01*
X158827440Y-81154261D01*
X158845341Y-81150204D01*
X158861450Y-81141408D01*
X158878707Y-81142642D01*
X158895582Y-81138818D01*
X158912832Y-81145082D01*
G37*
%TD.AperFunction*%
%TA.AperFunction,NonConductor*%
G36*
X165266942Y-63120185D02*
G01*
X165287584Y-63136819D01*
X165963190Y-63812425D01*
X165996675Y-63873748D01*
X165999509Y-63900106D01*
X165999509Y-64682871D01*
X165999510Y-64682877D01*
X166005917Y-64742484D01*
X166056211Y-64877329D01*
X166056215Y-64877336D01*
X166142461Y-64992545D01*
X166142464Y-64992548D01*
X166257673Y-65078794D01*
X166257680Y-65078798D01*
X166302627Y-65095562D01*
X166392526Y-65129092D01*
X166452136Y-65135501D01*
X167164192Y-65135500D01*
X167231231Y-65155184D01*
X167251873Y-65171819D01*
X167813181Y-65733127D01*
X167846666Y-65794450D01*
X167849500Y-65820808D01*
X167849500Y-75767449D01*
X167829815Y-75834488D01*
X167777011Y-75880243D01*
X167707853Y-75890187D01*
X167644297Y-75861162D01*
X167615016Y-75823745D01*
X167612286Y-75818388D01*
X167491971Y-75652786D01*
X167347213Y-75508028D01*
X167181613Y-75387715D01*
X167181612Y-75387714D01*
X167181610Y-75387713D01*
X167124653Y-75358691D01*
X166999223Y-75294781D01*
X166804534Y-75231522D01*
X166629995Y-75203878D01*
X166602352Y-75199500D01*
X166397648Y-75199500D01*
X166373329Y-75203351D01*
X166195465Y-75231522D01*
X166000776Y-75294781D01*
X165818386Y-75387715D01*
X165652786Y-75508028D01*
X165508028Y-75652786D01*
X165387715Y-75818386D01*
X165294781Y-76000776D01*
X165231522Y-76195465D01*
X165199500Y-76397648D01*
X165199500Y-76602351D01*
X165231522Y-76804534D01*
X165294781Y-76999223D01*
X165387715Y-77181613D01*
X165508028Y-77347213D01*
X165652786Y-77491971D01*
X165807749Y-77604556D01*
X165818390Y-77612287D01*
X165934607Y-77671503D01*
X166000776Y-77705218D01*
X166000778Y-77705218D01*
X166000781Y-77705220D01*
X166105137Y-77739127D01*
X166195465Y-77768477D01*
X166296557Y-77784488D01*
X166397648Y-77800500D01*
X166397649Y-77800500D01*
X166602351Y-77800500D01*
X166602352Y-77800500D01*
X166804534Y-77768477D01*
X166999219Y-77705220D01*
X167181610Y-77612287D01*
X167274590Y-77544732D01*
X167347213Y-77491971D01*
X167347215Y-77491968D01*
X167347219Y-77491966D01*
X167491966Y-77347219D01*
X167491968Y-77347215D01*
X167491971Y-77347213D01*
X167612286Y-77181612D01*
X167615014Y-77176258D01*
X167662986Y-77125461D01*
X167730807Y-77108664D01*
X167796942Y-77131199D01*
X167840396Y-77185913D01*
X167849500Y-77232550D01*
X167849500Y-81225500D01*
X167829815Y-81292539D01*
X167777011Y-81338294D01*
X167725500Y-81349500D01*
X164935929Y-81349500D01*
X164810261Y-81374497D01*
X164810255Y-81374499D01*
X164691874Y-81423534D01*
X164585326Y-81494726D01*
X164585325Y-81494727D01*
X163666873Y-82413181D01*
X163605550Y-82446666D01*
X163579192Y-82449500D01*
X160299757Y-82449500D01*
X160232718Y-82429815D01*
X160186963Y-82377011D01*
X160177019Y-82307853D01*
X160206044Y-82244297D01*
X160212076Y-82237819D01*
X160505271Y-81944624D01*
X160505276Y-81944619D01*
X160576465Y-81838076D01*
X160625501Y-81719693D01*
X160627242Y-81710940D01*
X160650500Y-81594018D01*
X160650500Y-81594014D01*
X160650968Y-81591662D01*
X160683353Y-81529751D01*
X160699696Y-81515539D01*
X160756829Y-81474031D01*
X160782064Y-81455697D01*
X160782067Y-81455693D01*
X160782073Y-81455690D01*
X160915690Y-81322073D01*
X161026760Y-81169199D01*
X161112547Y-81000832D01*
X161170940Y-80821118D01*
X161182687Y-80746949D01*
X161200500Y-80634486D01*
X161200500Y-80445513D01*
X161170940Y-80258881D01*
X161112545Y-80079163D01*
X161026759Y-79910800D01*
X160915690Y-79757927D01*
X160782073Y-79624310D01*
X160649686Y-79528124D01*
X160607022Y-79472796D01*
X160601043Y-79403182D01*
X160633649Y-79341387D01*
X160634816Y-79340203D01*
X164505276Y-75469745D01*
X164560086Y-75387715D01*
X164576464Y-75363204D01*
X164576465Y-75363202D01*
X164625501Y-75244819D01*
X164628146Y-75231523D01*
X164628147Y-75231520D01*
X164650500Y-75119146D01*
X164650500Y-65199141D01*
X164670185Y-65132102D01*
X164722989Y-65086347D01*
X164731149Y-65082966D01*
X164742331Y-65078796D01*
X164771677Y-65056828D01*
X164857543Y-64992548D01*
X164857546Y-64992546D01*
X164943796Y-64877331D01*
X164994091Y-64742483D01*
X165000500Y-64682873D01*
X165000499Y-63452128D01*
X164994091Y-63392517D01*
X164989647Y-63380603D01*
X164947587Y-63267833D01*
X164945398Y-63237224D01*
X164941031Y-63206853D01*
X164942928Y-63202697D01*
X164942603Y-63198141D01*
X164957309Y-63171208D01*
X164970056Y-63143297D01*
X164973898Y-63140827D01*
X164976088Y-63136818D01*
X165003021Y-63122111D01*
X165028834Y-63105523D01*
X165035034Y-63104631D01*
X165037411Y-63103334D01*
X165063769Y-63100500D01*
X165199903Y-63100500D01*
X165266942Y-63120185D01*
G37*
%TD.AperFunction*%
%TA.AperFunction,NonConductor*%
G36*
X168670897Y-82649318D02*
G01*
X168726076Y-82692180D01*
X168749322Y-82758069D01*
X168749500Y-82764709D01*
X168749500Y-83125500D01*
X168729815Y-83192539D01*
X168677011Y-83238294D01*
X168625500Y-83249500D01*
X164969808Y-83249500D01*
X164902769Y-83229815D01*
X164857014Y-83177011D01*
X164847070Y-83107853D01*
X164876095Y-83044297D01*
X164882127Y-83037819D01*
X165233127Y-82686819D01*
X165294450Y-82653334D01*
X165320808Y-82650500D01*
X168564069Y-82650500D01*
X168601309Y-82643092D01*
X168670897Y-82649318D01*
G37*
%TD.AperFunction*%
%TA.AperFunction,NonConductor*%
G36*
X155404442Y-27620185D02*
G01*
X155425084Y-27636819D01*
X156328181Y-28539916D01*
X156361666Y-28601239D01*
X156364500Y-28627597D01*
X156364500Y-29362854D01*
X156370825Y-29432466D01*
X156370828Y-29432477D01*
X156420747Y-29592675D01*
X156420749Y-29592679D01*
X156507556Y-29736277D01*
X156507560Y-29736282D01*
X156626217Y-29854939D01*
X156626222Y-29854943D01*
X156745439Y-29927011D01*
X156769822Y-29941751D01*
X156930029Y-29991673D01*
X156999653Y-29998000D01*
X157353403Y-29997999D01*
X157420441Y-30017683D01*
X157466196Y-30070487D01*
X157476140Y-30139646D01*
X157447115Y-30203201D01*
X157441083Y-30209680D01*
X157131286Y-30519478D01*
X157019481Y-30631282D01*
X157019479Y-30631285D01*
X157006169Y-30654339D01*
X156982102Y-30696026D01*
X156969361Y-30718094D01*
X156969359Y-30718096D01*
X156940425Y-30768209D01*
X156940424Y-30768210D01*
X156940423Y-30768215D01*
X156899499Y-30920943D01*
X156899499Y-30920945D01*
X156899499Y-31089046D01*
X156899500Y-31089059D01*
X156899500Y-31913330D01*
X156899499Y-31913348D01*
X156899499Y-32079054D01*
X156899498Y-32079054D01*
X156940423Y-32231785D01*
X156948948Y-32246550D01*
X156948949Y-32246553D01*
X157019475Y-32368709D01*
X157019481Y-32368717D01*
X157138349Y-32487585D01*
X157138355Y-32487590D01*
X160055219Y-35404454D01*
X160088704Y-35465777D01*
X160083720Y-35535469D01*
X160041848Y-35591402D01*
X160040426Y-35592451D01*
X160022493Y-35605480D01*
X160022487Y-35605485D01*
X159855485Y-35772487D01*
X159855485Y-35772488D01*
X159855483Y-35772490D01*
X159795862Y-35854550D01*
X159716657Y-35963566D01*
X159609433Y-36174003D01*
X159536446Y-36398631D01*
X159499500Y-36631902D01*
X159499500Y-36868097D01*
X159536447Y-37101369D01*
X159536447Y-37101372D01*
X159577450Y-37227564D01*
X159579445Y-37297405D01*
X159547200Y-37353563D01*
X156462181Y-40438583D01*
X156400858Y-40472068D01*
X156331166Y-40467084D01*
X156275233Y-40425212D01*
X156250816Y-40359748D01*
X156250500Y-40350902D01*
X156250500Y-29950173D01*
X156250499Y-29950170D01*
X156247012Y-29941751D01*
X156212364Y-29858103D01*
X156141897Y-29787636D01*
X156076281Y-29760457D01*
X156049829Y-29749500D01*
X156049828Y-29749500D01*
X145049828Y-29749500D01*
X144950172Y-29749500D01*
X144950170Y-29749500D01*
X144858102Y-29787636D01*
X144787636Y-29858102D01*
X144749500Y-29950170D01*
X144749500Y-29950172D01*
X144749500Y-43049828D01*
X144787636Y-43141897D01*
X144858103Y-43212364D01*
X144950172Y-43250500D01*
X145049828Y-43250500D01*
X155625500Y-43250500D01*
X155692539Y-43270185D01*
X155738294Y-43322989D01*
X155749500Y-43374500D01*
X155749500Y-50646627D01*
X155729815Y-50713666D01*
X155677011Y-50759421D01*
X155607853Y-50769365D01*
X155578049Y-50761189D01*
X155549829Y-50749500D01*
X155549828Y-50749500D01*
X145549828Y-50749500D01*
X145450172Y-50749500D01*
X145450170Y-50749500D01*
X145358102Y-50787636D01*
X145287636Y-50858102D01*
X145249500Y-50950170D01*
X145249500Y-50950172D01*
X145249500Y-77950172D01*
X145249500Y-78049828D01*
X145287636Y-78141897D01*
X145358103Y-78212364D01*
X145450172Y-78250500D01*
X145450174Y-78250500D01*
X155549826Y-78250500D01*
X155549828Y-78250500D01*
X155641897Y-78212364D01*
X155712364Y-78141897D01*
X155750500Y-78049828D01*
X155750500Y-65899098D01*
X155756737Y-65877855D01*
X155758317Y-65855767D01*
X155766390Y-65844981D01*
X155770185Y-65832059D01*
X155786916Y-65817560D01*
X155800188Y-65799832D01*
X155812810Y-65795123D01*
X155822989Y-65786304D01*
X155844904Y-65783152D01*
X155865652Y-65775414D01*
X155878814Y-65778277D01*
X155892147Y-65776360D01*
X155912289Y-65785558D01*
X155933925Y-65790265D01*
X155951651Y-65803534D01*
X155955703Y-65805385D01*
X155962165Y-65811401D01*
X155981284Y-65830520D01*
X155981286Y-65830521D01*
X155988355Y-65837590D01*
X156330139Y-66179375D01*
X156363624Y-66240698D01*
X156364931Y-66286453D01*
X156345500Y-66409138D01*
X156345500Y-66590860D01*
X156373928Y-66770347D01*
X156373928Y-66770350D01*
X156430081Y-66943171D01*
X156430083Y-66943174D01*
X156512583Y-67105090D01*
X156619397Y-67252106D01*
X156747894Y-67380603D01*
X156894910Y-67487417D01*
X157056826Y-67569917D01*
X157056828Y-67569918D01*
X157121282Y-67590860D01*
X157229654Y-67626072D01*
X157409139Y-67654500D01*
X157409140Y-67654500D01*
X157590860Y-67654500D01*
X157590861Y-67654500D01*
X157713547Y-67635068D01*
X157782839Y-67644022D01*
X157820625Y-67669860D01*
X159363181Y-69212416D01*
X159396666Y-69273739D01*
X159399500Y-69300097D01*
X159399500Y-74349207D01*
X159379815Y-74416246D01*
X159348386Y-74449525D01*
X159217925Y-74544311D01*
X159084312Y-74677924D01*
X159084312Y-74677925D01*
X159084310Y-74677927D01*
X159045371Y-74731522D01*
X158973240Y-74830800D01*
X158887454Y-74999163D01*
X158829059Y-75178881D01*
X158799500Y-75365513D01*
X158799500Y-75554486D01*
X158829059Y-75741118D01*
X158887454Y-75920836D01*
X158973240Y-76089199D01*
X159084310Y-76242073D01*
X159217927Y-76375690D01*
X159370801Y-76486760D01*
X159450347Y-76527290D01*
X159539163Y-76572545D01*
X159539165Y-76572545D01*
X159539168Y-76572547D01*
X159630895Y-76602351D01*
X159718881Y-76630940D01*
X159905514Y-76660500D01*
X159905519Y-76660500D01*
X160094486Y-76660500D01*
X160281118Y-76630940D01*
X160460832Y-76572547D01*
X160629199Y-76486760D01*
X160782073Y-76375690D01*
X160915690Y-76242073D01*
X161026760Y-76089199D01*
X161112547Y-75920832D01*
X161170940Y-75741118D01*
X161200500Y-75554486D01*
X161200500Y-75365513D01*
X161170940Y-75178881D01*
X161143846Y-75095497D01*
X161112547Y-74999168D01*
X161112545Y-74999165D01*
X161112545Y-74999163D01*
X161026759Y-74830800D01*
X161020327Y-74821947D01*
X160915690Y-74677927D01*
X160782073Y-74544310D01*
X160737649Y-74512034D01*
X160651614Y-74449525D01*
X160608948Y-74394194D01*
X160600500Y-74349207D01*
X160600500Y-69089059D01*
X160600501Y-69089046D01*
X160600501Y-68920945D01*
X160600501Y-68920943D01*
X160559577Y-68768215D01*
X160530639Y-68718095D01*
X160480520Y-68631284D01*
X160368716Y-68519480D01*
X160368715Y-68519479D01*
X160364385Y-68515149D01*
X160364374Y-68515139D01*
X158669860Y-66820625D01*
X158636375Y-66759302D01*
X158635068Y-66713546D01*
X158649981Y-66619394D01*
X158654500Y-66590861D01*
X158654500Y-66409139D01*
X158626072Y-66229654D01*
X158626071Y-66229650D01*
X158626071Y-66229649D01*
X158569918Y-66056828D01*
X158569916Y-66056825D01*
X158512009Y-65943174D01*
X158487417Y-65894910D01*
X158380603Y-65747894D01*
X158252106Y-65619397D01*
X158225845Y-65600317D01*
X158183180Y-65544988D01*
X158177201Y-65475375D01*
X158209807Y-65413580D01*
X158225846Y-65399682D01*
X158252106Y-65380603D01*
X158380603Y-65252106D01*
X158453615Y-65151613D01*
X158508946Y-65108949D01*
X158553933Y-65100500D01*
X163225500Y-65100500D01*
X163292539Y-65120185D01*
X163338294Y-65172989D01*
X163349500Y-65224500D01*
X163349500Y-74734266D01*
X163329815Y-74801305D01*
X163313181Y-74821947D01*
X157494727Y-80640400D01*
X157494726Y-80640401D01*
X157423534Y-80746949D01*
X157374499Y-80865330D01*
X157374497Y-80865336D01*
X157349500Y-80991003D01*
X157349500Y-81679192D01*
X157329815Y-81746231D01*
X157313181Y-81766873D01*
X154587681Y-84492372D01*
X154526358Y-84525857D01*
X154456666Y-84520873D01*
X154412319Y-84492372D01*
X153914673Y-83994726D01*
X153914669Y-83994723D01*
X153808127Y-83923535D01*
X153689744Y-83874499D01*
X153689738Y-83874497D01*
X153564071Y-83849500D01*
X153564069Y-83849500D01*
X149320808Y-83849500D01*
X149253769Y-83829815D01*
X149233127Y-83813181D01*
X136686819Y-71266873D01*
X136653334Y-71205550D01*
X136650500Y-71179192D01*
X136650500Y-59935928D01*
X136625502Y-59810261D01*
X136625501Y-59810260D01*
X136625501Y-59810256D01*
X136576465Y-59691873D01*
X136576464Y-59691872D01*
X136576461Y-59691866D01*
X136505277Y-59585332D01*
X136476770Y-59556825D01*
X136414669Y-59494724D01*
X135179528Y-58259583D01*
X135146043Y-58198260D01*
X135144736Y-58152503D01*
X135154500Y-58090859D01*
X135154500Y-57909139D01*
X135137489Y-57801740D01*
X135126072Y-57729654D01*
X135126071Y-57729650D01*
X135126071Y-57729649D01*
X135069918Y-57556828D01*
X135069916Y-57556825D01*
X134987416Y-57394909D01*
X134880603Y-57247894D01*
X134752106Y-57119397D01*
X134605090Y-57012583D01*
X134443174Y-56930083D01*
X134443171Y-56930081D01*
X134270348Y-56873928D01*
X134095962Y-56846308D01*
X134090861Y-56845500D01*
X133909139Y-56845500D01*
X133847495Y-56855263D01*
X133778202Y-56846308D01*
X133740417Y-56820471D01*
X133186819Y-56266873D01*
X133172115Y-56239945D01*
X133155523Y-56214127D01*
X133154631Y-56207926D01*
X133153334Y-56205550D01*
X133150500Y-56179192D01*
X133150500Y-56053206D01*
X133170185Y-55986167D01*
X133222989Y-55940412D01*
X133292147Y-55930468D01*
X133347386Y-55952889D01*
X133394905Y-55987414D01*
X133394907Y-55987415D01*
X133394910Y-55987417D01*
X133556826Y-56069917D01*
X133556828Y-56069918D01*
X133718029Y-56122294D01*
X133729654Y-56126072D01*
X133909139Y-56154500D01*
X133909140Y-56154500D01*
X134090860Y-56154500D01*
X134090861Y-56154500D01*
X134213547Y-56135068D01*
X134282839Y-56144022D01*
X134320625Y-56169860D01*
X136863181Y-58712416D01*
X136896666Y-58773739D01*
X136899500Y-58800097D01*
X136899500Y-64579057D01*
X136927319Y-64682877D01*
X136940423Y-64731783D01*
X136940426Y-64731790D01*
X137019475Y-64868709D01*
X137019479Y-64868714D01*
X137019480Y-64868716D01*
X137131284Y-64980520D01*
X137131286Y-64980521D01*
X137131290Y-64980524D01*
X137268209Y-65059573D01*
X137268216Y-65059577D01*
X137420943Y-65100500D01*
X137579057Y-65100500D01*
X140199903Y-65100500D01*
X140266942Y-65120185D01*
X140287584Y-65136819D01*
X142330139Y-67179375D01*
X142363624Y-67240698D01*
X142364931Y-67286453D01*
X142345500Y-67409138D01*
X142345500Y-67590860D01*
X142373928Y-67770347D01*
X142373928Y-67770350D01*
X142430081Y-67943171D01*
X142430083Y-67943174D01*
X142512583Y-68105090D01*
X142619397Y-68252106D01*
X142747894Y-68380603D01*
X142894910Y-68487417D01*
X143056826Y-68569917D01*
X143056828Y-68569918D01*
X143218029Y-68622294D01*
X143229654Y-68626072D01*
X143409139Y-68654500D01*
X143409140Y-68654500D01*
X143590860Y-68654500D01*
X143590861Y-68654500D01*
X143770346Y-68626072D01*
X143770349Y-68626071D01*
X143770350Y-68626071D01*
X143943171Y-68569918D01*
X143943171Y-68569917D01*
X143943174Y-68569917D01*
X144105090Y-68487417D01*
X144252106Y-68380603D01*
X144380603Y-68252106D01*
X144487417Y-68105090D01*
X144569917Y-67943174D01*
X144626072Y-67770346D01*
X144654500Y-67590861D01*
X144654500Y-67409139D01*
X144626072Y-67229654D01*
X144626071Y-67229650D01*
X144626071Y-67229649D01*
X144569918Y-67056828D01*
X144569916Y-67056825D01*
X144512009Y-66943174D01*
X144487417Y-66894910D01*
X144380603Y-66747894D01*
X144252106Y-66619397D01*
X144225845Y-66600317D01*
X144183180Y-66544988D01*
X144177201Y-66475375D01*
X144209807Y-66413580D01*
X144225846Y-66399682D01*
X144252106Y-66380603D01*
X144380603Y-66252106D01*
X144487417Y-66105090D01*
X144569917Y-65943174D01*
X144604224Y-65837588D01*
X144626071Y-65770350D01*
X144626071Y-65770349D01*
X144626072Y-65770346D01*
X144654500Y-65590861D01*
X144654500Y-65409139D01*
X144626072Y-65229654D01*
X144626071Y-65229650D01*
X144626071Y-65229649D01*
X144569918Y-65056828D01*
X144569916Y-65056825D01*
X144537166Y-64992548D01*
X144487417Y-64894910D01*
X144380603Y-64747894D01*
X144252106Y-64619397D01*
X144250008Y-64617873D01*
X144225846Y-64600318D01*
X144183180Y-64544988D01*
X144177201Y-64475375D01*
X144209807Y-64413580D01*
X144225846Y-64399682D01*
X144252106Y-64380603D01*
X144380603Y-64252106D01*
X144487417Y-64105090D01*
X144569917Y-63943174D01*
X144583911Y-63900106D01*
X144626071Y-63770350D01*
X144626071Y-63770349D01*
X144626072Y-63770346D01*
X144654500Y-63590861D01*
X144654500Y-63409139D01*
X144626072Y-63229654D01*
X144626071Y-63229650D01*
X144626071Y-63229649D01*
X144569918Y-63056828D01*
X144569916Y-63056825D01*
X144530370Y-62979210D01*
X144487417Y-62894910D01*
X144380603Y-62747894D01*
X144252106Y-62619397D01*
X144225845Y-62600317D01*
X144183180Y-62544988D01*
X144177201Y-62475375D01*
X144209807Y-62413580D01*
X144225846Y-62399682D01*
X144252106Y-62380603D01*
X144380603Y-62252106D01*
X144487417Y-62105090D01*
X144569917Y-61943174D01*
X144570811Y-61940423D01*
X144626071Y-61770350D01*
X144626071Y-61770349D01*
X144626072Y-61770346D01*
X144654500Y-61590861D01*
X144654500Y-61409139D01*
X144626072Y-61229654D01*
X144626071Y-61229650D01*
X144626071Y-61229649D01*
X144569918Y-61056828D01*
X144569916Y-61056825D01*
X144527010Y-60972615D01*
X144487417Y-60894910D01*
X144380603Y-60747894D01*
X144252106Y-60619397D01*
X144151613Y-60546384D01*
X144108949Y-60491054D01*
X144100500Y-60446067D01*
X144100500Y-34808445D01*
X144100500Y-34808443D01*
X144059577Y-34655716D01*
X144059577Y-34655715D01*
X144040917Y-34623397D01*
X144015430Y-34579250D01*
X144015430Y-34579249D01*
X143980524Y-34518790D01*
X143980521Y-34518786D01*
X143980520Y-34518784D01*
X143868716Y-34406980D01*
X143868715Y-34406979D01*
X143864385Y-34402649D01*
X143864374Y-34402639D01*
X143171818Y-33710083D01*
X143138333Y-33648760D01*
X143135499Y-33622402D01*
X143135499Y-32999645D01*
X143129174Y-32930033D01*
X143129171Y-32930022D01*
X143079252Y-32769824D01*
X143079250Y-32769820D01*
X142992443Y-32626222D01*
X142992439Y-32626217D01*
X142873782Y-32507560D01*
X142873777Y-32507556D01*
X142730180Y-32420750D01*
X142730179Y-32420749D01*
X142730178Y-32420749D01*
X142569971Y-32370827D01*
X142569969Y-32370826D01*
X142569967Y-32370826D01*
X142521221Y-32366396D01*
X142500347Y-32364500D01*
X142500344Y-32364500D01*
X142224500Y-32364500D01*
X142157461Y-32344815D01*
X142111706Y-32292011D01*
X142100500Y-32240500D01*
X142100500Y-29300096D01*
X142109144Y-29270655D01*
X142115668Y-29240669D01*
X142119422Y-29235653D01*
X142120185Y-29233057D01*
X142136815Y-29212419D01*
X142152820Y-29196414D01*
X142214142Y-29162930D01*
X142283834Y-29167914D01*
X142339767Y-29209786D01*
X142364184Y-29275250D01*
X142364500Y-29284094D01*
X142364500Y-29362854D01*
X142370825Y-29432466D01*
X142370828Y-29432477D01*
X142420747Y-29592675D01*
X142420749Y-29592679D01*
X142507556Y-29736277D01*
X142507560Y-29736282D01*
X142626217Y-29854939D01*
X142626222Y-29854943D01*
X142745439Y-29927011D01*
X142769822Y-29941751D01*
X142930029Y-29991673D01*
X142999653Y-29998000D01*
X144000346Y-29997999D01*
X144000353Y-29997999D01*
X144069966Y-29991674D01*
X144069969Y-29991673D01*
X144069971Y-29991673D01*
X144230178Y-29941751D01*
X144341432Y-29874496D01*
X144373777Y-29854943D01*
X144373778Y-29854941D01*
X144373783Y-29854939D01*
X144492439Y-29736283D01*
X144579251Y-29592678D01*
X144629173Y-29432471D01*
X144635500Y-29362847D01*
X144635499Y-28362154D01*
X144635499Y-28362153D01*
X144635499Y-28362145D01*
X144629174Y-28292533D01*
X144629171Y-28292522D01*
X144579252Y-28132324D01*
X144579250Y-28132320D01*
X144492443Y-27988722D01*
X144492439Y-27988717D01*
X144373781Y-27870059D01*
X144308535Y-27830617D01*
X144261348Y-27779089D01*
X144249509Y-27710230D01*
X144276778Y-27645901D01*
X144334496Y-27606527D01*
X144372685Y-27600500D01*
X155337403Y-27600500D01*
X155404442Y-27620185D01*
G37*
%TD.AperFunction*%
%TA.AperFunction,NonConductor*%
G36*
X154296546Y-87005185D02*
G01*
X154342301Y-87057989D01*
X154352245Y-87127147D01*
X154323220Y-87190703D01*
X154317188Y-87197181D01*
X154061188Y-87453181D01*
X154034260Y-87467884D01*
X154008442Y-87484477D01*
X154002241Y-87485368D01*
X153999865Y-87486666D01*
X153973507Y-87489500D01*
X153786067Y-87489500D01*
X153719028Y-87469815D01*
X153673273Y-87417011D01*
X153663672Y-87350240D01*
X153663262Y-87350196D01*
X153663434Y-87348588D01*
X153663329Y-87347853D01*
X153663756Y-87345600D01*
X153664563Y-87338086D01*
X153670500Y-87282873D01*
X153670500Y-87109500D01*
X153690185Y-87042461D01*
X153742989Y-86996706D01*
X153794500Y-86985500D01*
X154229507Y-86985500D01*
X154296546Y-87005185D01*
G37*
%TD.AperFunction*%
%TA.AperFunction,NonConductor*%
G36*
X159168834Y-84287940D02*
G01*
X159224767Y-84329812D01*
X159249184Y-84395276D01*
X159249500Y-84404122D01*
X159249500Y-88165500D01*
X159229815Y-88232539D01*
X159177011Y-88278294D01*
X159125500Y-88289500D01*
X155364122Y-88289500D01*
X155297083Y-88269815D01*
X155251328Y-88217011D01*
X155241384Y-88147853D01*
X155270409Y-88084297D01*
X155276441Y-88077819D01*
X157129482Y-86224778D01*
X159037821Y-84316439D01*
X159099142Y-84282956D01*
X159168834Y-84287940D01*
G37*
%TD.AperFunction*%
M02*
