M48
; DRILL file KiCad 10.0.4 date 2026-07-08T09:23:39
; FORMAT={-:-/ absolute / metric / decimal}
; #@! TF.CreationDate,2026-07-08T09:23:39+02:00
; #@! TF.GenerationSoftware,Kicad,Pcbnew,10.0.4
; #@! TF.FileFunction,Plated,1,2,PTH
FMAT,2
METRIC
; #@! TA.AperFunction,Plated,PTH,ComponentDrill
T1C0.700
; #@! TA.AperFunction,Plated,PTH,ComponentDrill
T2C0.800
; #@! TA.AperFunction,Plated,PTH,ComponentDrill
T3C0.900
; #@! TA.AperFunction,Plated,PTH,ComponentDrill
T4C1.000
; #@! TA.AperFunction,Plated,PTH,ComponentDrill
T5C1.100
%
G90
G05
T1
X162.0Y-75.46
X162.0Y-80.54
X164.5Y-57.91
X164.5Y-62.99
T2
X133.5Y-28.5
X134.387Y-54.112
X134.387Y-56.112
X134.387Y-59.112
X134.387Y-61.112
X137.0Y-68.5
X138.5Y-28.5
X139.0Y-68.5
X143.5Y-28.5
X144.0Y-60.0
X144.0Y-62.0
X144.0Y-64.0
X144.0Y-66.0
X158.0Y-28.862
X158.0Y-59.0
X158.0Y-61.0
X158.0Y-63.0
X158.0Y-65.0
X162.0Y-61.5
X162.0Y-63.5
X163.0Y-28.862
X167.0Y-61.5
X167.0Y-63.5
X168.0Y-28.862
T3
X149.73Y-85.835
X152.27Y-85.835
X164.107Y-44.235
X165.903Y-46.031
T4
X141.5Y-33.5
X141.5Y-36.0
X141.5Y-38.5
T5
X162.5Y-33.0
X162.5Y-37.5
T2
G00X138.9Y-31.0
M15
G01X140.1Y-31.0
M16
G05
G00X138.9Y-41.0
M15
G01X140.1Y-41.0
M16
G05
M30
