%TF.GenerationSoftware,KiCad,Pcbnew,10.0.4*%
%TF.CreationDate,2026-07-07T16:46:10+02:00*%
%TF.ProjectId,mouse1-1,6d6f7573-6531-42d3-912e-6b696361645f,07/07/2026*%
%TF.SameCoordinates,Original*%
%TF.FileFunction,Copper,L1,Top*%
%TF.FilePolarity,Positive*%
%FSLAX46Y46*%
G04 Gerber Fmt 4.6, Leading zero omitted, Abs format (unit mm)*
G04 Created by KiCad (PCBNEW 10.0.4) date 2026-07-07 16:46:10*
%MOMM*%
%LPD*%
G01*
G04 APERTURE LIST*
G04 Aperture macros list*
%AMRoundRect*
0 Rectangle with rounded corners*
0 $1 Rounding radius*
0 $2 $3 $4 $5 $6 $7 $8 $9 X,Y pos of 4 corners*
0 Add a 4 corners polygon primitive as box body*
4,1,4,$2,$3,$4,$5,$6,$7,$8,$9,$2,$3,0*
0 Add four circle primitives for the rounded corners*
1,1,$1+$1,$2,$3*
1,1,$1+$1,$4,$5*
1,1,$1+$1,$6,$7*
1,1,$1+$1,$8,$9*
0 Add four rect primitives between the rounded corners*
20,1,$1+$1,$2,$3,$4,$5,0*
20,1,$1+$1,$4,$5,$6,$7,0*
20,1,$1+$1,$6,$7,$8,$9,0*
20,1,$1+$1,$8,$9,$2,$3,0*%
G04 Aperture macros list end*
%ADD10C,0.300000*%
%TA.AperFunction,NonConductor*%
%ADD11C,0.300000*%
%TD*%
%TA.AperFunction,ComponentPad*%
%ADD12RoundRect,0.190500X0.444500X-0.444500X0.444500X0.444500X-0.444500X0.444500X-0.444500X-0.444500X0*%
%TD*%
%TA.AperFunction,ComponentPad*%
%ADD13R,2.252440X1.134998*%
%TD*%
%TA.AperFunction,ComponentPad*%
%ADD14R,2.201764X1.000000*%
%TD*%
%TA.AperFunction,ComponentPad*%
%ADD15RoundRect,0.190500X-0.444500X-0.444500X0.444500X-0.444500X0.444500X0.444500X-0.444500X0.444500X0*%
%TD*%
%TA.AperFunction,ComponentPad*%
%ADD16C,1.308000*%
%TD*%
%TA.AperFunction,ComponentPad*%
%ADD17R,0.986872X1.298245*%
%TD*%
%TA.AperFunction,ComponentPad*%
%ADD18R,0.925400X1.135000*%
%TD*%
%TA.AperFunction,ComponentPad*%
%ADD19R,1.800000X1.800000*%
%TD*%
%TA.AperFunction,ComponentPad*%
%ADD20C,1.800000*%
%TD*%
%TA.AperFunction,ComponentPad*%
%ADD21C,1.400000*%
%TD*%
%TA.AperFunction,ComponentPad*%
%ADD22C,2.000000*%
%TD*%
G04 APERTURE END LIST*
D10*
D11*
X139146400Y-82102632D02*
X139079733Y-82169298D01*
X139079733Y-82169298D02*
X139013066Y-82302632D01*
X139013066Y-82302632D02*
X139013066Y-82435965D01*
X139013066Y-82435965D02*
X139079733Y-82569298D01*
X139079733Y-82569298D02*
X139146400Y-82635965D01*
X139146400Y-82635965D02*
X139279733Y-82702632D01*
X139279733Y-82702632D02*
X139413066Y-82702632D01*
X139413066Y-82702632D02*
X139546400Y-82635965D01*
X139546400Y-82635965D02*
X139613066Y-82569298D01*
X139613066Y-82569298D02*
X139679733Y-82435965D01*
X139679733Y-82435965D02*
X139679733Y-82302632D01*
X139679733Y-82302632D02*
X139613066Y-82169298D01*
X139613066Y-82169298D02*
X139546400Y-82102632D01*
X139013066Y-82102632D02*
X139546400Y-82102632D01*
X139546400Y-82102632D02*
X139613066Y-82035965D01*
X139613066Y-82035965D02*
X139613066Y-81969298D01*
X139613066Y-81969298D02*
X139546400Y-81835965D01*
X139546400Y-81835965D02*
X139413066Y-81769298D01*
X139413066Y-81769298D02*
X139079733Y-81769298D01*
X139079733Y-81769298D02*
X138879733Y-81902632D01*
X138879733Y-81902632D02*
X138746400Y-82102632D01*
X138746400Y-82102632D02*
X138679733Y-82369298D01*
X138679733Y-82369298D02*
X138746400Y-82635965D01*
X138746400Y-82635965D02*
X138879733Y-82835965D01*
X138879733Y-82835965D02*
X139079733Y-82969298D01*
X139079733Y-82969298D02*
X139346400Y-83035965D01*
X139346400Y-83035965D02*
X139613066Y-82969298D01*
X139613066Y-82969298D02*
X139813066Y-82835965D01*
X139813066Y-82835965D02*
X139946400Y-82635965D01*
X139946400Y-82635965D02*
X140013066Y-82369298D01*
X140013066Y-82369298D02*
X139946400Y-82102632D01*
X139946400Y-82102632D02*
X139813066Y-81902632D01*
X139813066Y-81169298D02*
X138413066Y-81169298D01*
X138413066Y-81169298D02*
X138413066Y-80635965D01*
X138413066Y-80635965D02*
X138479733Y-80502632D01*
X138479733Y-80502632D02*
X138546400Y-80435965D01*
X138546400Y-80435965D02*
X138679733Y-80369298D01*
X138679733Y-80369298D02*
X138879733Y-80369298D01*
X138879733Y-80369298D02*
X139013066Y-80435965D01*
X139013066Y-80435965D02*
X139079733Y-80502632D01*
X139079733Y-80502632D02*
X139146400Y-80635965D01*
X139146400Y-80635965D02*
X139146400Y-81169298D01*
X139813066Y-79769298D02*
X138879733Y-79769298D01*
X139146400Y-79769298D02*
X139013066Y-79702632D01*
X139013066Y-79702632D02*
X138946400Y-79635965D01*
X138946400Y-79635965D02*
X138879733Y-79502632D01*
X138879733Y-79502632D02*
X138879733Y-79369298D01*
X139813066Y-78902631D02*
X138879733Y-78902631D01*
X138413066Y-78902631D02*
X138479733Y-78969298D01*
X138479733Y-78969298D02*
X138546400Y-78902631D01*
X138546400Y-78902631D02*
X138479733Y-78835965D01*
X138479733Y-78835965D02*
X138413066Y-78902631D01*
X138413066Y-78902631D02*
X138546400Y-78902631D01*
X138879733Y-78235964D02*
X139813066Y-78235964D01*
X139013066Y-78235964D02*
X138946400Y-78169298D01*
X138946400Y-78169298D02*
X138879733Y-78035964D01*
X138879733Y-78035964D02*
X138879733Y-77835964D01*
X138879733Y-77835964D02*
X138946400Y-77702631D01*
X138946400Y-77702631D02*
X139079733Y-77635964D01*
X139079733Y-77635964D02*
X139813066Y-77635964D01*
X138879733Y-77169297D02*
X138879733Y-76635964D01*
X138413066Y-76969297D02*
X139613066Y-76969297D01*
X139613066Y-76969297D02*
X139746400Y-76902631D01*
X139746400Y-76902631D02*
X139813066Y-76769297D01*
X139813066Y-76769297D02*
X139813066Y-76635964D01*
X139746400Y-75635964D02*
X139813066Y-75769297D01*
X139813066Y-75769297D02*
X139813066Y-76035964D01*
X139813066Y-76035964D02*
X139746400Y-76169297D01*
X139746400Y-76169297D02*
X139613066Y-76235964D01*
X139613066Y-76235964D02*
X139079733Y-76235964D01*
X139079733Y-76235964D02*
X138946400Y-76169297D01*
X138946400Y-76169297D02*
X138879733Y-76035964D01*
X138879733Y-76035964D02*
X138879733Y-75769297D01*
X138879733Y-75769297D02*
X138946400Y-75635964D01*
X138946400Y-75635964D02*
X139079733Y-75569297D01*
X139079733Y-75569297D02*
X139213066Y-75569297D01*
X139213066Y-75569297D02*
X139346400Y-76235964D01*
X139813066Y-74969297D02*
X138879733Y-74969297D01*
X139146400Y-74969297D02*
X139013066Y-74902631D01*
X139013066Y-74902631D02*
X138946400Y-74835964D01*
X138946400Y-74835964D02*
X138879733Y-74702631D01*
X138879733Y-74702631D02*
X138879733Y-74569297D01*
X139079733Y-73635964D02*
X139079733Y-74102630D01*
X139813066Y-74102630D02*
X138413066Y-74102630D01*
X138413066Y-74102630D02*
X138413066Y-73435964D01*
X139813066Y-72902630D02*
X138879733Y-72902630D01*
X138413066Y-72902630D02*
X138479733Y-72969297D01*
X138479733Y-72969297D02*
X138546400Y-72902630D01*
X138546400Y-72902630D02*
X138479733Y-72835964D01*
X138479733Y-72835964D02*
X138413066Y-72902630D01*
X138413066Y-72902630D02*
X138546400Y-72902630D01*
X139813066Y-72369297D02*
X138879733Y-71635963D01*
X138879733Y-72369297D02*
X139813066Y-71635963D01*
X139746400Y-70569297D02*
X139813066Y-70702630D01*
X139813066Y-70702630D02*
X139813066Y-70969297D01*
X139813066Y-70969297D02*
X139746400Y-71102630D01*
X139746400Y-71102630D02*
X139613066Y-71169297D01*
X139613066Y-71169297D02*
X139079733Y-71169297D01*
X139079733Y-71169297D02*
X138946400Y-71102630D01*
X138946400Y-71102630D02*
X138879733Y-70969297D01*
X138879733Y-70969297D02*
X138879733Y-70702630D01*
X138879733Y-70702630D02*
X138946400Y-70569297D01*
X138946400Y-70569297D02*
X139079733Y-70502630D01*
X139079733Y-70502630D02*
X139213066Y-70502630D01*
X139213066Y-70502630D02*
X139346400Y-71169297D01*
X139813066Y-69902630D02*
X138879733Y-69902630D01*
X139146400Y-69902630D02*
X139013066Y-69835964D01*
X139013066Y-69835964D02*
X138946400Y-69769297D01*
X138946400Y-69769297D02*
X138879733Y-69635964D01*
X138879733Y-69635964D02*
X138879733Y-69502630D01*
X139813066Y-67769296D02*
X139746400Y-67902630D01*
X139746400Y-67902630D02*
X139679733Y-67969296D01*
X139679733Y-67969296D02*
X139546400Y-68035963D01*
X139546400Y-68035963D02*
X139146400Y-68035963D01*
X139146400Y-68035963D02*
X139013066Y-67969296D01*
X139013066Y-67969296D02*
X138946400Y-67902630D01*
X138946400Y-67902630D02*
X138879733Y-67769296D01*
X138879733Y-67769296D02*
X138879733Y-67569296D01*
X138879733Y-67569296D02*
X138946400Y-67435963D01*
X138946400Y-67435963D02*
X139013066Y-67369296D01*
X139013066Y-67369296D02*
X139146400Y-67302630D01*
X139146400Y-67302630D02*
X139546400Y-67302630D01*
X139546400Y-67302630D02*
X139679733Y-67369296D01*
X139679733Y-67369296D02*
X139746400Y-67435963D01*
X139746400Y-67435963D02*
X139813066Y-67569296D01*
X139813066Y-67569296D02*
X139813066Y-67769296D01*
X138879733Y-66702629D02*
X139813066Y-66702629D01*
X139013066Y-66702629D02*
X138946400Y-66635963D01*
X138946400Y-66635963D02*
X138879733Y-66502629D01*
X138879733Y-66502629D02*
X138879733Y-66302629D01*
X138879733Y-66302629D02*
X138946400Y-66169296D01*
X138946400Y-66169296D02*
X139079733Y-66102629D01*
X139079733Y-66102629D02*
X139813066Y-66102629D01*
X139146400Y-64102629D02*
X139813066Y-64102629D01*
X138413066Y-64569295D02*
X139146400Y-64102629D01*
X139146400Y-64102629D02*
X138413066Y-63635962D01*
X139813066Y-62969295D02*
X139746400Y-63102629D01*
X139746400Y-63102629D02*
X139679733Y-63169295D01*
X139679733Y-63169295D02*
X139546400Y-63235962D01*
X139546400Y-63235962D02*
X139146400Y-63235962D01*
X139146400Y-63235962D02*
X139013066Y-63169295D01*
X139013066Y-63169295D02*
X138946400Y-63102629D01*
X138946400Y-63102629D02*
X138879733Y-62969295D01*
X138879733Y-62969295D02*
X138879733Y-62769295D01*
X138879733Y-62769295D02*
X138946400Y-62635962D01*
X138946400Y-62635962D02*
X139013066Y-62569295D01*
X139013066Y-62569295D02*
X139146400Y-62502629D01*
X139146400Y-62502629D02*
X139546400Y-62502629D01*
X139546400Y-62502629D02*
X139679733Y-62569295D01*
X139679733Y-62569295D02*
X139746400Y-62635962D01*
X139746400Y-62635962D02*
X139813066Y-62769295D01*
X139813066Y-62769295D02*
X139813066Y-62969295D01*
X138879733Y-61302628D02*
X139813066Y-61302628D01*
X138879733Y-61902628D02*
X139613066Y-61902628D01*
X139613066Y-61902628D02*
X139746400Y-61835962D01*
X139746400Y-61835962D02*
X139813066Y-61702628D01*
X139813066Y-61702628D02*
X139813066Y-61502628D01*
X139813066Y-61502628D02*
X139746400Y-61369295D01*
X139746400Y-61369295D02*
X139679733Y-61302628D01*
X138413066Y-60835961D02*
X138413066Y-60035961D01*
X139813066Y-60435961D02*
X138413066Y-60435961D01*
X138879733Y-58969294D02*
X139813066Y-58969294D01*
X138879733Y-59569294D02*
X139613066Y-59569294D01*
X139613066Y-59569294D02*
X139746400Y-59502628D01*
X139746400Y-59502628D02*
X139813066Y-59369294D01*
X139813066Y-59369294D02*
X139813066Y-59169294D01*
X139813066Y-59169294D02*
X139746400Y-59035961D01*
X139746400Y-59035961D02*
X139679733Y-58969294D01*
X139813066Y-58302627D02*
X138413066Y-58302627D01*
X138946400Y-58302627D02*
X138879733Y-58169294D01*
X138879733Y-58169294D02*
X138879733Y-57902627D01*
X138879733Y-57902627D02*
X138946400Y-57769294D01*
X138946400Y-57769294D02*
X139013066Y-57702627D01*
X139013066Y-57702627D02*
X139146400Y-57635961D01*
X139146400Y-57635961D02*
X139546400Y-57635961D01*
X139546400Y-57635961D02*
X139679733Y-57702627D01*
X139679733Y-57702627D02*
X139746400Y-57769294D01*
X139746400Y-57769294D02*
X139813066Y-57902627D01*
X139813066Y-57902627D02*
X139813066Y-58169294D01*
X139813066Y-58169294D02*
X139746400Y-58302627D01*
X139746400Y-56502627D02*
X139813066Y-56635960D01*
X139813066Y-56635960D02*
X139813066Y-56902627D01*
X139813066Y-56902627D02*
X139746400Y-57035960D01*
X139746400Y-57035960D02*
X139613066Y-57102627D01*
X139613066Y-57102627D02*
X139079733Y-57102627D01*
X139079733Y-57102627D02*
X138946400Y-57035960D01*
X138946400Y-57035960D02*
X138879733Y-56902627D01*
X138879733Y-56902627D02*
X138879733Y-56635960D01*
X138879733Y-56635960D02*
X138946400Y-56502627D01*
X138946400Y-56502627D02*
X139079733Y-56435960D01*
X139079733Y-56435960D02*
X139213066Y-56435960D01*
X139213066Y-56435960D02*
X139346400Y-57102627D01*
X139679733Y-55835960D02*
X139746400Y-55769294D01*
X139746400Y-55769294D02*
X139813066Y-55835960D01*
X139813066Y-55835960D02*
X139746400Y-55902627D01*
X139746400Y-55902627D02*
X139679733Y-55835960D01*
X139679733Y-55835960D02*
X139813066Y-55835960D01*
X139746400Y-54569293D02*
X139813066Y-54702627D01*
X139813066Y-54702627D02*
X139813066Y-54969293D01*
X139813066Y-54969293D02*
X139746400Y-55102627D01*
X139746400Y-55102627D02*
X139679733Y-55169293D01*
X139679733Y-55169293D02*
X139546400Y-55235960D01*
X139546400Y-55235960D02*
X139146400Y-55235960D01*
X139146400Y-55235960D02*
X139013066Y-55169293D01*
X139013066Y-55169293D02*
X138946400Y-55102627D01*
X138946400Y-55102627D02*
X138879733Y-54969293D01*
X138879733Y-54969293D02*
X138879733Y-54702627D01*
X138879733Y-54702627D02*
X138946400Y-54569293D01*
X139813066Y-53769293D02*
X139746400Y-53902627D01*
X139746400Y-53902627D02*
X139679733Y-53969293D01*
X139679733Y-53969293D02*
X139546400Y-54035960D01*
X139546400Y-54035960D02*
X139146400Y-54035960D01*
X139146400Y-54035960D02*
X139013066Y-53969293D01*
X139013066Y-53969293D02*
X138946400Y-53902627D01*
X138946400Y-53902627D02*
X138879733Y-53769293D01*
X138879733Y-53769293D02*
X138879733Y-53569293D01*
X138879733Y-53569293D02*
X138946400Y-53435960D01*
X138946400Y-53435960D02*
X139013066Y-53369293D01*
X139013066Y-53369293D02*
X139146400Y-53302627D01*
X139146400Y-53302627D02*
X139546400Y-53302627D01*
X139546400Y-53302627D02*
X139679733Y-53369293D01*
X139679733Y-53369293D02*
X139746400Y-53435960D01*
X139746400Y-53435960D02*
X139813066Y-53569293D01*
X139813066Y-53569293D02*
X139813066Y-53769293D01*
X139813066Y-52702626D02*
X138879733Y-52702626D01*
X139013066Y-52702626D02*
X138946400Y-52635960D01*
X138946400Y-52635960D02*
X138879733Y-52502626D01*
X138879733Y-52502626D02*
X138879733Y-52302626D01*
X138879733Y-52302626D02*
X138946400Y-52169293D01*
X138946400Y-52169293D02*
X139079733Y-52102626D01*
X139079733Y-52102626D02*
X139813066Y-52102626D01*
X139079733Y-52102626D02*
X138946400Y-52035960D01*
X138946400Y-52035960D02*
X138879733Y-51902626D01*
X138879733Y-51902626D02*
X138879733Y-51702626D01*
X138879733Y-51702626D02*
X138946400Y-51569293D01*
X138946400Y-51569293D02*
X139079733Y-51502626D01*
X139079733Y-51502626D02*
X139813066Y-51502626D01*
D10*
D11*
X137911653Y-46243055D02*
X137840225Y-46314484D01*
X137840225Y-46314484D02*
X137625939Y-46385912D01*
X137625939Y-46385912D02*
X137483082Y-46385912D01*
X137483082Y-46385912D02*
X137268796Y-46314484D01*
X137268796Y-46314484D02*
X137125939Y-46171626D01*
X137125939Y-46171626D02*
X137054510Y-46028769D01*
X137054510Y-46028769D02*
X136983082Y-45743055D01*
X136983082Y-45743055D02*
X136983082Y-45528769D01*
X136983082Y-45528769D02*
X137054510Y-45243055D01*
X137054510Y-45243055D02*
X137125939Y-45100198D01*
X137125939Y-45100198D02*
X137268796Y-44957341D01*
X137268796Y-44957341D02*
X137483082Y-44885912D01*
X137483082Y-44885912D02*
X137625939Y-44885912D01*
X137625939Y-44885912D02*
X137840225Y-44957341D01*
X137840225Y-44957341D02*
X137911653Y-45028769D01*
X138840225Y-44885912D02*
X138983082Y-44885912D01*
X138983082Y-44885912D02*
X139125939Y-44957341D01*
X139125939Y-44957341D02*
X139197368Y-45028769D01*
X139197368Y-45028769D02*
X139268796Y-45171626D01*
X139268796Y-45171626D02*
X139340225Y-45457341D01*
X139340225Y-45457341D02*
X139340225Y-45814484D01*
X139340225Y-45814484D02*
X139268796Y-46100198D01*
X139268796Y-46100198D02*
X139197368Y-46243055D01*
X139197368Y-46243055D02*
X139125939Y-46314484D01*
X139125939Y-46314484D02*
X138983082Y-46385912D01*
X138983082Y-46385912D02*
X138840225Y-46385912D01*
X138840225Y-46385912D02*
X138697368Y-46314484D01*
X138697368Y-46314484D02*
X138625939Y-46243055D01*
X138625939Y-46243055D02*
X138554510Y-46100198D01*
X138554510Y-46100198D02*
X138483082Y-45814484D01*
X138483082Y-45814484D02*
X138483082Y-45457341D01*
X138483082Y-45457341D02*
X138554510Y-45171626D01*
X138554510Y-45171626D02*
X138625939Y-45028769D01*
X138625939Y-45028769D02*
X138697368Y-44957341D01*
X138697368Y-44957341D02*
X138840225Y-44885912D01*
X139983081Y-46385912D02*
X139983081Y-45385912D01*
X139983081Y-45528769D02*
X140054510Y-45457341D01*
X140054510Y-45457341D02*
X140197367Y-45385912D01*
X140197367Y-45385912D02*
X140411653Y-45385912D01*
X140411653Y-45385912D02*
X140554510Y-45457341D01*
X140554510Y-45457341D02*
X140625939Y-45600198D01*
X140625939Y-45600198D02*
X140625939Y-46385912D01*
X140625939Y-45600198D02*
X140697367Y-45457341D01*
X140697367Y-45457341D02*
X140840224Y-45385912D01*
X140840224Y-45385912D02*
X141054510Y-45385912D01*
X141054510Y-45385912D02*
X141197367Y-45457341D01*
X141197367Y-45457341D02*
X141268796Y-45600198D01*
X141268796Y-45600198D02*
X141268796Y-46385912D01*
X141840224Y-44885912D02*
X142768796Y-44885912D01*
X142768796Y-44885912D02*
X142268796Y-45457341D01*
X142268796Y-45457341D02*
X142483081Y-45457341D01*
X142483081Y-45457341D02*
X142625939Y-45528769D01*
X142625939Y-45528769D02*
X142697367Y-45600198D01*
X142697367Y-45600198D02*
X142768796Y-45743055D01*
X142768796Y-45743055D02*
X142768796Y-46100198D01*
X142768796Y-46100198D02*
X142697367Y-46243055D01*
X142697367Y-46243055D02*
X142625939Y-46314484D01*
X142625939Y-46314484D02*
X142483081Y-46385912D01*
X142483081Y-46385912D02*
X142054510Y-46385912D01*
X142054510Y-46385912D02*
X141911653Y-46314484D01*
X141911653Y-46314484D02*
X141840224Y-46243055D01*
X143411652Y-46385912D02*
X143411652Y-44885912D01*
X143411652Y-45457341D02*
X143554510Y-45385912D01*
X143554510Y-45385912D02*
X143840224Y-45385912D01*
X143840224Y-45385912D02*
X143983081Y-45457341D01*
X143983081Y-45457341D02*
X144054510Y-45528769D01*
X144054510Y-45528769D02*
X144125938Y-45671626D01*
X144125938Y-45671626D02*
X144125938Y-46100198D01*
X144125938Y-46100198D02*
X144054510Y-46243055D01*
X144054510Y-46243055D02*
X143983081Y-46314484D01*
X143983081Y-46314484D02*
X143840224Y-46385912D01*
X143840224Y-46385912D02*
X143554510Y-46385912D01*
X143554510Y-46385912D02*
X143411652Y-46314484D01*
X145411653Y-45385912D02*
X145411653Y-46385912D01*
X145054510Y-44814484D02*
X144697367Y-45885912D01*
X144697367Y-45885912D02*
X145625938Y-45885912D01*
X146840224Y-46314484D02*
X146697366Y-46385912D01*
X146697366Y-46385912D02*
X146411652Y-46385912D01*
X146411652Y-46385912D02*
X146268795Y-46314484D01*
X146268795Y-46314484D02*
X146197366Y-46243055D01*
X146197366Y-46243055D02*
X146125938Y-46100198D01*
X146125938Y-46100198D02*
X146125938Y-45671626D01*
X146125938Y-45671626D02*
X146197366Y-45528769D01*
X146197366Y-45528769D02*
X146268795Y-45457341D01*
X146268795Y-45457341D02*
X146411652Y-45385912D01*
X146411652Y-45385912D02*
X146697366Y-45385912D01*
X146697366Y-45385912D02*
X146840224Y-45457341D01*
X147483080Y-46385912D02*
X147483080Y-44885912D01*
X147625938Y-45814484D02*
X148054509Y-46385912D01*
X148054509Y-45385912D02*
X147483080Y-45957341D01*
X150054509Y-46385912D02*
X149911652Y-46314484D01*
X149911652Y-46314484D02*
X149840223Y-46243055D01*
X149840223Y-46243055D02*
X149768795Y-46100198D01*
X149768795Y-46100198D02*
X149768795Y-45671626D01*
X149768795Y-45671626D02*
X149840223Y-45528769D01*
X149840223Y-45528769D02*
X149911652Y-45457341D01*
X149911652Y-45457341D02*
X150054509Y-45385912D01*
X150054509Y-45385912D02*
X150268795Y-45385912D01*
X150268795Y-45385912D02*
X150411652Y-45457341D01*
X150411652Y-45457341D02*
X150483081Y-45528769D01*
X150483081Y-45528769D02*
X150554509Y-45671626D01*
X150554509Y-45671626D02*
X150554509Y-46100198D01*
X150554509Y-46100198D02*
X150483081Y-46243055D01*
X150483081Y-46243055D02*
X150411652Y-46314484D01*
X150411652Y-46314484D02*
X150268795Y-46385912D01*
X150268795Y-46385912D02*
X150054509Y-46385912D01*
X151197366Y-45385912D02*
X151197366Y-46385912D01*
X151197366Y-45528769D02*
X151268795Y-45457341D01*
X151268795Y-45457341D02*
X151411652Y-45385912D01*
X151411652Y-45385912D02*
X151625938Y-45385912D01*
X151625938Y-45385912D02*
X151768795Y-45457341D01*
X151768795Y-45457341D02*
X151840224Y-45600198D01*
X151840224Y-45600198D02*
X151840224Y-46385912D01*
X154483081Y-44957341D02*
X154340224Y-44885912D01*
X154340224Y-44885912D02*
X154125938Y-44885912D01*
X154125938Y-44885912D02*
X153911652Y-44957341D01*
X153911652Y-44957341D02*
X153768795Y-45100198D01*
X153768795Y-45100198D02*
X153697366Y-45243055D01*
X153697366Y-45243055D02*
X153625938Y-45528769D01*
X153625938Y-45528769D02*
X153625938Y-45743055D01*
X153625938Y-45743055D02*
X153697366Y-46028769D01*
X153697366Y-46028769D02*
X153768795Y-46171626D01*
X153768795Y-46171626D02*
X153911652Y-46314484D01*
X153911652Y-46314484D02*
X154125938Y-46385912D01*
X154125938Y-46385912D02*
X154268795Y-46385912D01*
X154268795Y-46385912D02*
X154483081Y-46314484D01*
X154483081Y-46314484D02*
X154554509Y-46243055D01*
X154554509Y-46243055D02*
X154554509Y-45743055D01*
X154554509Y-45743055D02*
X154268795Y-45743055D01*
X155197366Y-46385912D02*
X155197366Y-45385912D01*
X155197366Y-44885912D02*
X155125938Y-44957341D01*
X155125938Y-44957341D02*
X155197366Y-45028769D01*
X155197366Y-45028769D02*
X155268795Y-44957341D01*
X155268795Y-44957341D02*
X155197366Y-44885912D01*
X155197366Y-44885912D02*
X155197366Y-45028769D01*
X155697367Y-45385912D02*
X156268795Y-45385912D01*
X155911652Y-44885912D02*
X155911652Y-46171626D01*
X155911652Y-46171626D02*
X155983081Y-46314484D01*
X155983081Y-46314484D02*
X156125938Y-46385912D01*
X156125938Y-46385912D02*
X156268795Y-46385912D01*
X156768795Y-46385912D02*
X156768795Y-44885912D01*
X156768795Y-45600198D02*
X157625938Y-45600198D01*
X157625938Y-46385912D02*
X157625938Y-44885912D01*
X158983082Y-45385912D02*
X158983082Y-46385912D01*
X158340224Y-45385912D02*
X158340224Y-46171626D01*
X158340224Y-46171626D02*
X158411653Y-46314484D01*
X158411653Y-46314484D02*
X158554510Y-46385912D01*
X158554510Y-46385912D02*
X158768796Y-46385912D01*
X158768796Y-46385912D02*
X158911653Y-46314484D01*
X158911653Y-46314484D02*
X158983082Y-46243055D01*
X159697367Y-46385912D02*
X159697367Y-44885912D01*
X159697367Y-45457341D02*
X159840225Y-45385912D01*
X159840225Y-45385912D02*
X160125939Y-45385912D01*
X160125939Y-45385912D02*
X160268796Y-45457341D01*
X160268796Y-45457341D02*
X160340225Y-45528769D01*
X160340225Y-45528769D02*
X160411653Y-45671626D01*
X160411653Y-45671626D02*
X160411653Y-46100198D01*
X160411653Y-46100198D02*
X160340225Y-46243055D01*
X160340225Y-46243055D02*
X160268796Y-46314484D01*
X160268796Y-46314484D02*
X160125939Y-46385912D01*
X160125939Y-46385912D02*
X159840225Y-46385912D01*
X159840225Y-46385912D02*
X159697367Y-46314484D01*
X161054510Y-46243055D02*
X161125939Y-46314484D01*
X161125939Y-46314484D02*
X161054510Y-46385912D01*
X161054510Y-46385912D02*
X160983082Y-46314484D01*
X160983082Y-46314484D02*
X161054510Y-46243055D01*
X161054510Y-46243055D02*
X161054510Y-46385912D01*
X162411654Y-46314484D02*
X162268796Y-46385912D01*
X162268796Y-46385912D02*
X161983082Y-46385912D01*
X161983082Y-46385912D02*
X161840225Y-46314484D01*
X161840225Y-46314484D02*
X161768796Y-46243055D01*
X161768796Y-46243055D02*
X161697368Y-46100198D01*
X161697368Y-46100198D02*
X161697368Y-45671626D01*
X161697368Y-45671626D02*
X161768796Y-45528769D01*
X161768796Y-45528769D02*
X161840225Y-45457341D01*
X161840225Y-45457341D02*
X161983082Y-45385912D01*
X161983082Y-45385912D02*
X162268796Y-45385912D01*
X162268796Y-45385912D02*
X162411654Y-45457341D01*
X163268796Y-46385912D02*
X163125939Y-46314484D01*
X163125939Y-46314484D02*
X163054510Y-46243055D01*
X163054510Y-46243055D02*
X162983082Y-46100198D01*
X162983082Y-46100198D02*
X162983082Y-45671626D01*
X162983082Y-45671626D02*
X163054510Y-45528769D01*
X163054510Y-45528769D02*
X163125939Y-45457341D01*
X163125939Y-45457341D02*
X163268796Y-45385912D01*
X163268796Y-45385912D02*
X163483082Y-45385912D01*
X163483082Y-45385912D02*
X163625939Y-45457341D01*
X163625939Y-45457341D02*
X163697368Y-45528769D01*
X163697368Y-45528769D02*
X163768796Y-45671626D01*
X163768796Y-45671626D02*
X163768796Y-46100198D01*
X163768796Y-46100198D02*
X163697368Y-46243055D01*
X163697368Y-46243055D02*
X163625939Y-46314484D01*
X163625939Y-46314484D02*
X163483082Y-46385912D01*
X163483082Y-46385912D02*
X163268796Y-46385912D01*
X164411653Y-46385912D02*
X164411653Y-45385912D01*
X164411653Y-45528769D02*
X164483082Y-45457341D01*
X164483082Y-45457341D02*
X164625939Y-45385912D01*
X164625939Y-45385912D02*
X164840225Y-45385912D01*
X164840225Y-45385912D02*
X164983082Y-45457341D01*
X164983082Y-45457341D02*
X165054511Y-45600198D01*
X165054511Y-45600198D02*
X165054511Y-46385912D01*
X165054511Y-45600198D02*
X165125939Y-45457341D01*
X165125939Y-45457341D02*
X165268796Y-45385912D01*
X165268796Y-45385912D02*
X165483082Y-45385912D01*
X165483082Y-45385912D02*
X165625939Y-45457341D01*
X165625939Y-45457341D02*
X165697368Y-45600198D01*
X165697368Y-45600198D02*
X165697368Y-46385912D01*
X136911653Y-47300828D02*
X137911653Y-48800828D01*
X137911653Y-47300828D02*
X136911653Y-48800828D01*
X138268796Y-47800828D02*
X138840224Y-47800828D01*
X138483081Y-47300828D02*
X138483081Y-48586542D01*
X138483081Y-48586542D02*
X138554510Y-48729400D01*
X138554510Y-48729400D02*
X138697367Y-48800828D01*
X138697367Y-48800828D02*
X138840224Y-48800828D01*
X139340224Y-48800828D02*
X139340224Y-47800828D01*
X139340224Y-48086542D02*
X139411653Y-47943685D01*
X139411653Y-47943685D02*
X139483082Y-47872257D01*
X139483082Y-47872257D02*
X139625939Y-47800828D01*
X139625939Y-47800828D02*
X139768796Y-47800828D01*
X140840224Y-48729400D02*
X140697367Y-48800828D01*
X140697367Y-48800828D02*
X140411653Y-48800828D01*
X140411653Y-48800828D02*
X140268795Y-48729400D01*
X140268795Y-48729400D02*
X140197367Y-48586542D01*
X140197367Y-48586542D02*
X140197367Y-48015114D01*
X140197367Y-48015114D02*
X140268795Y-47872257D01*
X140268795Y-47872257D02*
X140411653Y-47800828D01*
X140411653Y-47800828D02*
X140697367Y-47800828D01*
X140697367Y-47800828D02*
X140840224Y-47872257D01*
X140840224Y-47872257D02*
X140911653Y-48015114D01*
X140911653Y-48015114D02*
X140911653Y-48157971D01*
X140911653Y-48157971D02*
X140197367Y-48300828D01*
X141554509Y-48800828D02*
X141554509Y-47800828D01*
X141554509Y-47943685D02*
X141625938Y-47872257D01*
X141625938Y-47872257D02*
X141768795Y-47800828D01*
X141768795Y-47800828D02*
X141983081Y-47800828D01*
X141983081Y-47800828D02*
X142125938Y-47872257D01*
X142125938Y-47872257D02*
X142197367Y-48015114D01*
X142197367Y-48015114D02*
X142197367Y-48800828D01*
X142197367Y-48015114D02*
X142268795Y-47872257D01*
X142268795Y-47872257D02*
X142411652Y-47800828D01*
X142411652Y-47800828D02*
X142625938Y-47800828D01*
X142625938Y-47800828D02*
X142768795Y-47872257D01*
X142768795Y-47872257D02*
X142840224Y-48015114D01*
X142840224Y-48015114D02*
X142840224Y-48800828D01*
X144125938Y-48729400D02*
X143983081Y-48800828D01*
X143983081Y-48800828D02*
X143697367Y-48800828D01*
X143697367Y-48800828D02*
X143554509Y-48729400D01*
X143554509Y-48729400D02*
X143483081Y-48586542D01*
X143483081Y-48586542D02*
X143483081Y-48015114D01*
X143483081Y-48015114D02*
X143554509Y-47872257D01*
X143554509Y-47872257D02*
X143697367Y-47800828D01*
X143697367Y-47800828D02*
X143983081Y-47800828D01*
X143983081Y-47800828D02*
X144125938Y-47872257D01*
X144125938Y-47872257D02*
X144197367Y-48015114D01*
X144197367Y-48015114D02*
X144197367Y-48157971D01*
X144197367Y-48157971D02*
X143483081Y-48300828D01*
X145840223Y-47300828D02*
X146840223Y-48800828D01*
X146840223Y-47300828D02*
X145840223Y-48800828D01*
X147411651Y-48800828D02*
X147411651Y-47300828D01*
X147411651Y-47300828D02*
X147911651Y-48372257D01*
X147911651Y-48372257D02*
X148411651Y-47300828D01*
X148411651Y-47300828D02*
X148411651Y-48800828D01*
X149911652Y-48800828D02*
X149054509Y-48800828D01*
X149483080Y-48800828D02*
X149483080Y-47300828D01*
X149483080Y-47300828D02*
X149340223Y-47515114D01*
X149340223Y-47515114D02*
X149197366Y-47657971D01*
X149197366Y-47657971D02*
X149054509Y-47729400D01*
X150840223Y-47300828D02*
X150983080Y-47300828D01*
X150983080Y-47300828D02*
X151125937Y-47372257D01*
X151125937Y-47372257D02*
X151197366Y-47443685D01*
X151197366Y-47443685D02*
X151268794Y-47586542D01*
X151268794Y-47586542D02*
X151340223Y-47872257D01*
X151340223Y-47872257D02*
X151340223Y-48229400D01*
X151340223Y-48229400D02*
X151268794Y-48515114D01*
X151268794Y-48515114D02*
X151197366Y-48657971D01*
X151197366Y-48657971D02*
X151125937Y-48729400D01*
X151125937Y-48729400D02*
X150983080Y-48800828D01*
X150983080Y-48800828D02*
X150840223Y-48800828D01*
X150840223Y-48800828D02*
X150697366Y-48729400D01*
X150697366Y-48729400D02*
X150625937Y-48657971D01*
X150625937Y-48657971D02*
X150554508Y-48515114D01*
X150554508Y-48515114D02*
X150483080Y-48229400D01*
X150483080Y-48229400D02*
X150483080Y-47872257D01*
X150483080Y-47872257D02*
X150554508Y-47586542D01*
X150554508Y-47586542D02*
X150625937Y-47443685D01*
X150625937Y-47443685D02*
X150697366Y-47372257D01*
X150697366Y-47372257D02*
X150840223Y-47300828D01*
X151911651Y-47443685D02*
X151983079Y-47372257D01*
X151983079Y-47372257D02*
X152125937Y-47300828D01*
X152125937Y-47300828D02*
X152483079Y-47300828D01*
X152483079Y-47300828D02*
X152625937Y-47372257D01*
X152625937Y-47372257D02*
X152697365Y-47443685D01*
X152697365Y-47443685D02*
X152768794Y-47586542D01*
X152768794Y-47586542D02*
X152768794Y-47729400D01*
X152768794Y-47729400D02*
X152697365Y-47943685D01*
X152697365Y-47943685D02*
X151840222Y-48800828D01*
X151840222Y-48800828D02*
X152768794Y-48800828D01*
X153411650Y-48800828D02*
X153411650Y-47300828D01*
X154268793Y-48800828D02*
X153625936Y-47943685D01*
X154268793Y-47300828D02*
X153411650Y-48157971D01*
D12*
%TO.P,ENC1,1,A_1*%
%TO.N,Net-(ENC1-A)*%
X142000000Y-38500000D03*
%TO.P,ENC1,2,B_2*%
%TO.N,Net-(ENC1-B)*%
X142000000Y-36000000D03*
%TO.P,ENC1,3,C_3*%
%TO.N,Net-(ENC1-C)*%
X142000000Y-33500000D03*
D13*
%TO.P,ENC1,4,THT1_4*%
%TO.N,unconnected-(ENC1-THT1-Pad4)*%
X139899180Y-41067499D03*
D14*
%TO.P,ENC1,5,THT2_5*%
%TO.N,unconnected-(ENC1-THT2-Pad5)*%
X139924518Y-31000000D03*
%TD*%
D15*
%TO.P,SWL1,1,C_1*%
%TO.N,Net-(ENC1-A)*%
X133500000Y-28862500D03*
%TO.P,SWL1,2,NO_2*%
%TO.N,Net-(SWL1-NO)*%
X138500000Y-28862500D03*
%TO.P,SWL1,3,NC_3*%
%TO.N,unconnected-(SWL1-NC-Pad3)*%
X143500000Y-28862500D03*
%TD*%
D16*
%TO.P,USB1,1,C_1*%
%TO.N,Net-(U1-DP)*%
X134000000Y-53000000D03*
%TO.P,USB1,2,D_2*%
%TO.N,Net-(U1-DM)*%
X134000000Y-55000000D03*
%TO.P,USB1,3,GND_3*%
%TO.N,Net-(ENC1-A)*%
X134000000Y-58000000D03*
%TO.P,USB1,4,VCC_4*%
%TO.N,Net-(D1-A)*%
X134000000Y-60000000D03*
%TD*%
D17*
%TO.P,C1,1*%
%TO.N,Net-(D1-A)*%
X166993445Y-63985878D03*
D18*
%TO.P,C1,2*%
%TO.N,Net-(ENC1-A)*%
X164037300Y-64067500D03*
%TD*%
D19*
%TO.P,D1,1,K_1*%
%TO.N,Net-(D1-K)*%
X152270000Y-86335000D03*
D20*
%TO.P,D1,2,A_2*%
%TO.N,Net-(D1-A)*%
X149730000Y-86335000D03*
%TD*%
D15*
%TO.P,SWR1,1,C_1*%
%TO.N,Net-(ENC1-B)*%
X157500000Y-28862500D03*
%TO.P,SWR1,2,NO_2*%
%TO.N,Net-(SWR1-NO)*%
X162500000Y-28862500D03*
%TO.P,SWR1,3,NC_3*%
%TO.N,unconnected-(SWR1-NC-Pad3)*%
X167500000Y-28862500D03*
%TD*%
D21*
%TO.P,R1,1*%
%TO.N,Net-(SWR1-NO)*%
X160000000Y-75460000D03*
%TO.P,R1,2*%
%TO.N,Net-(D1-K)*%
X160000000Y-80540000D03*
%TD*%
D22*
%TO.P,SWM1,1,1_1*%
%TO.N,Net-(SWL1-NO)*%
X161000000Y-32250000D03*
%TO.P,SWM1,2,2_2*%
%TO.N,Net-(SWR1-NO)*%
X161000000Y-36750000D03*
%TD*%
D16*
%TO.P,U1,1,SK2_1*%
%TO.N,Net-(ENC1-C)*%
X143500000Y-61500000D03*
%TO.P,U1,2,SK0_2*%
%TO.N,Net-(SWL1-NO)*%
X143500000Y-63500000D03*
%TO.P,U1,3,DP_3*%
%TO.N,Net-(U1-DP)*%
X143500000Y-65500000D03*
%TO.P,U1,4,DM_4*%
%TO.N,Net-(U1-DM)*%
X143500000Y-67500000D03*
%TO.P,U1,5,LED_5*%
%TO.N,Net-(SWR1-NO)*%
X157500000Y-66500000D03*
%TO.P,U1,6,GND_6*%
%TO.N,Net-(ENC1-A)*%
X157500000Y-64500000D03*
%TO.P,U1,7,VDD_7*%
%TO.N,Net-(D1-A)*%
X157500000Y-62500000D03*
%TO.P,U1,8,SK1_8*%
%TO.N,Net-(ENC1-B)*%
X157500000Y-60500000D03*
%TD*%
M02*
