M48
; DRILL file KiCad 10.0.4 date 2026-07-07T16:46:15
; FORMAT={-:-/ absolute / metric / decimal}
; #@! TF.CreationDate,2026-07-07T16:46:15+02:00
; #@! TF.GenerationSoftware,Kicad,Pcbnew,10.0.4
; #@! TF.FileFunction,Plated,1,2,PTH
FMAT,2
METRIC
; #@! TA.AperFunction,Plated,PTH,ComponentDrill
T1C0.700
; #@! TA.AperFunction,Plated,PTH,ComponentDrill
T2C0.800
; #@! TA.AperFunction,Plated,PTH,ComponentDrill
T3C0.900
; #@! TA.AperFunction,Plated,PTH,ComponentDrill
T4C1.000
; #@! TA.AperFunction,Plated,PTH,ComponentDrill
T5C1.100
%
G90
G05
T1
X160.0Y-75.46
X160.0Y-80.54
T2
X133.5Y-28.862
X134.0Y-53.0
X134.0Y-55.0
X134.0Y-58.0
X134.0Y-60.0
X138.5Y-28.862
X143.5Y-28.862
X143.5Y-61.5
X143.5Y-63.5
X143.5Y-65.5
X143.5Y-67.5
X157.5Y-28.862
X157.5Y-60.5
X157.5Y-62.5
X157.5Y-64.5
X157.5Y-66.5
X162.5Y-28.862
X164.0Y-64.0
X167.0Y-64.0
X167.5Y-28.862
T3
X149.73Y-86.335
X152.27Y-86.335
T4
X142.0Y-33.5
X142.0Y-36.0
X142.0Y-38.5
T5
X161.0Y-32.25
X161.0Y-36.75
T2
G00X139.4Y-31.0
M15
G01X140.6Y-31.0
M16
G05
G00X139.4Y-41.0
M15
G01X140.6Y-41.0
M16
G05
M30
